<svg width="519" height="93" viewBox="0 0 519 93" fill="none" xmlns="http://www.w3.org/2000/svg">
<path d="M3.48063 37V10.5544H12.254C14.0003 10.5544 15.6449 10.8355 17.1878 11.3977C18.7428 11.9598 20.1063 12.7971 21.2785 13.9094C22.4626 15.0098 23.3896 16.3674 24.0594 17.9821C24.7292 19.5969 25.0641 21.4568 25.0641 23.5619C25.0641 25.7029 24.7292 27.6107 24.0594 29.2852C23.3896 30.9478 22.4746 32.3532 21.3144 33.5014C20.1661 34.6497 18.8384 35.5228 17.3314 36.1209C15.8363 36.707 14.2514 37 12.5769 37H3.48063ZM7.89421 33.035H12.6487C13.6534 33.035 14.6282 32.8376 15.5731 32.4429C16.53 32.0362 17.3912 31.4322 18.1567 30.6308C18.9222 29.8294 19.5262 28.8427 19.9688 27.6705C20.4233 26.4864 20.6505 25.1168 20.6505 23.5619C20.6505 22.0429 20.4233 20.7152 19.9688 19.5789C19.5262 18.4426 18.9222 17.5037 18.1567 16.7621C17.3912 16.0086 16.53 15.4464 15.5731 15.0756C14.6282 14.7048 13.6534 14.5195 12.6487 14.5195H7.89421V33.035ZM0.64589 24.9255V22.1087H11.5542V24.9255H0.64589ZM33.7657 37.2871C32.5217 37.2871 31.4154 37.0419 30.4465 36.5515C29.4777 36.0491 28.7182 35.3673 28.168 34.5061C27.6178 33.633 27.3427 32.6283 27.3427 31.492C27.3427 30.2959 27.6656 29.2613 28.3115 28.3881C28.9574 27.503 29.9143 26.8213 31.1821 26.3428C32.45 25.8524 33.9989 25.6072 35.8289 25.6072H39.9734V28.5676H35.9366C34.5013 28.5676 33.3889 28.8008 32.5995 29.2673C31.8101 29.7337 31.4154 30.4275 31.4154 31.3485C31.4154 31.8987 31.5529 32.3651 31.828 32.7479C32.1031 33.1306 32.4799 33.4237 32.9583 33.627C33.4487 33.8304 33.9929 33.932 34.591 33.932C35.2129 33.932 35.8947 33.7945 36.6363 33.5194C37.3779 33.2443 38.0178 32.8197 38.556 32.2455C39.0943 31.6714 39.3634 30.9418 39.3634 30.0567V28.0831L39.1302 27.0605V24.7102C39.1302 24.3394 39.0823 23.9506 38.9866 23.544C38.9029 23.1373 38.7295 22.7605 38.4663 22.4137C38.2151 22.0548 37.8503 21.7678 37.3719 21.5525C36.8935 21.3252 36.2715 21.2116 35.506 21.2116C34.896 21.2116 34.2561 21.2834 33.5863 21.4269C32.9165 21.5585 32.2706 21.7438 31.6486 21.9831C31.0386 22.2223 30.5063 22.4914 30.0518 22.7904L28.5986 19.3636C29.1488 19.0526 29.8126 18.7596 30.5901 18.4845C31.3795 18.2094 32.2407 17.9881 33.1736 17.8207C34.1066 17.6532 35.0575 17.5695 36.0263 17.5695C37.6051 17.5695 38.867 17.7908 39.8119 18.2333C40.7688 18.6759 41.4865 19.256 41.9649 19.9736C42.4433 20.6793 42.7603 21.4448 42.9158 22.2701C43.0832 23.0835 43.167 23.8729 43.167 24.6384V30.8999C43.167 31.6535 43.2447 32.2336 43.4002 32.6402C43.5677 33.0469 43.8727 33.328 44.3152 33.4835L44.7099 33.627L43.167 37.2871L42.6108 37.0718C41.7017 36.7129 41.008 36.2644 40.5296 35.7262C40.0511 35.1879 39.794 34.6497 39.7581 34.1114L40.5655 34.56H39.1302L40.099 34.0576C39.6684 34.9308 38.879 35.6903 37.7307 36.3362C36.5825 36.9701 35.2608 37.2871 33.7657 37.2871ZM35.9007 16.0624L34.0169 14.4297L38.861 7.93496L41.6061 10.4647L35.9007 16.0624ZM47.9752 37V17.8565H52.1197V20.2786H52.9091L51.4379 21.9113C51.725 20.9544 52.1915 20.159 52.8374 19.5251C53.4952 18.8792 54.2667 18.3948 55.1518 18.0718C56.0489 17.7369 57.0117 17.5695 58.0404 17.5695C59.4996 17.5695 60.7076 17.8984 61.6645 18.5563C62.6334 19.2141 63.357 20.0753 63.8354 21.1398C64.3139 22.2043 64.5531 23.3586 64.5531 24.6025V37H60.3189V25.5175C60.3189 24.1061 59.9721 23.0416 59.2783 22.324C58.5846 21.6063 57.6397 21.2475 56.4436 21.2475C55.6542 21.2475 54.9365 21.4149 54.2906 21.7498C53.6447 22.0728 53.1364 22.5512 52.7656 23.1851C52.3948 23.8191 52.2094 24.6025 52.2094 25.5355V37H47.9752ZM68.7693 37V9.37027H73.0035V19.866H73.8647L72.232 21.5166C72.4951 20.6674 72.9437 19.9497 73.5776 19.3636C74.2235 18.7656 74.983 18.317 75.8562 18.018C76.7413 17.719 77.6802 17.5695 78.673 17.5695C80.2159 17.5695 81.4778 17.9044 82.4586 18.5742C83.4513 19.2321 84.181 20.0932 84.6474 21.1578C85.1139 22.2223 85.3471 23.3705 85.3471 24.6025V37H81.113V25.4996C81.113 24.0882 80.7542 23.0296 80.0365 22.324C79.3308 21.6063 78.3919 21.2475 77.2197 21.2475C76.4303 21.2475 75.7186 21.4089 75.0847 21.7319C74.4627 22.0548 73.9604 22.5333 73.5776 23.1672C73.1949 23.8011 73.0035 24.5905 73.0035 25.5355V37H68.7693ZM116.44 37.2871C115.638 36.9761 114.974 36.6472 114.448 36.3003C113.934 35.9415 113.539 35.5527 113.264 35.1341C113.001 34.7035 112.839 34.231 112.78 33.7167L113.479 34.0935H111.757L112.654 31.9046V21.7857L111.757 19.848H112.205V9.37027H116.44V31.0973C116.44 31.8508 116.547 32.401 116.763 32.7479C116.978 33.0828 117.384 33.3758 117.983 33.627L116.44 37.2871ZM106.428 37.2871C105.328 37.2871 104.263 37.0718 103.235 36.6412C102.218 36.1986 101.303 35.5587 100.49 34.7214C99.6883 33.8842 99.0544 32.8555 98.5879 31.6355C98.1334 30.4036 97.9121 29.0041 97.9241 27.4372C97.9001 25.3321 98.2889 23.544 99.0902 22.0728C99.9036 20.6016 100.968 19.4773 102.284 18.6998C103.6 17.9223 105.005 17.5336 106.5 17.5336C108.115 17.5336 109.544 17.9582 110.788 18.8074C112.044 19.6567 113.025 20.8229 113.73 22.306C114.448 23.7772 114.813 25.4517 114.825 27.3296C114.813 29.2075 114.442 30.8999 113.712 32.407C112.983 33.9141 111.984 35.1042 110.716 35.9773C109.46 36.8505 108.031 37.2871 106.428 37.2871ZM107.307 33.627C108.312 33.627 109.203 33.3579 109.981 32.8197C110.758 32.2814 111.368 31.5458 111.811 30.6129C112.253 29.668 112.48 28.5915 112.492 27.3834C112.48 26.0916 112.247 24.9853 111.793 24.0643C111.338 23.1433 110.722 22.4376 109.945 21.9472C109.167 21.4448 108.306 21.1996 107.361 21.2116C106.345 21.1996 105.436 21.4508 104.634 21.9651C103.845 22.4794 103.229 23.2031 102.786 24.136C102.344 25.057 102.128 26.1395 102.14 27.3834C102.128 28.5915 102.338 29.668 102.768 30.6129C103.211 31.5458 103.827 32.2814 104.616 32.8197C105.406 33.3579 106.303 33.627 107.307 33.627ZM126.953 37.2871C125.709 37.2871 124.603 37.0419 123.634 36.5515C122.665 36.0491 121.906 35.3673 121.355 34.5061C120.805 33.633 120.53 32.6283 120.53 31.492C120.53 30.2959 120.853 29.2613 121.499 28.3881C122.145 27.503 123.102 26.8213 124.37 26.3428C125.638 25.8524 127.186 25.6072 129.016 25.6072H133.161V28.5676H129.124C127.689 28.5676 126.576 28.8008 125.787 29.2673C124.998 29.7337 124.603 30.4275 124.603 31.3485C124.603 31.8987 124.74 32.3651 125.016 32.7479C125.291 33.1306 125.667 33.4237 126.146 33.627C126.636 33.8304 127.18 33.932 127.779 33.932C128.4 33.932 129.082 33.7945 129.824 33.5194C130.565 33.2443 131.205 32.8197 131.744 32.2455C132.282 31.6714 132.551 30.9418 132.551 30.0567V28.0831L132.318 27.0605V24.7102C132.318 24.3394 132.27 23.9506 132.174 23.544C132.09 23.1373 131.917 22.7605 131.654 22.4137C131.403 22.0548 131.038 21.7678 130.559 21.5525C130.081 21.3252 129.459 21.2116 128.694 21.2116C128.084 21.2116 127.444 21.2834 126.774 21.4269C126.104 21.5585 125.458 21.7438 124.836 21.9831C124.226 22.2223 123.694 22.4914 123.239 22.7904L121.786 19.3636C122.336 19.0526 123 18.7596 123.778 18.4845C124.567 18.2094 125.428 17.9881 126.361 17.8207C127.294 17.6532 128.245 17.5695 129.214 17.5695C130.793 17.5695 132.055 17.7908 132.999 18.2333C133.956 18.6759 134.674 19.256 135.152 19.9736C135.631 20.6793 135.948 21.4448 136.103 22.2701C136.271 23.0835 136.354 23.8729 136.354 24.6384V30.8999C136.354 31.6535 136.432 32.2336 136.588 32.6402C136.755 33.0469 137.06 33.328 137.503 33.4835L137.897 33.627L136.354 37.2871L135.798 37.0718C134.889 36.7129 134.196 36.2644 133.717 35.7262C133.239 35.1879 132.982 34.6497 132.946 34.1114L133.753 34.56H132.318L133.287 34.0576C132.856 34.9308 132.066 35.6903 130.918 36.3362C129.77 36.9701 128.448 37.2871 126.953 37.2871ZM134.507 11.2182L132.569 9.80087L138.077 4.23904L140.194 6.94819L134.507 11.2182ZM124.711 15.8471L122.719 13.8018L128.711 9.54969H129.662L135.637 13.8018L133.699 15.8471L129.232 12.4921H129.124L124.711 15.8471ZM148.034 37.2871C146.659 37.2871 145.433 36.994 144.356 36.4079C143.28 35.8218 142.431 34.9726 141.809 33.8603C141.199 32.7359 140.894 31.3724 140.894 29.7696V17.8565H145.128V29.339C145.128 30.7385 145.505 31.791 146.258 32.4967C147.012 33.2024 147.921 33.5553 148.985 33.5553C149.811 33.5553 150.528 33.3758 151.138 33.017C151.76 32.6462 152.245 32.1439 152.591 31.5099C152.95 30.876 153.13 30.1524 153.13 29.339V17.8565H157.364V31.0076C157.364 31.7731 157.466 32.3412 157.669 32.712C157.872 33.0828 158.285 33.3878 158.907 33.627L157.346 37.2871C156.234 36.8924 155.378 36.39 154.78 35.78C154.182 35.158 153.883 34.4643 153.883 33.6988L155.229 34.6317H152.825L154.888 33.3041C154.278 34.4045 153.399 35.3434 152.251 36.1209C151.102 36.8983 149.697 37.2871 148.034 37.2871Z" fill="#2922FF"/>
<path d="M148.188 81.8077C146.812 81.8077 145.526 81.5565 144.33 81.0542C143.134 80.5518 142.081 79.8581 141.172 78.973C140.275 78.0759 139.57 77.0293 139.055 75.8332C138.553 74.6252 138.302 73.3214 138.302 71.922C138.302 70.5106 138.559 69.2129 139.073 68.0287C139.588 66.8326 140.293 65.798 141.19 64.9249C142.087 64.0398 143.122 63.358 144.294 62.8795C145.478 62.3892 146.734 62.144 148.062 62.144C149.162 62.144 150.233 62.3114 151.273 62.6463C152.314 62.9693 153.229 63.4118 154.018 63.974L152.44 67.4546C152.093 67.1317 151.686 66.8566 151.22 66.6293C150.753 66.402 150.257 66.2286 149.73 66.109C149.204 65.9774 148.684 65.9116 148.17 65.9116C147.069 65.9116 146.088 66.1688 145.227 66.6831C144.378 67.1974 143.702 67.9151 143.2 68.8361C142.709 69.7451 142.464 70.7857 142.464 71.9579C142.464 73.1061 142.709 74.1408 143.2 75.0617C143.69 75.9827 144.366 76.7124 145.227 77.2506C146.088 77.7769 147.075 78.04 148.188 78.04C149.073 78.04 149.904 77.8905 150.681 77.5915C151.471 77.2805 152.081 76.9217 152.511 76.515L154.072 80.0494C153.379 80.5398 152.523 80.9585 151.507 81.3053C150.49 81.6403 149.384 81.8077 148.188 81.8077ZM157.015 81.5924V53.9627H161.249V64.4584H162.11L160.477 66.109C160.74 65.2598 161.189 64.5421 161.823 63.956C162.469 63.358 163.228 62.9095 164.102 62.6104C164.987 62.3114 165.926 62.1619 166.918 62.1619C168.461 62.1619 169.723 62.4968 170.704 63.1666C171.697 63.8245 172.426 64.6856 172.893 65.7502C173.359 66.8147 173.593 67.9629 173.593 69.1949V81.5924H169.358V70.092C169.358 68.6806 169 67.6221 168.282 66.9164C167.576 66.1987 166.637 65.8399 165.465 65.8399C164.676 65.8399 163.964 66.0013 163.33 66.3243C162.708 66.6472 162.206 67.1257 161.823 67.7596C161.44 68.3935 161.249 69.183 161.249 70.1279V81.5924H157.015ZM177.952 81.5924V62.449H182.186V81.5924H177.952ZM180.069 59.7757C179.268 59.7757 178.592 59.5006 178.042 58.9504C177.504 58.4002 177.235 57.7304 177.235 56.941C177.235 56.1515 177.504 55.4817 178.042 54.9315C178.592 54.3813 179.268 54.1062 180.069 54.1062C180.859 54.1062 181.529 54.3813 182.079 54.9315C182.629 55.4817 182.904 56.1515 182.904 56.941C182.904 57.7304 182.629 58.4002 182.079 58.9504C181.529 59.5006 180.859 59.7757 180.069 59.7757ZM186.672 81.5924V62.449H190.816V64.871H191.606L190.134 66.5037C190.422 65.5468 190.888 64.7514 191.534 64.1175C192.192 63.4716 192.963 62.9872 193.848 62.6643C194.745 62.3293 195.708 62.1619 196.737 62.1619C198.196 62.1619 199.404 62.4908 200.361 63.1487C201.33 63.8065 202.054 64.6677 202.532 65.7322C203.01 66.7967 203.25 67.951 203.25 69.1949V81.5924H199.015V70.1099C199.015 68.6985 198.669 67.634 197.975 66.9164C197.281 66.1987 196.336 65.8399 195.14 65.8399C194.351 65.8399 193.633 66.0073 192.987 66.3422C192.341 66.6652 191.833 67.1436 191.462 67.7775C191.091 68.4115 190.906 69.1949 190.906 70.1279V81.5924H186.672ZM207.466 81.5924V53.9627H211.7V64.4584H212.561L210.929 66.109C211.192 65.2598 211.64 64.5421 212.274 63.956C212.92 63.358 213.68 62.9095 214.553 62.6104C215.438 62.3114 216.377 62.1619 217.369 62.1619C218.912 62.1619 220.174 62.4968 221.155 63.1666C222.148 63.8245 222.877 64.6856 223.344 65.7502C223.81 66.8147 224.044 67.9629 224.044 69.1949V81.5924H219.809V70.092C219.809 68.6806 219.451 67.6221 218.733 66.9164C218.027 66.1987 217.088 65.8399 215.916 65.8399C215.127 65.8399 214.415 66.0013 213.781 66.3243C213.159 66.6472 212.657 67.1257 212.274 67.7596C211.891 68.3935 211.7 69.183 211.7 70.1279V81.5924H207.466ZM237.643 89.1278V62.449H241.752V64.6737H242.308L241.375 66.5755V77.1609L242.577 79.3497H241.877V89.1278H237.643ZM247.672 81.8795C246.07 81.8795 244.634 81.4429 243.367 80.5697C242.111 79.6966 241.118 78.5065 240.388 76.9994C239.659 75.4923 239.288 73.7999 239.276 71.922C239.288 70.0441 239.647 68.3696 240.352 66.8984C241.07 65.4153 242.051 64.2491 243.295 63.3998C244.551 62.5506 245.986 62.126 247.601 62.126C249.096 62.126 250.501 62.5147 251.817 63.2922C253.133 64.0697 254.191 65.194 254.993 66.6652C255.806 68.1364 256.201 69.9245 256.177 72.0297C256.189 73.5965 255.961 74.996 255.495 76.2279C255.028 77.4479 254.394 78.4766 253.593 79.3139C252.792 80.1511 251.877 80.791 250.848 81.2336C249.831 81.6642 248.773 81.8795 247.672 81.8795ZM246.793 78.2194C247.798 78.2194 248.695 77.9503 249.485 77.4121C250.274 76.8738 250.884 76.1382 251.315 75.2053C251.757 74.2604 251.972 73.1839 251.96 71.9758C251.972 70.7319 251.757 69.6494 251.315 68.7284C250.872 67.7955 250.25 67.0719 249.449 66.5575C248.659 66.0432 247.756 65.792 246.74 65.804C245.783 65.792 244.915 66.0372 244.138 66.5396C243.373 67.03 242.757 67.7357 242.29 68.6567C241.836 69.5777 241.608 70.684 241.608 71.9758C241.608 73.1839 241.83 74.2604 242.272 75.2053C242.727 76.1382 243.343 76.8738 244.12 77.4121C244.898 77.9503 245.789 78.2194 246.793 78.2194ZM259.532 81.5924V53.9627H263.766V64.4584H264.627L262.994 66.109C263.258 65.2598 263.706 64.5421 264.34 63.956C264.986 63.358 265.745 62.9095 266.619 62.6104C267.504 62.3114 268.443 62.1619 269.435 62.1619C270.978 62.1619 272.24 62.4968 273.221 63.1666C274.214 63.8245 274.943 64.6856 275.41 65.7502C275.876 66.8147 276.11 67.9629 276.11 69.1949V81.5924H271.875V70.092C271.875 68.6806 271.517 67.6221 270.799 66.9164C270.093 66.1987 269.154 65.8399 267.982 65.8399C267.193 65.8399 266.481 66.0013 265.847 66.3243C265.225 66.6472 264.723 67.1257 264.34 67.7596C263.957 68.3935 263.766 69.183 263.766 70.1279V81.5924H259.532ZM287.448 81.8795C286.073 81.8795 284.847 81.5864 283.771 81.0003C282.694 80.4143 281.845 79.565 281.223 78.4527C280.613 77.3283 280.308 75.9648 280.308 74.362V62.449H284.542V73.9314C284.542 75.3309 284.919 76.3834 285.672 77.0891C286.426 77.7948 287.335 78.1477 288.399 78.1477C289.225 78.1477 289.942 77.9682 290.552 77.6094C291.174 77.2386 291.659 76.7363 292.006 76.1023C292.364 75.4684 292.544 74.7448 292.544 73.9314V62.449H296.778V75.6C296.778 76.3655 296.88 76.9336 297.083 77.3044C297.286 77.6752 297.699 77.9802 298.321 78.2194L296.76 81.8795C295.648 81.4848 294.793 80.9824 294.194 80.3724C293.596 79.7504 293.297 79.0567 293.297 78.2912L294.643 79.2241H292.239L294.302 77.8965C293.692 78.9969 292.813 79.9358 291.665 80.7133C290.516 81.4907 289.111 81.8795 287.448 81.8795ZM289.135 89.4866C288.334 89.4866 287.658 89.2115 287.108 88.6613C286.569 88.1111 286.3 87.4413 286.3 86.6519C286.3 85.8625 286.569 85.1926 287.108 84.6424C287.658 84.0922 288.334 83.8171 289.135 83.8171C289.924 83.8171 290.594 84.0922 291.144 84.6424C291.695 85.1926 291.97 85.8625 291.97 86.6519C291.97 87.4413 291.695 88.1111 291.144 88.6613C290.594 89.2115 289.924 89.4866 289.135 89.4866ZM310.521 81.8077C309.146 81.8077 307.86 81.5565 306.664 81.0542C305.468 80.5518 304.415 79.8581 303.506 78.973C302.609 78.0759 301.903 77.0293 301.389 75.8332C300.887 74.6252 300.635 73.3214 300.635 71.922C300.635 70.5106 300.893 69.2129 301.407 68.0287C301.921 66.8326 302.627 65.798 303.524 64.9249C304.421 64.0398 305.456 63.358 306.628 62.8795C307.812 62.3892 309.068 62.144 310.396 62.144C311.496 62.144 312.566 62.3114 313.607 62.6463C314.648 62.9693 315.563 63.4118 316.352 63.974L314.773 67.4546C314.426 67.1317 314.02 66.8566 313.553 66.6293C313.087 66.402 312.59 66.2286 312.064 66.109C311.538 65.9774 311.017 65.9116 310.503 65.9116C309.403 65.9116 308.422 66.1688 307.561 66.6831C306.712 67.1974 306.036 67.9151 305.533 68.8361C305.043 69.7451 304.798 70.7857 304.798 71.9579C304.798 73.1061 305.043 74.1408 305.533 75.0617C306.024 75.9827 306.7 76.7124 307.561 77.2506C308.422 77.7769 309.409 78.04 310.521 78.04C311.406 78.04 312.238 77.8905 313.015 77.5915C313.804 77.2805 314.414 76.9217 314.845 76.515L316.406 80.0494C315.712 80.5398 314.857 80.9585 313.84 81.3053C312.824 81.6403 311.717 81.8077 310.521 81.8077ZM401.915 81.8795C399.881 81.8795 398.344 81.3053 397.304 80.1571C396.275 79.0088 395.761 77.5377 395.761 75.7435V56.5642H399.995V75.4385C399.995 76.3595 400.21 77.0353 400.641 77.4659C401.071 77.8965 401.61 78.1118 402.255 78.1118C402.542 78.1118 402.812 78.0759 403.063 78.0041C403.314 77.9204 403.541 77.8247 403.745 77.7171L405.198 81.1798C404.755 81.3951 404.259 81.5625 403.709 81.6821C403.158 81.8137 402.56 81.8795 401.915 81.8795ZM392.603 65.9834V62.449H404.588V65.9834H392.603ZM408.05 81.5924V53.9627H412.285V64.4584H413.146L411.513 66.109C411.776 65.2598 412.225 64.5421 412.859 63.956C413.505 63.358 414.264 62.9095 415.137 62.6104C416.022 62.3114 416.961 62.1619 417.954 62.1619C419.497 62.1619 420.759 62.4968 421.74 63.1666C422.732 63.8245 423.462 64.6856 423.929 65.7502C424.395 66.8147 424.628 67.9629 424.628 69.1949V81.5924H420.394V70.092C420.394 68.6806 420.035 67.6221 419.318 66.9164C418.612 66.1987 417.673 65.8399 416.501 65.8399C415.711 65.8399 415 66.0013 414.366 66.3243C413.744 66.6472 413.241 67.1257 412.859 67.7596C412.476 68.3935 412.285 69.183 412.285 70.1279V81.5924H408.05ZM437.564 81.8795C435.626 81.8795 433.934 81.4668 432.487 80.6415C431.039 79.8042 429.909 78.644 429.096 77.1609C428.282 75.6777 427.876 73.9673 427.876 72.0297C427.876 70.0202 428.282 68.2799 429.096 66.8087C429.909 65.3375 431.003 64.2012 432.379 63.3998C433.754 62.5865 435.279 62.1798 436.954 62.1798C438.557 62.1798 440.004 62.5506 441.296 63.2922C442.6 64.0338 443.634 65.0684 444.4 66.3961C445.165 67.7118 445.548 69.2547 445.548 71.0249C445.548 71.4794 445.524 71.9041 445.476 72.2988C445.428 72.6935 445.369 73.0882 445.297 73.4829H431.051V70.4867H441.583C441.583 69.5777 441.392 68.7703 441.009 68.0646C440.626 67.347 440.088 66.7848 439.394 66.3781C438.7 65.9595 437.887 65.7502 436.954 65.7502C435.901 65.7502 434.98 66.0133 434.191 66.5396C433.414 67.0539 432.804 67.7775 432.361 68.7105C431.93 69.6315 431.715 70.708 431.715 71.9399C431.715 73.1958 431.948 74.3022 432.415 75.2591C432.893 76.216 433.563 76.9635 434.424 77.5018C435.297 78.04 436.332 78.3091 437.528 78.3091C438.21 78.3091 438.856 78.2254 439.466 78.058C440.076 77.8905 440.632 77.6752 441.134 77.4121C441.637 77.137 442.067 76.8499 442.426 76.5509L443.879 80.0315C443.126 80.5697 442.199 81.0123 441.098 81.3592C440.01 81.706 438.832 81.8795 437.564 81.8795ZM442.354 55.8106L440.417 54.3933L445.925 48.8314L448.042 51.5406L442.354 55.8106ZM432.558 60.4395L430.567 58.3942L436.559 54.1421H437.51L443.485 58.3942L441.547 60.4395L437.08 57.0845H436.972L432.558 60.4395ZM466.378 89.4148C464.895 89.4148 463.507 89.2235 462.215 88.8407C460.936 88.458 459.919 88.0513 459.165 87.6207L460.655 84.1042C461.253 84.5228 462.042 84.8996 463.023 85.2345C464.004 85.5694 465.002 85.7369 466.019 85.7369C466.88 85.7369 467.759 85.5814 468.656 85.2704C469.565 84.9594 470.331 84.457 470.953 83.7633C471.575 83.0696 471.886 82.1486 471.886 81.0003V78.8294H471.312L472.047 77.0532V66.4858L470.953 64.566H471.922V62.449H475.941V80.7671C475.941 82.2503 475.683 83.5301 475.169 84.6066C474.667 85.695 473.973 86.5921 473.088 87.2978C472.203 88.0154 471.18 88.5477 470.02 88.8945C468.872 89.2414 467.658 89.4148 466.378 89.4148ZM465.983 81.4848C464.883 81.4848 463.824 81.2695 462.808 80.8389C461.791 80.4083 460.876 79.7803 460.063 78.955C459.249 78.1297 458.603 77.119 458.125 75.9229C457.658 74.7149 457.425 73.3394 457.425 71.7964C457.425 69.7391 457.838 67.9928 458.663 66.5575C459.5 65.1222 460.583 64.0338 461.91 63.2922C463.238 62.5387 464.65 62.1619 466.145 62.1619C467.771 62.1619 469.201 62.5745 470.433 63.3998C471.677 64.2252 472.645 65.3555 473.339 66.7908C474.033 68.2141 474.38 69.8229 474.38 71.617C474.38 73.459 474.015 75.1275 473.285 76.6226C472.556 78.1058 471.557 79.2899 470.289 80.175C469.033 81.0482 467.598 81.4848 465.983 81.4848ZM466.862 77.8247C467.855 77.8247 468.74 77.5676 469.518 77.0532C470.295 76.527 470.905 75.8033 471.348 74.8823C471.79 73.9613 472.011 72.9028 472.011 71.7067C472.011 70.4987 471.79 69.4521 471.348 68.567C470.905 67.6819 470.295 67.0001 469.518 66.5216C468.752 66.0313 467.873 65.7861 466.88 65.7861C465.864 65.7861 464.961 66.0372 464.171 66.5396C463.382 67.03 462.766 67.7237 462.323 68.6208C461.881 69.5059 461.659 70.5405 461.659 71.7246C461.659 72.9088 461.881 73.9613 462.323 74.8823C462.766 75.7914 463.376 76.509 464.153 77.0353C464.943 77.5616 465.846 77.8247 466.862 77.8247ZM480.408 81.5924V62.449H484.642V81.5924H480.408ZM482.525 59.7757C481.724 59.7757 481.048 59.5006 480.498 58.9504C479.96 58.4002 479.69 57.7304 479.69 56.941C479.69 56.1515 479.96 55.4817 480.498 54.9315C481.048 54.3813 481.724 54.1062 482.525 54.1062C483.315 54.1062 483.984 54.3813 484.535 54.9315C485.085 55.4817 485.36 56.1515 485.36 56.941C485.36 57.7304 485.085 58.4002 484.535 58.9504C483.984 59.5006 483.315 59.7757 482.525 59.7757ZM497.739 81.8795C495.921 81.8795 494.289 81.4608 492.841 80.6236C491.394 79.7743 490.246 78.6082 489.397 77.125C488.547 75.6299 488.123 73.9075 488.123 71.9579C488.123 70.0202 488.547 68.3158 489.397 66.8446C490.246 65.3734 491.394 64.2252 492.841 63.3998C494.289 62.5745 495.921 62.1619 497.739 62.1619C499.581 62.1619 501.226 62.5745 502.673 63.3998C504.121 64.2252 505.263 65.3734 506.1 66.8446C506.937 68.3158 507.356 70.0202 507.356 71.9579C507.356 73.9075 506.931 75.6299 506.082 77.125C505.245 78.6082 504.097 79.7743 502.637 80.6236C501.19 81.4608 499.557 81.8795 497.739 81.8795ZM497.739 78.1297C498.792 78.1297 499.731 77.8726 500.556 77.3582C501.382 76.8439 502.027 76.1263 502.494 75.2053C502.972 74.2723 503.212 73.1899 503.212 71.9579C503.212 70.7498 502.978 69.6913 502.512 68.7823C502.045 67.8732 501.399 67.1675 500.574 66.6652C499.761 66.1628 498.822 65.9116 497.757 65.9116C496.705 65.9116 495.766 66.1628 494.941 66.6652C494.115 67.1675 493.463 67.8732 492.985 68.7823C492.518 69.6913 492.285 70.7498 492.285 71.9579C492.285 73.1899 492.518 74.2723 492.985 75.2053C493.463 76.1263 494.109 76.8439 494.923 77.3582C495.748 77.8726 496.687 78.1297 497.739 78.1297ZM502.566 66.1628L502.494 63.364C503.786 63.352 504.743 63.047 505.364 62.449C505.998 61.8389 506.315 60.9479 506.315 59.7757C506.315 59.4767 506.303 59.1776 506.279 58.8786C506.256 58.5676 506.214 58.2686 506.154 57.9816L509.294 57.4074C509.425 57.7902 509.515 58.2387 509.563 58.753C509.611 59.2554 509.635 59.6561 509.635 59.9551C509.635 61.2708 509.294 62.4071 508.612 63.364C507.93 64.3089 507.051 65.0265 505.974 65.5169C504.898 66.0073 503.762 66.2226 502.566 66.1628ZM497.704 60.6548L495.82 59.0222L500.664 52.5274L503.409 55.0571L497.704 60.6548ZM510.872 81.5924V62.449H515.107V81.5924H510.872ZM512.99 59.7757C512.188 59.7757 511.512 59.5006 510.962 58.9504C510.424 58.4002 510.155 57.7304 510.155 56.941C510.155 56.1515 510.424 55.4817 510.962 54.9315C511.512 54.3813 512.188 54.1062 512.99 54.1062C513.779 54.1062 514.449 54.3813 514.999 54.9315C515.549 55.4817 515.824 56.1515 515.824 56.941C515.824 57.7304 515.549 58.4002 514.999 58.9504C514.449 59.5006 513.779 59.7757 512.99 59.7757Z" fill="#2922FF"/>
<path d="M238.237 37.3983V9.76859H242.472V20.2643H243.333L241.7 21.9149C241.963 21.0657 242.412 20.348 243.046 19.7619C243.692 19.1639 244.451 18.7154 245.324 18.4163C246.209 18.1173 247.148 17.9678 248.141 17.9678C249.684 17.9678 250.946 18.3027 251.927 18.9725C252.92 19.6304 253.649 20.4916 254.116 21.5561C254.582 22.6206 254.815 23.7688 254.815 25.0008V37.3983H250.581V25.8979C250.581 24.4865 250.222 23.428 249.505 22.7223C248.799 22.0046 247.86 21.6458 246.688 21.6458C245.898 21.6458 245.187 21.8073 244.553 22.1302C243.931 22.4531 243.429 22.9316 243.046 23.5655C242.663 24.1994 242.472 24.9889 242.472 25.9338V37.3983H238.237ZM264.593 37.6854C263.349 37.6854 262.243 37.4402 261.274 36.9498C260.305 36.4474 259.546 35.7656 258.996 34.9045C258.445 34.0313 258.17 33.0266 258.17 31.8903C258.17 30.6942 258.493 29.6596 259.139 28.7865C259.785 27.9013 260.742 27.2196 262.01 26.7411C263.278 26.2507 264.827 26.0055 266.657 26.0055H270.801V28.9659H266.764C265.329 28.9659 264.217 29.1991 263.427 29.6656C262.638 30.1321 262.243 30.8258 262.243 31.7468C262.243 32.297 262.381 32.7635 262.656 33.1462C262.931 33.529 263.308 33.822 263.786 34.0253C264.276 34.2287 264.821 34.3303 265.419 34.3303C266.041 34.3303 266.722 34.1928 267.464 33.9177C268.206 33.6426 268.845 33.218 269.384 32.6438C269.922 32.0697 270.191 31.3401 270.191 30.455V28.4814L269.958 27.4588V25.1085C269.958 24.7377 269.91 24.349 269.814 23.9423C269.731 23.5356 269.557 23.1588 269.294 22.812C269.043 22.4531 268.678 22.1661 268.2 21.9508C267.721 21.7235 267.099 21.6099 266.334 21.6099C265.724 21.6099 265.084 21.6817 264.414 21.8252C263.744 21.9568 263.098 22.1422 262.476 22.3814C261.866 22.6206 261.334 22.8897 260.88 23.1887L259.426 19.7619C259.976 19.451 260.64 19.1579 261.418 18.8828C262.207 18.6077 263.068 18.3864 264.001 18.219C264.934 18.0515 265.885 17.9678 266.854 17.9678C268.433 17.9678 269.695 18.1891 270.64 18.6316C271.596 19.0742 272.314 19.6543 272.793 20.3719C273.271 21.0776 273.588 21.8431 273.743 22.6684C273.911 23.4818 273.995 24.2712 273.995 25.0367V31.2982C273.995 32.0518 274.072 32.6319 274.228 33.0386C274.395 33.4452 274.7 33.7263 275.143 33.8818L275.538 34.0253L273.995 37.6854L273.438 37.4701C272.529 37.1113 271.836 36.6627 271.357 36.1245C270.879 35.5862 270.622 35.048 270.586 34.5098L271.393 34.9583H269.958L270.927 34.4559C270.496 35.3291 269.707 36.0886 268.558 36.7345C267.41 37.3684 266.088 37.6854 264.593 37.6854ZM266.854 16.4607L261.131 10.8989L263.965 8.31534L268.738 14.8281L266.854 16.4607ZM278.803 37.3983V18.2549H282.947V20.6769H283.737L282.266 22.3096C282.553 21.3527 283.019 20.5573 283.665 19.9234C284.323 19.2775 285.094 18.7931 285.979 18.4702C286.877 18.1353 287.839 17.9678 288.868 17.9678C290.327 17.9678 291.535 18.2967 292.492 18.9546C293.461 19.6124 294.185 20.4736 294.663 21.5381C295.142 22.6027 295.381 23.7569 295.381 25.0008V37.3983H291.147V25.9158C291.147 24.5044 290.8 23.4399 290.106 22.7223C289.412 22.0046 288.467 21.6458 287.271 21.6458C286.482 21.6458 285.764 21.8132 285.118 22.1481C284.472 22.4711 283.964 22.9495 283.593 23.5835C283.223 24.2174 283.037 25.0008 283.037 25.9338V37.3983H278.803ZM299.597 37.3983V9.76859H303.831V20.2643H304.692L303.06 21.9149C303.323 21.0657 303.771 20.348 304.405 19.7619C305.051 19.1639 305.811 18.7154 306.684 18.4163C307.569 18.1173 308.508 17.9678 309.501 17.9678C311.044 17.9678 312.305 18.3027 313.286 18.9725C314.279 19.6304 315.009 20.4916 315.475 21.5561C315.942 22.6206 316.175 23.7688 316.175 25.0008V37.3983H311.941V25.8979C311.941 24.4865 311.582 23.428 310.864 22.7223C310.158 22.0046 309.22 21.6458 308.047 21.6458C307.258 21.6458 306.546 21.8073 305.912 22.1302C305.29 22.4531 304.788 22.9316 304.405 23.5655C304.023 24.1994 303.831 24.9889 303.831 25.9338V37.3983H299.597ZM337.669 37.6854C335.635 37.6854 334.098 37.1113 333.058 35.963C332.029 34.8148 331.515 33.3436 331.515 31.5494V12.3701H335.749V31.2444C335.749 32.1654 335.964 32.8412 336.395 33.2718C336.825 33.7024 337.364 33.9177 338.009 33.9177C338.297 33.9177 338.566 33.8818 338.817 33.81C339.068 33.7263 339.295 33.6306 339.499 33.523L340.952 36.9857C340.509 37.201 340.013 37.3684 339.463 37.488C338.913 37.6196 338.314 37.6854 337.669 37.6854ZM328.357 21.7893V18.2549H340.342V21.7893H328.357ZM343.805 37.3983V18.2549H347.967V21.0717H348.505L347.339 22.3276C347.662 21.6338 348.116 20.9521 348.703 20.2822C349.289 19.6124 350.012 19.0622 350.873 18.6316C351.735 18.1891 352.727 17.9678 353.852 17.9678C354.306 17.9678 354.719 18.0037 355.09 18.0754C355.472 18.1353 355.742 18.207 355.897 18.2907L354.193 22.3455C354.097 22.2977 353.912 22.2498 353.636 22.202C353.373 22.1541 353.068 22.1302 352.721 22.1302C352.219 22.1302 351.693 22.2319 351.143 22.4352C350.604 22.6385 350.096 22.9435 349.618 23.3502C349.151 23.7569 348.768 24.2652 348.469 24.8752C348.182 25.4733 348.039 26.167 348.039 26.9564V37.3983H343.805ZM358.176 37.3983V18.2549H362.41V37.3983H358.176ZM360.364 16.4607L354.641 10.8989L357.476 8.31534L362.248 14.8281L360.364 16.4607ZM366.895 37.3983V18.2549H371.04V20.6769H371.829L370.358 22.3096C370.645 21.3527 371.111 20.5573 371.757 19.9234C372.415 19.2775 373.187 18.7931 374.072 18.4702C374.969 18.1353 375.932 17.9678 376.96 17.9678C378.419 17.9678 379.628 18.2967 380.584 18.9546C381.553 19.6124 382.277 20.4736 382.755 21.5381C383.234 22.6027 383.473 23.7569 383.473 25.0008V37.3983H379.239V25.9158C379.239 24.5044 378.892 23.4399 378.198 22.7223C377.504 22.0046 376.56 21.6458 375.363 21.6458C374.574 21.6458 373.856 21.8132 373.21 22.1481C372.565 22.4711 372.056 22.9495 371.685 23.5835C371.315 24.2174 371.129 25.0008 371.129 25.9338V37.3983H366.895ZM387.689 37.3983V9.76859H391.923V20.2643H392.785L391.152 21.9149C391.415 21.0657 391.864 20.348 392.497 19.7619C393.143 19.1639 393.903 18.7154 394.776 18.4163C395.661 18.1173 396.6 17.9678 397.593 17.9678C399.136 17.9678 400.398 18.3027 401.378 18.9725C402.371 19.6304 403.101 20.4916 403.567 21.5561C404.034 22.6206 404.267 23.7688 404.267 25.0008V37.3983H400.033V25.8979C400.033 24.4865 399.674 23.428 398.956 22.7223C398.251 22.0046 397.312 21.6458 396.14 21.6458C395.35 21.6458 394.638 21.8073 394.005 22.1302C393.383 22.4531 392.88 22.9316 392.497 23.5655C392.115 24.1994 391.923 24.9889 391.923 25.9338V37.3983H387.689Z" fill="#2922FF"/>
<path d="M203.425 37.988H180.627C178.856 37.988 177.837 35.9806 178.878 34.5561L197.226 9.41104C197.632 8.85013 198.281 8.52539 198.975 8.52539H221.773C223.544 8.52539 224.563 10.5329 223.522 11.9573L205.174 37.1024C204.769 37.6633 204.119 37.988 203.425 37.988Z" fill="#FF4222"/>
<path d="M359.246 82.5067H336.448C334.677 82.5067 333.658 80.4992 334.699 79.0748L353.047 53.9297C353.452 53.3688 354.102 53.0441 354.796 53.0441H377.594C379.365 53.0441 380.384 55.0515 379.343 56.476L360.995 81.621C360.589 82.182 359.94 82.5067 359.246 82.5067Z" fill="#FF4222"/>
</svg>
