<svg width="1673" height="594" viewBox="0 0 1673 594" fill="none" xmlns="http://www.w3.org/2000/svg">
<path opacity="0.25" d="M385.43 464H90.8878C82.0002 464 76.8639 453.909 82.1115 446.73L171.33 324.459C173.373 321.658 176.639 320 180.107 320H474.648C483.536 320 488.672 330.091 483.425 337.27L394.206 459.541C392.163 462.342 388.898 464 385.43 464Z" fill="#2922FF"/>
<path d="M2323.87 593.969H312.764C281.933 593.969 264.135 558.96 282.311 534.053L602.351 95.4767C609.448 85.7534 620.759 80 632.804 80H2643.91C2674.74 80 2692.54 115.009 2674.36 139.916L2354.34 578.492C2347.24 588.216 2335.93 593.969 2323.88 593.969H2323.87Z" fill="#2922FF"/>
<path opacity="0.25" d="M1662.41 134.966H1407.2C1398.87 134.966 1394.06 125.508 1398.97 118.777L1482.59 4.18404C1484.51 1.55389 1487.57 0 1490.82 0H1746.03C1754.36 0 1759.17 9.45708 1754.26 16.1885L1670.64 130.781C1668.72 133.412 1665.66 134.966 1662.41 134.966Z" fill="#2922FF"/>
<path opacity="0.25" d="M302.549 368.448H7.29272C1.34031 368.448 -2.09745 361.687 1.41034 356.881L61.1764 274.986C62.5452 273.108 64.7288 272 67.0588 272H362.315C368.267 272 371.705 278.761 368.197 283.567L308.437 365.463C307.069 367.341 304.885 368.448 302.555 368.448H302.549Z" fill="#2922FF"/>
</svg>
