<svg width="405" height="64" viewBox="0 0 405 64" fill="none" xmlns="http://www.w3.org/2000/svg">
<path d="M0.5 63.8858L254.506 64C256.414 64 258.207 63.0931 259.329 61.548L297.325 9.48546C300.207 5.54214 297.385 0 292.502 0L0.365645 0L0.5 63.8791V63.8858Z" fill="#F6F6F5"/>
<path d="M359.887 64H310.707C306.757 64 304.479 59.5125 306.804 56.3216L346.452 1.98174C347.359 0.738952 348.81 0 350.355 0H399.536C403.486 0 405.763 4.48746 403.439 7.67839L363.784 62.0183C362.877 63.261 361.426 64 359.881 64H359.887Z" fill="#F6F6F5"/>
<path d="M55.0725 42L62.8425 21.3H68.3325L76.1325 42H71.0325L69.7725 38.37H61.3425L60.0525 42H55.0725ZM62.8425 34.08H68.2425L65.5425 26.43L62.8425 34.08Z" fill="#2922FF"/>
<path d="M78.0598 42V21.3H88.3198C91.4398 21.3 93.8398 23.52 93.8398 26.61C93.8398 28.5 92.9098 30.18 91.5898 30.99C93.5398 31.74 94.8898 33.93 94.8898 36.39C94.8898 39.66 92.3998 42 89.0398 42H78.0598ZM87.1498 25.5H82.5598V29.4H87.1498C88.2298 29.4 89.0698 28.56 89.0698 27.45C89.0698 26.31 88.2598 25.5 87.1498 25.5ZM87.8998 33.33H82.5598V37.8H87.8998C89.1598 37.8 90.1198 36.84 90.1198 35.58C90.1198 34.32 89.1598 33.33 87.8998 33.33Z" fill="#2922FF"/>
<path d="M107.384 42.36C101.144 42.36 96.4343 37.74 96.4343 31.65C96.4343 25.56 101.144 20.94 107.384 20.94C113.624 20.94 118.334 25.56 118.334 31.65C118.334 37.74 113.624 42.36 107.384 42.36ZM107.384 37.89C110.894 37.89 113.564 35.22 113.564 31.65C113.564 28.08 110.894 25.41 107.384 25.41C103.874 25.41 101.204 28.08 101.204 31.65C101.204 35.22 103.874 37.89 107.384 37.89Z" fill="#2922FF"/>
<path d="M129.553 42.36C124.633 42.36 120.913 38.76 120.913 33.96V21.3H125.563V33.9C125.563 36.18 127.243 37.89 129.553 37.89C131.833 37.89 133.543 36.18 133.543 33.9V21.3H138.193V33.96C138.193 38.76 134.443 42.36 129.553 42.36Z" fill="#2922FF"/>
<path d="M145.951 42V25.68H140.521V21.3H156.031V25.68H150.601V42H145.951Z" fill="#2922FF"/>
<path d="M173.644 42.36C168.724 42.36 165.004 38.76 165.004 33.96V21.3H169.654V33.9C169.654 36.18 171.334 37.89 173.644 37.89C175.924 37.89 177.634 36.18 177.634 33.9V21.3H182.284V33.96C182.284 38.76 178.534 42.36 173.644 42.36Z" fill="#2922FF"/>
<path d="M192.683 42.36C188.153 42.36 184.793 39.48 184.793 35.79H189.563C189.563 37.14 190.973 38.22 192.743 38.22C194.333 38.22 195.653 37.38 195.653 36.21C195.653 32.97 185.123 34.38 185.123 27.36C185.123 23.46 188.393 20.94 192.563 20.94C196.853 20.94 200.123 23.64 200.123 27.24H195.353C195.353 26.01 194.123 25.08 192.533 25.08C191.093 25.08 189.893 25.8 189.893 26.97C189.893 30.24 200.423 28.47 200.423 35.67C200.423 39.72 197.033 42.36 192.683 42.36Z" fill="#2922FF"/>
</svg>
