<svg width="471" height="64" viewBox="0 0 471 64" fill="none" xmlns="http://www.w3.org/2000/svg">
<path d="M0.134355 63.8858L320.142 64C322.05 64 323.843 63.0931 324.965 61.548L362.961 9.48546C365.843 5.54214 363.021 0 358.137 0H0L0.134355 63.8791V63.8858Z" fill="#2922FF"/>
<path d="M425.534 64H376.353C372.403 64 370.126 59.5125 372.45 56.3216L412.098 1.98174C413.005 0.738952 414.456 0 416.001 0H465.182C469.132 0 471.409 4.48746 469.085 7.67839L429.43 62.0183C428.523 63.261 427.072 64 425.527 64H425.534Z" fill="#FF4222"/>
<path d="M66.434 43.01L58.334 22.31H63.524L68.894 36.8L74.234 22.31H79.334L71.234 43.01H66.434Z" fill="#F5F5F6"/>
<path d="M93.8228 18.08L90.0128 14H94.5428L97.4528 18.08H93.8228ZM83.0228 20.75L86.2028 17.03H91.0028L94.2128 20.75H90.1028L88.6028 19.25L87.1028 20.75H83.0228ZM81.4628 43.01V22.31H95.2028V26.69H86.1128V30.41H94.2128V34.79H86.1128V38.63H95.3528V43.01H81.4628Z" fill="#F5F5F6"/>
<path d="M114.889 43.37C108.649 43.37 103.939 38.75 103.939 32.66C103.939 26.57 108.649 21.95 114.889 21.95C120.229 21.95 124.489 25.37 125.419 30.2H120.469C119.689 27.95 117.529 26.42 114.889 26.42C111.379 26.42 108.709 29.09 108.709 32.66C108.709 36.23 111.379 38.9 114.889 38.9C117.529 38.9 119.689 37.37 120.469 35.12H125.419C124.489 39.95 120.229 43.37 114.889 43.37Z" fill="#F5F5F6"/>
<path d="M128.221 43.01V22.31H132.871V30.41H141.181V22.31H145.831V43.01H141.181V34.79H132.871V43.01H128.221Z" fill="#F5F5F6"/>
<path d="M155.543 20.75L158.543 16.31H164.033L160.133 20.75H155.543ZM158.063 43.37C153.143 43.37 149.423 39.77 149.423 34.97V22.31H154.073V34.91C154.073 37.19 155.753 38.9 158.063 38.9C160.343 38.9 162.053 37.19 162.053 34.91V22.31H166.703V34.97C166.703 39.77 162.953 43.37 158.063 43.37Z" fill="#F5F5F6"/>
<path d="M170.262 43.01V22.31H174.942L183.552 34.97V22.31H188.202V43.01H183.492L174.912 30.35V43.01H170.262Z" fill="#F5F5F6"/>
<path d="M202.047 43.37C195.807 43.37 191.097 38.75 191.097 32.66C191.097 26.57 195.807 21.95 202.047 21.95C206.997 21.95 211.107 24.86 212.217 28.94H207.027C206.007 27.41 204.207 26.42 202.047 26.42C198.537 26.42 195.867 29.09 195.867 32.66C195.867 36.23 198.537 38.9 202.047 38.9C204.657 38.9 206.697 37.49 207.507 35.36H202.677V31.16H212.577V43.01H208.647V40.31C207.237 42.32 204.987 43.37 202.047 43.37Z" fill="#F5F5F6"/>
<path d="M226.727 43.01V26.69H221.297V22.31H236.807V26.69H231.377V43.01H226.727Z" fill="#F5F5F6"/>
<path d="M243.869 20.75L246.839 16.31H252.119L255.089 20.75H250.979L249.479 18.68L247.979 20.75H243.869ZM249.479 43.37C243.239 43.37 238.529 38.75 238.529 32.66C238.529 26.57 243.239 21.95 249.479 21.95C255.719 21.95 260.429 26.57 260.429 32.66C260.429 38.75 255.719 43.37 249.479 43.37ZM249.479 38.9C252.989 38.9 255.659 36.23 255.659 32.66C255.659 29.09 252.989 26.42 249.479 26.42C245.969 26.42 243.299 29.09 243.299 32.66C243.299 36.23 245.969 38.9 249.479 38.9Z" fill="#F5F5F6"/>
<path d="M263.367 43.01V22.31H268.017V43.01H263.367Z" fill="#F5F5F6"/>
</svg>
