<?xml version="1.0" encoding="UTF-8"?>
<svg id="Layer_2" data-name="Layer 2" xmlns="http://www.w3.org/2000/svg" viewBox="0 0 1920.23 439.24">
  <defs>
    <style>
      .cls-1 {
        fill: #303030;
        stroke-width: 0px;
      }
    </style>
  </defs>
  <g id="Layer_1-2" data-name="Layer 1">
    <g>
      <path class="cls-1" d="M1920.23,93.45v345.79H0c0-199.01,0,120.05,0-78.96,5.2,1.57,10.1-.31,15.41-1.48,1.24,2.72,3.73,2.11,6.1,2.06,3.73-.08,7.47-.15,11.2-.12,4.3.03,8.6.24,12.9.25,3.05,0,6.1-.18,9.15-.31,7.21-.3,13.82-.19,20.96-1.09,3.94-.5,7.68-1.9,11.62-.2.58.25,1.38.08,2.07,0,6.09-.74,12.15-.97,18.27-.06,2.57.39,5.29.21,7.9-.08,4.64-.51,5.87-2.22,5.61-6.89-.16-2.91-.26-5.83-.12-8.73.06-1.3.79-2.57,1.21-3.86.38.07.77.14,1.15.21.08,2.01.26,4.01.21,6.02-.06,2.67.15,5.21,1.44,7.66,1.83,3.45,2.22,3.63,6.29,1.53.28-5.23.54-10.62.89-16.01.12-1.93.6-3.84.65-5.77.06-2.17.18-4.44-.37-6.49-1.35-5.07-1.52-10.07-.5-15.21.57-2.83,1.04-5.73,1.06-8.61.05-9.58-.15-19.16-.2-28.74-.01-2.77.38-5.57-1.81-7.85-.35-.36-.52-1.02-.55-1.55-.33-5.63-.62-11.25-.9-16.58.85.7,1.56,1.78,2.37,1.86,3.86.38,7.75.75,11.62.63,10.94-.32,21.87-.93,32.81-1.34,3.59-.13,7.19-.06,10.78,0,2.32.04,4.65.32,6.97.34,2.77.02,5.55-.27,8.32-.19,4.54.12,9.08.63,13.62.6,11.22-.06,22.42-.52,33.59-1.6,1.78-.17,3.59-.93,5.3-.73,2.42.29,4.55,0,6.79-1.95.11,1.74.24,2.8.23,3.87-.19,17.36-.42,34.73-.6,52.09-.13,11.78-.23,23.57-.3,35.35,0,.98.28,1.97.46,3.17,2.82-1.98,6.08-2.77,6.36-5.99,2.45.5,4.77,1.59,6.84,1.22,1.9-.34,3.07-.21,4.26,1.71.31-1.06.52-1.55.59-2.06.34-2.62.77-5.09,2.93-7.07,1.04-.95,1.41-2.64,2.06-4,2.21-4.7,4.97-9.23,4.72-14.73,2.19-2.93,1.87-6.59,2.84-9.87.24-.8.31-1.66.67-2.39.27-.55.8-1.07,1.34-1.39,3.75-2.23,6.71-5.01,7.57-9.56.23-1.23.89-2.38,1.37-3.61,3.9,1.11,4.5,4.88,6.99,6.63,1.22-1.96,2.84-3.69,3.42-5.71.63-2.2.3-4.68.4-7.03.1-2.36.16-4.72.33-7.08.07-.98.38-1.95.58-2.92,1.47,6.65-.29,13.34,1.06,20.73,2.52-4.36,4.01-8.12,4.16-12.41.08-2.37.07-4.88,2.24-7.5.59,1.72,1.25,2.82,1.31,3.96.29,5.12.48,10.24.56,15.37.09,5.53-.02,11.07.05,16.6.01.96.16,1.71,1.61,2.33,2.73,1.17,5.06,3.28,7.62,5.04,3.83-.42,2.27-4.45,4.21-6.63.82,1.97,1.69,3.69,2.25,5.5.45,1.44,1.2,2.09,2.68,2.01,3.9-.21,5.62,2.3,6.94,5.45.44,1.05,1.13,2.3,2.06,2.79,2.79,1.47,4.3,3.79,5.4,6.58.44,1.13.98,2.52,1.9,3.1,4.38,2.78,6.57,6.83,7.65,11.72.75,3.38.82,3.36,4.64,2.69.86,1.92,1.73,3.88,2.99,6.71,1.73-4.49,2.87-8.12,3.16-11.98.38-5.12.67-10.25,1.08-15.37.07-.89.45-1.84.94-2.6.7-1.09,1.53-2.14,2.49-3,.87-.77,2.08-1.86,2.97-1.72.91.15,1.73,1.55,2.35,2.54.33.52.21,1.35.2,2.04-.15,13.03-.27,26.06-.51,39.08-.1,5.69-.48,11.37-.69,17.05-.04,1.21.12,2.42.19,3.5,1.27.43,2.21.75,3.22,1.09.28-1.5.71-2.99.81-4.5.31-4.73.78-9.37,4.38-12.75,1.55.47,3.07.92,4.58,1.37.23,1.79.46,3.53.68,5.27l.81-.07c.33-1.36.66-2.73.99-4.09l.75-.1c.61,1.21,1.22,2.43,2.13,4.23.47-1.52.84-2.5,1.05-3.5.35-1.62.08-3.66.97-4.83,2.51-3.3,3.84-7,4.94-10.89.2-.72.78-1.69,1.4-1.88,2.16-.69,2.18-2.54,2.17-4.07-.03-4.78,1.28-9.17,3.62-14.17.86,1.47,1.55,2.64,2.26,3.85,2.6-3,.66-7.2,4.73-9.58.18,2.48.33,4.41.47,6.34.2-.01.39-.03.59-.04.34-3.91.69-7.81,1.08-12.33,3.06,2.77,6.03,4.6,7.19,8.25,3.42-4.33,5.11-8.13,4.38-11.51-1.16-5.31.25-10.21,1.45-15.74,1.02,5.39-1.18,10.56,1.55,15.94,3.79-5.52,2.64-11.89,5.91-16.86.62,1.43.91,2.82.88,4.21-.21,8.31-1.59,16.59-.65,24.93.06.54-.09,1.1-.12,1.66-.26,4.82-.52,9.64-.78,14.54,1.86.65,3.31,1.15,4.79,1.67.98,2.78,1.91,5.97,3.24,8.99.68,1.53,1.91,2.96,3.23,4,.79.62,2.21.22,2.39-1.23.15-1.23.07-2.5.09-3.75.02-1.44,0-2.9,1.75-4.26.2,1.56.37,2.61.47,3.66.34,3.46.88,3.86,4.38,3.93,1.14.02,2.37.44,3.37,1.01,2.69,1.53,5.1,3.37,5.45,6.85.04.42.64.78,1.19,1.4.66-.95,1.14-1.65,1.67-2.41,2.75,3.86,4.16,7.79,3.42,12.41-.35,2.17-.14,4.44-.13,6.66,0,.96.16,1.91.25,2.87.29,0,.57-.02.86-.03,1.31-6.32.45-12.9,1.83-19.78.36,2.89.64,5.25.93,7.6.28.02.55.03.83.05.58-.94,1.16-1.89,1.9-3.09,1.02,5.9,1.97,11.37,2.92,16.84.92-.74,2.52-1.5,3.56-2.34,1.7,2.32.31,5.58,3.36,6.81,1.99-2.31,2.11-5.19,2.46-7.85.76-5.77,1.16-11.6,1.74-17.39.05-.51.31-.99.55-1.74.89.49,1.56.86,1.81,1,1.93-.76,3.62-1.27,5.15-2.08,1.28-.68,2.83-1.47,3.42-2.64.92-1.8,1.24-3.95,1.63-5.99,1.65-8.76,1.98-17.62,1.91-26.51-.02-3.19.02-6.39.18-9.58.46-9.26,1.14-18.51,1.44-27.78.19-5.96-.3-11.94-.2-17.91.14-7.6.57-15.2.88-22.8.49.79.58,1.58.56,2.37-.28,12.32.56,24.65-.75,36.99-.7,6.58-.06,13.3.04,19.96.04,2.68.75,3.42,3.45,3.6,1.22.08,2.47-.33,3.7-.3,1.73.05,3.71-.16,5.14.58,3.07,1.58,6.27,2.11,9.6,2.36,5.79.43,11.58.92,17.37,1.37,1.24.1,2.51.25,3.74.15,1.08-.09,2.43-.18,3.13-.84,1.9-1.79,4.02-1.49,6.25-1.31,6.19.5,12.46-.57,18.6.93.65.16,1.4.06,2.07-.07,1.86-.36,2.85-1.36,2.78-3.45-.14-4.3-.09-8.61-.12-12.91-.01-1.64-.35-3.38,1.74-4.68.76.49,2.05.86,2.46,1.67,1.46,2.9,3.98,3,6.68,3.23,2.01.17,4,.8,5.96,1.37,2.14.63,4.12,1.06,6.45.3,4.26-1.4,8.54-2.91,13.25-1.87,2.45.54,3.81-1.19,3.83-4.17.02-2.63.13-5.27-.04-7.89-.27-4.1-.11-8.29-2.54-12.01-.62-.95-.77-2.45-.6-3.62.68-4.64,1.58-9.26,2.37-13.88.97-5.67,6.56-9.54,12.72-8.69.55,1.01,1.13,2.07,1.71,3.12,3.08-16.59,1.92-33.18,1.69-49.8.92,2.01,1.84,4.07,1.9,6.15.32,12.36.63,24.72.56,37.08-.03,6.07.54,11.92,2.89,17.51.59,1.4,1.72,2.58,2.78,4.11,1.61-1.94,2.78-3.36,4.29-5.19.65,3.24,1.16,5.81,3.44,7.4.43-.17.75-.2.93-.37,3.05-2.84,8-3.61,11.9-1.86,1.61.72,2.56.37,3.71-1.27,2.18-3.1,4.54-6.27,9.13-6.09,1.91.07,4.33.21,5.65-.8,2.82-2.16,5.41-.91,8.23-.69,5,.39,9.53-.98,12.66-5.21,1.17-1.58,2.19-1.92,4.17-1.53,5.79,1.13,11.49,1.09,16.92-1.97,2.3-1.3,5.05-1.81,8.15-2.88-.26,2.39-.44,3.97-.67,6.09,1.67-.09,3.16.01,4.57-.28,1.89-.39,3.72-1.09,5.59-1.64,2.61-.77,5.16-.77,7.71.39,2.92,1.33,5.9,2.51,9.2,3.89-.29,6.18-.61,12.8-.9,19.43-.47,10.67-.98,21.34-1.36,32.01-.41,11.51-.72,23.03-1.04,34.55-.04,1.38.05,2.78.16,4.16.15,1.81,1.1,2.62,3,2.66,4.69.09,9.38.31,14.06.57,2.26.13,4.42.11,6.45-1.09,1.75-1.03,3.28-.9,4.88.62.77.74,2.2.94,3.37,1.08,1.79.21,3.6.16,5.41.22,8.88.32,17.75.7,26.63.96,8.32.24,16.65.38,24.98.53,6.37.12,11.72.25,18.1.25,4.22,0,4.5-.28,4.96-4.36.48-4.23.55-8.53,1.3-12.71,1.21-6.67,2.98-13.23,4.23-19.89.82-4.35,1.69-8.82,1.47-13.18-.14-2.66-.21-5.24.37-7.76.63-2.73,1.92-5.42,4.87-6.23,3.7-1.01,4.67-3.51,4.65-6.84-.01-1.51-.22-3.02-.11-4.51.19-2.32.24-4.74.95-6.92,1.29-3.95,1.69-7.77.38-11.79-.46-1.4-.53-3.03-.39-4.51.32-3.27,1.07-6.49,1.32-9.76.39-4.97.56-9.97.72-14.96.12-3.87-.1-7.76.14-11.62.65-10.24,1.72-20.47,2.16-30.72.84-19.96,1.54-39.92,1.9-59.89.12-6.58.1-13.17.38-19.76.21-4.98-.28-9.98-.21-14.97.1-8.31.38-16.61.62-24.91.26-8.86.59-17.72.83-26.57.18-6.52.21-13.05.4-19.58.18-6.37.47-12.74.75-19.11.03-.78.33-1.55.5-2.32.63,2.35.67,4.56.63,6.78-.16,8.89-.32,17.77-.51,26.66-.33,16.11-.67,32.21-1.04,48.32-.1,4.44-.46,8.89-.39,13.33.07,4.98.79,9.96.72,14.93-.23,15.56-.72,31.11-1.07,46.66-.15,6.95-.12,13.9-.28,20.84-.39,16.8-.83,33.6-1.3,50.4-.21,7.35-.55,14.7-.81,22.05-.04,1.11.06,2.22.07,3.32.03,2.48.06,4.96.07,7.44,0,6.08,0,12.16,0,18.27.93.42,1.93.88,2.93,1.33,1.76-5.86-.19-12.77,5.19-17.52,1.35.42,2.87.9,4.32,1.35.99,1.64-.23,3.79,1.33,5.52.56-1.74.98-3.07,1.65-5.15,1.02,1.96,1.63,3.14,2.63,5.07.53-2.49.88-4.09,1.21-5.7.23-1.09.11-2.43.71-3.22,2.25-2.94,3.59-6.22,4.43-9.78.21-.9.64-2.21,1.31-2.48,2.78-1.1,2.51-3.41,2.52-5.57,0-4.33,1.53-8.17,3.43-12.83,1.03,1.57,1.7,2.59,2.81,4.28.61-2.56,1.07-4.12,1.33-5.72.28-1.75.28-3.61,2.94-3.87.13,2.11.24,4.02.36,5.92.16,0,.32-.02.48-.02.4-3.9.8-7.8,1.26-12.32,2.91,2.93,6.06,4.56,7.12,8.82,2.5-4.45,4.96-8.1,4.06-12.65-1-5.04.28-9.71,1.55-15.08.9,5.44-1.13,10.48,1.33,15.83,3.92-5.36,2.66-11.73,5.98-16.52,1.17,4.96.35,9.85.28,14.73-.08,5.12-.06,10.25-.21,15.36-.14,4.96-.43,9.92-.67,15.02,1.92.56,3.4.98,4.59,1.33,1.03,3,2.3,5.81,2.92,8.77.44,2.09,2.15,2.78,3.25,4.1.91,1.09,2.45.46,2.68-.98.17-1.09.02-2.22.11-3.33.13-1.55-.32-3.31,1.63-4.57.15,1.47.24,2.7.4,3.92.4,3.12,1.22,3.71,4.28,3.69,1.12,0,2.37.35,3.34.91,2.68,1.55,5.09,3.39,5.42,6.88.04.43.64.82,1.17,1.44.6-.94,1.05-1.64,1.81-2.84.65,1.64.8,3.06,1.58,3.81,2.11,2.04,1.75,4.41,1.65,6.92-.15,3.98-.04,7.97-.04,11.95,2.55-6.2,1.31-12.88,2.76-19.71.36,2.67.65,4.87.95,7.08.28,0,.56,0,.84.01.52-.85,1.04-1.7,1.79-2.93,1.03,6.04,1.98,11.61,2.95,17.27.81-.86,1.59-1.68,2.51-2.65,2.1,2.34.49,5.94,3.32,7.55,2.14-2.7,2.38-3.09,2.96-8.73.56-5.52.87-11.07,1.34-16.61.07-.77.42-1.51.76-2.69.83.62,1.33,1.01,1.87,1.42.91-.54,1.8-1.47,2.77-1.56,4.94-.51,6.09-4.09,6.86-8.04.24-1.23.33-2.48.54-3.71,1.1-6.43,1.58-12.88,1.65-19.42.11-11.93.51-23.86.87-35.78.05-1.74.5-3.47.77-5.23,4.85,0,9.28.11,13.7-.02,11.08-.34,23.18-.8,34.25-1.18,3.57-.12,7.15-.22,10.73-.18,2.19.02,4.38.44,6.57.47,5.96.09,11.92.07,17.88.08,5.38,0,10.77.1,16.15-.05,5.67-.16,11.34-.51,17-.88,2.62-.17,5.25-.47,7.85-.88,2.1-.33,4.09-.34,5.67.47,0,7.81.28,15.31-.08,22.78-.37,7.6,1.83,15.17.1,22.77-.15.66-.06,1.39-.06,2.08.02,22.36.08,44.72.07,67.08-.01,13.19-.19,26.39-.19,39.58,0,2.77.33,5.55.73,8.29.6,4.08,2.51,5.42,6.63,4.94,1.93-.22,3.86-.65,5.78-.65,6.63.01,13.26.32,19.89.25,6.49-.07,12.98-.57,19.48-.65,3.99-.05,7.98.34,11.96.5,1.94.08,3.89.11,5.83.17,6.97.21,14.02-.49,20.85,1.6.65.2,1.38.14,2.07.19,4.38.28,8.77.47,13.14.85,4.66.4,7.77,1.04,12.43,1.4.79.06,1.9-.53,2.42-1.18,1.49-1.84,2.63-3.86,2.65-6.4.13-14.59.35-29.18.49-43.76.06-6.1,0-12.2,0-18.47,3.29-.7,6.1-1.33,8.93-1.89.36-.07.95.03,1.15.28,1.8,2.28,4.28,1.47,6.57,1.56,3.32.13,6.64.41,9.97.49,3.58.09,7.16.02,10.93.02.16-.8.34-1.73.67-3.44.71,1.74,1.07,2.61,1.54,3.74,8.69,0,17.43.34,26.13-.15,4.04-.23,7.88-1.67,12.06-.03,1.89.74,4.39-.21,6.59-.1,5.11.27,10.22,1,15.33,1.03,7.18.05,10.03-.18,9.3-9.58-.25-3.28-.61-6.85,1.46-10.39,1.61,2.25,1.2,4.36,1.05,6.37-.21,2.8-.24,5.49,1,8.14,1.58,3.38,1.92,3.57,5.85,1.69.49-5.5.98-11.14,1.52-16.78.16-1.65.58-3.28.67-4.93.12-2.05.51-4.26-.08-6.14-1.69-5.39-1.21-10.65-.06-15.99.55-2.56,1.13-5.17,1.22-7.77.34-10.69.51-21.38.67-32.07.02-1.19-.39-2.39-.68-3.56-.46-1.85-1.26-3.66-1.42-5.53-.85-9.7.43-19.32,1.43-28.94.07-.68.29-1.35.46-2.02.48-1.98,1.3-3.93,1.4-5.93.25-4.83.06-9.69.27-14.53.45-10.81,1.02-21.61,1.59-32.42.12-2.28.44-4.54.67-6.82.31,13.12.05,26.17-.13,39.22-.29,21.76-.54,43.52-.78,65.28-.09,8.33-.05,16.66-.17,24.99-.12,7.92-.3,15.83-.59,23.74-.27,7.33-.84,14.66-1.05,21.99-.09,3.17.59,6.37.55,9.55-.08,7.64-.57,15.27-.53,22.9.04,7.62.47,15.24.81,22.86.13,2.93,1.42,5.21,4.29,6.72,2.34-3.28,3.91-6.57,3.35-10.52-1.37-9.67-.09-19.35-.19-29.03-.01-1.35-.16-2.96,1.46-4.12,1.63,2.49,1.13,5.02,1.08,7.46-.06,2.77-.17,5.55-.25,8.32-.1,3.31-.19,6.63-.29,9.94-.17,5.26-.71,10.54-.41,15.77.3,5.12,3.78,7.31,8.8,7.04,3.52-.19,6.38-1.4,9.08-4.22,1.8,2.02,3.44,3.85,5.09,5.71.58-.53.95-.75,1.16-1.08,2.41-3.72,2.6-3.72,6.38-1.37.99.62,2.32,1.23,3.39,1.08,1.82-.26,3.14.48,4.71,1.05,2.42.88,5.36,2.22,7.52,1.55,5.17-1.61,9.72.91,14.56,1.13,3.47.16,6.89,1.76,10.21-.62.48-.34,1.38-.33,2.02-.19,2.51.55,4.99,1.21,7.88,1.94,2.66-3.88,8.28-2.69,12.6-3.6.57,1.2.25,2.22.71,3.18,2.19.32,2.6-1.09,2.93-2.46.55-2.29,1.28-4.59,1.45-6.92.53-7.47.85-14.95,1.23-22.42.18-3.6.29-7.2.54-10.8.06-.81.58-1.58.89-2.37.62,3.84.79,7.54.59,11.22-.4,7.33-1.05,14.65-1.48,21.98-.13,2.17-.02,4.42,1.89,6.4.87-1.09,1.77-2.73,2.43-3.56,2.11,1.85,3.96,4.37,6.47,6.59.97-2.02,1.96-3.4,2.28-4.92.63-2.98,1.1-6.02,1.25-9.06.31-6.24.42-12.49.53-18.74.43-24.58.75-49.17,1.25-73.75.33-15.97.97-31.93,1.37-47.9.45-17.92.75-35.84,1.18-53.75.06-2.6.46-5.19.71-7.79.6,5.73,1.14,11.4,1.35,17.08.35,9.71.15,19.46.81,29.14.55,8.03-1.34,16.04.14,24.04.15.8,0,1.66,0,2.5-.08,4.15-.19,8.31-.23,12.46-.08,7.92-.09,15.84-.19,23.75-.15,12.21-.61,24.43-.44,36.64.09,6.67.3,13.3-.75,19.9-.3,1.9-1.05,3.79-1.01,5.67.17,8.47.55,16.93.87,25.39.04.97.29,1.93.31,2.9.04,1.92.09,3.85-.04,5.77-.31,4.69-2.25,9.11-1.85,13.97.56,6.91.59,13.86.89,20.79.12,2.81.82,5.43,2.67,7.57,3.35-.2,6.67-1.08,9.65-.41,4.35.98,8.17.07,12.18-1.11,2.36-.7,4.91-1.5,7.28-1.28,4,.38,7.91,1.19,11.78-.54.34-.15.82,0,1.24,0,6.36-.11,12.86.55,19.04-.55,6.43-1.13,12.87-1.35,19.03-.38,7.82,1.22,15.42-.05,23.12.05,5.64.07,11.28-.32,17.29-.51.62-.87,1.47-2.08,2.33-3.29.76.2,1.29.33,1.81.48.53.16,1.05.42,1.59.5,1.97.27,3.27-.64,3.4-2.65.29-4.56.68-9.14.58-13.7-.17-8.18-.82-16.36-.98-24.55-.15-7.9.07-15.82.16-23.72.05-4.43.27-8.86.26-13.29-.04-10.52-.19-21.05-.2-31.57,0-.46.92-.91,1.43-1.39,1.49,1.87-.14,4.35,1.92,6.01.45-1.7.8-3.05,1.4-5.31,1.05,2.1,1.65,3.31,2.63,5.27.6-2.43,1.02-4,1.37-5.58.24-1.08.05-2.43.64-3.21,2.26-2.99,3.56-6.35,4.47-9.92.2-.79.45-1.98,1-2.21,3.18-1.34,2.87-4.15,2.88-6.67.02-4.07,1.69-7.56,3.27-11.88,1.02,1.56,1.68,2.57,2.82,4.32.7-2.68,1.19-4.23,1.48-5.82.29-1.59.02-3.42,2.68-4.03v6.4c2.16-3.85,1.17-8.18,2.34-12.3,3.18,2.29,5.81,4.5,7.11,8.21,3-4.87,4.85-9.34,3.71-14.92-.69-3.36.21-7,1.61-10.32.22,2.22.16,4.42.24,6.62.07,2.1-.59,4.42,1.78,6.43.6-1.14,1.28-2,1.51-2.96.72-2.96,1.22-5.97,1.9-8.94.36-1.6.29-3.51,2.84-4.78.39,8.07-.78,15.47-.85,22.89-.07,7.47-.02,14.95-.02,22.92,1.23.4,2.8.91,4.17,1.35.93,2.76,2.04,5.47,2.73,8.29.51,2.08,2.04,3.18,3.35,4.51,1.02,1.03,2.44.58,2.66-.82.17-1.09-.03-2.23.11-3.33.19-1.5.53-2.98.85-4.67.68.41.88.46.89.55.17,1.09.33,2.17.45,3.26.33,3.15,1.11,3.82,4.17,3.72.91-.03,2.05-.09,2.7.38,2.63,1.92,5.79,3.48,6.05,7.4.03.41.62.79,1.03,1.28.86-.7,1.56-1.28,1.98-1.63,4.5,4.46,3.14,9.98,3.2,15.24.02,1.39-.12,2.78-.1,4.17.01.68.23,1.36.36,2.03l.95-.06c.42-6.24.84-12.48,1.26-18.72l.69.04c.13,2.14.26,4.28.45,7.32,1.24-1.6,1.92-2.47,2.81-3.62,1,5.87,1.94,11.42,2.89,17,.86-.89,1.69-1.74,2.75-2.84,1.47,2.83.45,5.97,3.04,7.64,2.09-2.67,2.25-2.68,2.8-7.54.67-5.93,1.03-11.89,1.58-17.83.07-.76.43-1.5.7-2.43.81.5,1.38.85,2.05,1.27,1.56-1.17,3.16-2.5,5.6-1.89,0,4.65.13,9.21-.03,13.77-.2,5.53-.83,11.05-.92,16.58-.08,4.85.53,9.7.51,14.55-.05,9.3-.49,18.6-.49,27.9,0,5.95.45,11.91.79,17.86.17,2.91,1.47,5.17,4.79,6.77,1.03-2.87,2.62-5.38,2.72-7.96.24-6.9-.24-13.82-.27-20.74-.02-4.28.21-8.57.4-12.85.03-.73.45-1.45.82-2.59,2.11,2.39,1.57,4.81,1.56,7.07-.02,2.91-.21,5.82-.31,8.74-.13,3.59-.25,7.18-.37,10.77-.16,4.98-.66,9.99-.35,14.95.34,5.44,3.66,7.51,9.01,7.26,3.57-.16,6.25-1.7,9.52-4.58,1.61,2.13,3.09,4.07,4.62,6.09.6-.67.92-.95,1.13-1.28,2.17-3.45,2.62-3.53,6.1-1.27.8.52,1.87,1.44,2.53,1.24,2.94-.88,5.02.92,7.44,1.82,1.77.65,4.05,1.36,5.65.78,5.1-1.85,9.72.75,14.57.98,3.47.16,6.72,1.35,10.3-.43,1.67-.83,4.29.04,6.42.42,1.15.2,2.19,1,3.32,1.55,3.13-4.39,7.89-2.99,11.9-4.08.76,1.28,1.43,2.38,2.46,4.11.88-1.36,1.7-2.13,1.94-3.06.7-2.68,1.45-5.39,1.68-8.14.54-6.63.82-13.28,1.14-19.93.18-3.6.19-7.21.39-10.81.07-1.27.49-2.52.74-3.78.32.04.63.09.95.13.43,3.89.17,7.78-.11,11.71-.54,7.46-1.04,14.93-1.34,22.41-.07,1.65.75,3.34,1.33,5.72,1.31-1.57,2.05-2.44,2.73-3.25,2.1,1.83,4.13,3.6,6.59,5.75.94-1.84,1.91-3.08,2.22-4.46.65-2.97,1.19-6.01,1.35-9.04.33-6.38.44-12.77.55-19.16.43-24.58.75-49.17,1.26-73.75.35-16.8.98-33.6,1.42-50.4.32-11.94.58-23.89.79-35.83.37-21.53.65-43.07,1.04-64.6.11-5.8,2-11.6,2.26-17.41Z"/>
      <path class="cls-1" d="M647.32,153.82c-.7-14.97-1.76-29.89-.35-44.81,1.22,2.92,1.56,35.74.35,44.81Z"/>
      <path class="cls-1" d="M647.75,203.11v-8.99s.06,0,.09,0v8.99s-.06,0-.09,0Z"/>
    </g>
  </g>
</svg>