<svg width="573" height="448" viewBox="0 0 573 448" fill="none" xmlns="http://www.w3.org/2000/svg">
<path opacity="0.25" d="M281.615 143H10.809C1.98221 143 -3.11154 132.978 2.09559 125.843L90.6954 4.43086C92.7277 1.64849 95.9636 0 99.4089 0H370.206C379.033 0 384.127 10.0218 378.92 17.1565L290.32 138.569C288.287 141.352 285.052 143 281.606 143H281.615Z" fill="#2922FF"/>
<path opacity="0.25" d="M676.166 388H121.121C108.778 388 101.651 373.985 108.925 364.011L232.845 194.199C235.682 190.305 240.219 188 245.041 188H800.076C812.419 188 819.546 202.015 812.272 211.989L688.353 381.801C685.515 385.695 680.978 388 676.156 388H676.166Z" fill="#2922FF"/>
<path opacity="0.25" d="M584.588 448H290.121C277.778 448 270.651 433.985 277.925 424.011L401.845 254.199C404.682 250.305 409.219 248 414.041 248H708.508C720.851 248 727.978 262.015 720.704 271.989L596.784 441.801C593.946 445.695 589.409 448 584.588 448Z" fill="#2922FF"/>
</svg>
