<svg width="32" height="32" viewBox="0 0 32 32" fill="none" xmlns="http://www.w3.org/2000/svg">
<path d="M12.6705 31.7899C12.6705 27.2329 12.6705 22.4237 12.6705 17.8666V17.3958C12.5864 17.3958 12.5023 17.3958 12.435 17.3958C10.9721 17.3958 9.50913 17.3958 8.02936 17.3958C7.84439 17.3958 7.79395 17.3454 7.79395 17.1604C7.79395 15.4452 7.79395 13.73 7.79395 12.0148C7.79395 11.8467 7.87802 11.7626 8.04618 11.7626C9.49232 11.7626 10.9553 11.7626 12.4014 11.7626H12.6368C12.6368 11.7626 12.6368 11.6281 12.6368 11.5776C12.6368 10.1315 12.6368 8.70215 12.6368 7.25601C12.6368 6.02847 12.9059 4.83456 13.4608 3.74155C14.3688 1.9591 15.8486 0.899718 17.7824 0.445697C18.9763 0.159833 20.1702 0.193464 21.3809 0.24391C22.1376 0.277542 22.8943 0.327988 23.6342 0.378435C24.206 0.412066 24.206 0.412066 24.206 0.96698C24.206 2.37949 24.206 3.80881 24.206 5.22132V5.47356C24.1051 5.47356 24.021 5.47356 23.9369 5.47356C23.0457 5.47356 22.1545 5.47356 21.2632 5.47356C20.8597 5.47356 20.4393 5.50719 20.0525 5.59127C19.1781 5.77624 18.6736 6.34797 18.5391 7.23919C18.4887 7.55869 18.4718 7.87819 18.4718 8.19768C18.4718 9.29069 18.4718 10.4005 18.4718 11.4935C18.4718 11.5608 18.4718 11.6281 18.4718 11.729C18.5727 11.729 18.64 11.729 18.7241 11.729C20.4056 11.729 22.0872 11.729 23.7688 11.729C24.0378 11.729 24.021 11.729 23.9874 11.9812C23.7688 13.6964 23.5333 15.4284 23.3315 17.1436C23.3147 17.3285 23.2475 17.3622 23.0793 17.3622C21.6332 17.3622 20.187 17.3622 18.7409 17.3622C18.6568 17.3622 18.5896 17.3622 18.4887 17.3622V31.7563H12.62L12.6705 31.7899Z" fill="#F5F5F6"/>
</svg>
