<svg width="104" height="104" viewBox="0 0 104 104" fill="none" xmlns="http://www.w3.org/2000/svg">
<g clip-path="url(#clip0_2071_2333)">
<path d="M95.1031 0.00995183L89.1917 0C88.9827 0 88.787 0.0995184 88.6642 0.2687L84.5143 5.95451C84.1992 6.38576 84.5077 6.98951 85.0417 6.98951L95.0898 6.99946C96.1513 6.99946 97.0105 7.85863 97.0105 8.92016V95.3353C97.0105 96.3968 96.1513 97.256 95.0898 97.256L8.91021 97.246C7.84868 97.246 6.98951 96.3868 6.98951 95.3253L6.99946 8.89694C6.99946 7.83541 7.85863 6.97624 8.92016 6.97624L63.4496 6.98951C63.6586 6.98951 63.8543 6.88999 63.977 6.72081L68.1269 1.03831C68.4421 0.607062 68.1336 0.00331728 67.5995 0.00331728H8.90358C3.99069 0 0.00995184 3.98405 0.00995184 8.89694L0 95.0931C0 100.006 3.98073 103.987 8.89362 103.99H20.9984L95.0997 104C100.013 104 103.997 100.016 103.997 95.1031V8.90358C104 3.99069 100.016 0.00995183 95.1031 0.00995183Z" fill="#2822FF"/>
<path d="M69.7089 8.63488H76.3435C76.5525 8.63488 76.7482 8.53536 76.8709 8.36618L82.2217 1.03499C82.5368 0.603745 82.2283 0 81.6942 0H75.0597C74.8507 0 74.655 0.0995184 74.5322 0.2687L69.1815 7.59989C68.8663 8.03113 69.1748 8.63488 69.7089 8.63488Z" fill="#EE5335"/>
<path d="M61.3746 29.4881C61.0362 29.8629 60.8737 30.3638 60.9268 30.8647L61.6798 37.9106C61.7959 39.0053 60.9201 39.8745 59.9183 39.8745C59.6795 39.8745 59.434 39.8247 59.1918 39.7152L52.7231 36.8226C52.4942 36.7164 52.2488 36.6667 52 36.6667C51.7512 36.6667 51.5057 36.7164 51.2768 36.8226L44.8081 39.7152C44.5659 39.8214 44.3205 39.8745 44.0816 39.8745C43.0831 39.8745 42.204 39.0053 42.3201 37.9106L43.0732 30.8647C43.1262 30.3638 42.9637 29.8629 42.6253 29.4881L37.8783 24.2302C36.9627 23.2151 37.4902 21.5896 38.827 21.3077L45.4682 19.9045L45.7635 19.8447C46.2544 19.7419 46.6824 19.4367 46.9312 18.9988L50.4674 12.8519C50.8057 12.2581 51.4028 11.9629 52.0033 11.9629C52.6037 11.9629 53.1975 12.2614 53.5392 12.8519L57.0721 18.9955C57.3242 19.4334 57.7488 19.7419 58.2431 19.8447L58.4222 19.8846L65.1762 21.3077C66.513 21.5896 67.0405 23.2151 66.1249 24.2302L61.3779 29.4881H61.3746Z" fill="#2822FF"/>
<path d="M33.2035 51.0502C32.9017 51.382 32.759 51.8265 32.8055 52.2743L33.4756 58.534C33.5784 59.506 32.7988 60.2756 31.9131 60.2756C31.7008 60.2756 31.4819 60.2291 31.2696 60.1362L25.524 57.5687C25.3217 57.4758 25.1027 57.4293 24.8838 57.4293C24.6649 57.4293 24.4459 57.4758 24.2402 57.5687L18.4947 60.1362C18.2791 60.2324 18.0602 60.2756 17.8512 60.2756C16.9655 60.2756 16.1859 59.506 16.2887 58.534L16.9588 52.2743C17.0053 51.8298 16.8626 51.3853 16.5607 51.0502L12.3445 46.3795C11.5318 45.4805 11.9995 44.0342 13.1871 43.7854L19.0852 42.5414L19.3473 42.4883C19.7851 42.3988 20.1633 42.1234 20.3856 41.7386L23.527 36.2817C23.8289 35.7543 24.3597 35.4922 24.8904 35.4922C25.4212 35.4922 25.952 35.7576 26.2538 36.2817L29.392 41.7386C29.6176 42.1267 29.9924 42.4021 30.4303 42.4916L30.5895 42.5248L36.5872 43.7887C37.7747 44.0408 38.2425 45.4838 37.4297 46.3828L33.2135 51.0535L33.2035 51.0502Z" fill="#2822FF"/>
<path d="M87.4477 51.0502C87.1458 51.382 87.0032 51.8265 87.0496 52.2743L87.7197 58.534C87.8225 59.506 87.043 60.2756 86.1573 60.2756C85.945 60.2756 85.726 60.2291 85.5137 60.1362L79.7682 57.5687C79.5658 57.4758 79.3469 57.4293 79.1279 57.4293C78.909 57.4293 78.6901 57.4758 78.4844 57.5687L72.7389 60.1362C72.5232 60.2324 72.3043 60.2756 72.0953 60.2756C71.2096 60.2756 70.43 59.506 70.5329 58.534L71.203 52.2743C71.2494 51.8298 71.1068 51.3853 70.8049 51.0502L66.5886 46.3795C65.7759 45.4805 66.2436 44.0342 67.4312 43.7854L73.3293 42.5414L73.5914 42.4883C74.0293 42.3988 74.4075 42.1234 74.6297 41.7386L77.7712 36.2817C78.073 35.7543 78.6038 35.4922 79.1346 35.4922C79.6653 35.4922 80.1961 35.7576 80.498 36.2817L83.6361 41.7386C83.8617 42.1267 84.2366 42.4021 84.6744 42.4916L84.8337 42.5248L90.8313 43.7887C92.0189 44.0408 92.4866 45.4838 91.6739 46.3828L87.4576 51.0535L87.4477 51.0502Z" fill="#2822FF"/>
<path d="M43.1547 80.5541C42.8528 80.8859 42.7102 81.3304 42.7566 81.7782L43.4267 88.0379C43.5296 89.0099 42.75 89.7795 41.8643 89.7795C41.652 89.7795 41.433 89.733 41.2207 89.6402L35.4752 87.0726C35.2729 86.9797 35.0539 86.9333 34.835 86.9333C34.616 86.9333 34.3971 86.9797 34.1914 87.0726L28.4459 89.6402C28.2303 89.7364 28.0113 89.7795 27.8023 89.7795C26.9166 89.7795 26.1371 89.0099 26.2399 88.0379L26.91 81.7782C26.9564 81.3337 26.8138 80.8892 26.5119 80.5541L22.2957 75.8834C21.4829 74.9844 21.9507 73.5381 23.1382 73.2893L29.0364 72.0453L29.2984 71.9922C29.7363 71.9027 30.1145 71.6273 30.3367 71.2425L33.4782 65.7856C33.7801 65.2582 34.3108 64.9961 34.8416 64.9961C35.3724 64.9961 35.9031 65.2615 36.205 65.7856L39.3432 71.2425C39.5687 71.6307 39.9436 71.906 40.3815 71.9956L40.5407 72.0287L46.5383 73.2926C47.7259 73.5447 48.1937 74.9877 47.3809 75.8867L43.1647 80.5574L43.1547 80.5541Z" fill="#2822FF"/>
<path d="M77.4965 80.5541C77.1946 80.8859 77.052 81.3304 77.0984 81.7782L77.7685 88.0379C77.8714 89.0099 77.0918 89.7795 76.2061 89.7795C75.9938 89.7795 75.7748 89.733 75.5625 89.6402L69.817 87.0726C69.6147 86.9797 69.3957 86.9333 69.1768 86.9333C68.9578 86.9333 68.7389 86.9797 68.5332 87.0726L62.7877 89.6402C62.5721 89.7364 62.3531 89.7795 62.1441 89.7795C61.2584 89.7795 60.4789 89.0099 60.5817 88.0379L61.2518 81.7782C61.2982 81.3337 61.1556 80.8892 60.8537 80.5541L56.6375 75.8834C55.8247 74.9844 56.2925 73.5381 57.48 73.2893L63.3782 72.0453L63.6402 71.9922C64.0781 71.9027 64.4563 71.6273 64.6785 71.2425L67.82 65.7856C68.1219 65.2582 68.6526 64.9961 69.1834 64.9961C69.7142 64.9961 70.2449 65.2615 70.5468 65.7856L73.685 71.2425C73.9105 71.6307 74.2854 71.906 74.7233 71.9956L74.8825 72.0287L80.8801 73.2926C82.0677 73.5447 82.5355 74.9877 81.7227 75.8867L77.5065 80.5574L77.4965 80.5541Z" fill="#2822FF"/>
</g>
<defs>
<clipPath id="clip0_2071_2333">
<rect width="104" height="104" fill="white"/>
</clipPath>
</defs>
</svg>
