<?xml version="1.0" encoding="UTF-8"?>
<svg id="Layer_2" data-name="Layer 2" xmlns="http://www.w3.org/2000/svg" viewBox="0 0 113.38 113.38">
  <defs>
    <style>
      .cls-1 {
        fill: #ff4222;
      }

      .cls-1, .cls-2 {
        stroke-width: 0px;
      }

      .cls-2 {
        fill: #2922ff;
      }
    </style>
  </defs>
  <g id="Layer_1-2" data-name="Layer 1">
    <g>
      <path class="cls-2" d="M70.29,109.06c-.99,0-1.92-.55-2.39-1.44l-13.52-25.46,4.79-2.54,8.97,16.91c.41.77,1.56.63,1.76-.22l1.99-8.34,5.28,1.26-4.24,17.76c-.26,1.1-1.18,1.92-2.3,2.06-.12.01-.23.02-.34.02Z"/>
      <path class="cls-2" d="M95.49,24.49c-.16,5.16-.65,16.26-8.51,25.87-2.22-3.04-5.6-4.94-9.23-5.04.89-6.29-.12-10.48-2.97-12.87h0c-2.5-2.09-6.08-2.54-10.89-1.32,2.24-3.65,8.13-12.54,20.72-16.38,2.77-.85,5.37-1.29,7.56-1.53,1.39-.15,2.63.84,2.82,2.22.35,2.54.61,5.62.51,9.05Z"/>
      <path class="cls-2" d="M41.7,21.52c-.35.08-.71.17-1.06.28-.47.14-.93.31-1.36.49-.87.36-1.67.79-2.39,1.26-.04-.87-.26-1.6-.66-2.14-.66-.9-2.13-1.76-3.65-1.66-.49.04-.97.17-1.42.38-1.1.5-2.03,1.49-2.6,2.79l-.55,1.24-.5,1.13-1.36-.64-.99-.46c-.81-.38-1.66-.56-2.46-.56s-1.52.18-2.1.54c-.19.12-.37.26-.53.42-1.27,1.26-.93,3.58-.41,4.74.22.49.52.93.9,1.32-.85.26-1.67.6-2.44,1.02-.75.39-1.46.85-2.12,1.38-.38-.52-.71-1.08-.97-1.67-1.31-2.98-1.41-7.49,1.46-10.37.68-.68,1.47-1.22,2.34-1.61-.68-3.02-.37-6.17,3.29-7.2,3.25-.92,5.5.9,7.01,3.3.97-.44,2.01-.71,3.08-.78,3.77-.27,6.71,1.83,8.09,3.71.67.92,1.13,1.96,1.39,3.1Z"/>
      <path class="cls-2" d="M74.78,32.45h0c-2.5-2.09-6.08-2.54-10.89-1.32-.88.22-1.8.49-2.76.82-1.39-2.92-4.21-7.18-9.5-9.38-3.4-1.42-6.73-1.77-9.93-1.05-.35.08-.71.17-1.06.28-.47.14-.93.31-1.36.49-.87.36-1.67.79-2.39,1.26-3.17,2.07-5.07,5.04-6.1,7.15-3.49-1.04-7.07-1.04-10.21-.05-.85.26-1.67.6-2.44,1.02-.75.39-1.46.85-2.12,1.38-.16.13-.32.26-.48.4-2.93,2.55-4.75,6.48-4.99,10.78-.24,4.17,1.01,8.4,3.48,11.92-6.1,5.67-6.9,10.17-6.41,13.03,1.48,8.67,15.16,11.92,27.24,14.79,8.2,1.95,16.61,3,25.03,3.13l1.59.03.72-1.42c.29-.56.57-1.13.84-1.68.85-1.71,1.67-3.37,2.44-4.98-.34-.43-.66-.85-.97-1.26-.26-.35-.51-.69-.75-1.03-.61-.85-1.16-1.67-1.64-2.47-2.47-4.01-3.39-7.19-2.84-9.05.08-.25.16-.5.26-.73.75-1.87,1.95-2.99,1.95-2.99,1.78-1.59,4.05-1.91,5.6-1.91.27,0,.51.01.73.03l.59.04,1.88.12.23-2.46c.18-1.99,1.08-3.76,2.38-5.02.29-.28.59-.54.92-.76.89-.61,1.9-1.01,2.96-1.14.46-1.83.81-3.53,1.03-5.1.89-6.29-.12-10.48-2.97-12.87ZM72.9,43.32c-.02.21-.17.4-.38.46-6.84,2.14-11.45,5.65-14.56,9.39-4.42,5.31-5.81,11.09-6.24,14.07-.15,1.01-1.17,1.63-2.13,1.28-16.56-6.1-27.49,1.15-31.52,4.67-.17.14-.4.17-.6.07-2.69-1.4-4.56-3.02-4.88-4.93-.42-2.48,2.01-6.18,6.52-9.9l2.06-1.7-1.8-1.97c-2.61-2.85-3.98-6.58-3.78-10.24.17-2.94,1.36-5.58,3.26-7.24.38-.33.79-.62,1.23-.88,1.09-.65,2.35-1.07,3.69-1.26.56-.08,1.14-.12,1.73-.12,1.46,0,2.99.25,4.47.77.4.14.8.29,1.19.47l2.64,1.18.83-2.76s.04-.12.07-.22c.29-.86,1.32-3.54,3.61-5.61.9-.81,1.98-1.53,3.29-2.01.17-.06.34-.12.51-.17,2.35-.72,4.9-.52,7.56.59,5.19,2.16,7.12,7.21,7.59,8.71l.82,2.63,2.55-1.04s.04-.01.06-.02c3.26-1.32,5.96-2,7.95-2,1.25,0,2.22.27,2.86.81.86.72,1.84,2.51,1.38,6.98Z"/>
      <path class="cls-2" d="M19.77,66.5c-.36,0-.72-.13-1-.4-.58-.55-.6-1.47-.05-2.04.42-.44,10.14-10.33,27.54-3.17.95-4.35,4.37-15.02,15.51-20.87.71-.37,1.59-.1,1.96.61.37.71.1,1.59-.61,1.96-12.58,6.61-14.3,20.4-14.32,20.54-.05.46-.32.87-.73,1.1-.41.23-.9.25-1.32.05-16.52-7.64-25.57,1.41-25.94,1.8-.28.29-.66.44-1.04.44Z"/>
      <path class="cls-2" d="M47.37,64.39c-.31,0-.62-.1-.88-.3l-16.61-12.67c-.64-.49-.76-1.4-.27-2.03.49-.64,1.4-.76,2.03-.27l13.48,10.28-3.17-14.56c-.17-.78.33-1.55,1.11-1.73.78-.17,1.56.33,1.73,1.11l4.01,18.41c.13.59-.13,1.21-.64,1.53-.24.15-.51.23-.78.23Z"/>
      <circle class="cls-2" cx="28.98" cy="47.84" r="4.11"/>
      <circle class="cls-2" cx="42.79" cy="41.28" r="4.11"/>
      <path class="cls-2" d="M64.94,97.32c-6.55-5.02-12.09-6.35-15.91-6.64-6.39-.5-6.97,1.96-17.51,2.46-6.92.32-9.97-.58-14.44,1.54-2.28,1.08-4.04,2.52-5.38,3.91-.69.71-.16,1.9.83,1.85,9.09-.39,19.83-.16,31.74,1.46,10.06,1.36,18.97,3.44,26.57,5.68-1.97-3.42-3.93-6.84-5.9-10.25Z"/>
      <path class="cls-2" d="M105.73,73.06c-.63-3.07-2.43-5.29-4.05-6.72,1.43-4.06.93-8.44-1.44-11.61-2.16-2.9-5.24-3.95-6.46-4.27-2.6-.67-4.91-.34-6.6.18-.07-.09-.13-.19-.2-.28-2.22-3.04-5.6-4.94-9.23-5.04-.15,0-.3,0-.44,0-.74,0-1.47.09-2.18.24-.02,0-.04,0-.06.01-.93.2-1.82.52-2.67.94-3.12,1.56-5.57,4.5-6.57,8.07-2.27.17-5.18.89-7.67,3.07-.04.03-.07.06-.1.09-.26.24-2.6,2.4-3.69,6.05-1.3,4.35,1.08,10.05,5.16,15.79.54.76,1.11,1.52,1.7,2.28.43.56.88,1.11,1.35,1.66.14.17.27.33.42.5,2.79,3.28,5.97,6.47,9.17,9.32l.92.82,1.21-.22c7.99-1.42,15.06-3.44,20.42-5.82,5.94-2.64,9.49-5.6,10.54-8.79.51-1.56.65-3.02.65-4.14s-.15-1.97-.18-2.12ZM100.45,77.74c-.03.1-.07.2-.12.3-.13.28-.47.39-.75.24-9.61-5.1-17.3-1.44-20.47.64-.82.54-1.93.21-2.33-.69-4.76-10.6-13.23-12.62-16.85-12.98-.35-.03-.57-.4-.44-.72h0c.75-1.87,1.95-3,1.95-3,1.78-1.59,4.05-1.91,5.6-1.91.27,0,.51.01.73.03l.59.04,1.88.12.23-2.46c.18-1.99,1.08-3.76,2.38-5.02.29-.28.59-.54.92-.76.89-.61,1.9-1.01,2.96-1.14.21-.02.42-.04.63-.04h.05c2.38,0,4.69,1.48,5.99,3.75.13.24.26.48.37.73l1.12,2.54,2.43-1.35c.59-.33,2.69-1.34,5.19-.69.7.18,2.47.78,3.67,2.39,1.59,2.13,1.65,5.35.14,8.2l-1.07,2.03,1.92,1.27c1.12.74,3.08,2.35,3.58,4.8.02.11.3,1.81-.31,3.67Z"/>
      <path class="cls-2" d="M79.11,75.2c-.15,0-.3-.03-.44-.08-.36-.13-.63-.41-.76-.77-2.52-7.23-10.98-9.95-11.06-9.98-.67-.21-1.04-.92-.83-1.59.21-.67.92-1.04,1.59-.83.38.12,8.77,2.82,12.16,10.24,2.53-1.11,8.42-3.03,15.31-.65.66.23,1.01.95.79,1.61-.23.66-.95,1.01-1.61.79-7.87-2.71-14.44,1.05-14.51,1.09-.2.12-.42.17-.64.17Z"/>
      <path class="cls-2" d="M79.11,75.2c-.14,0-.28-.02-.42-.07-.52-.18-.86-.68-.84-1.22l.3-12.7c.02-.7.59-1.26,1.3-1.24.7.02,1.25.6,1.24,1.3l-.21,8.84,5.77-7.47c.43-.55,1.22-.65,1.78-.23.55.43.65,1.22.23,1.78l-8.13,10.52c-.24.32-.62.49-1,.49Z"/>
      <circle class="cls-2" cx="79.45" cy="59.35" r="2.46"/>
      <circle class="cls-2" cx="88.44" cy="61.59" r="2.46"/>
      <g>
        <path class="cls-2" d="M103.69,0h-6.44c-.23,0-.44.1-.57.28l-4.52,6.2c-.34.47,0,1.13.57,1.13h10.95c1.16,0,2.1.95,2.1,2.11v94.21c0,1.16-.94,2.1-2.1,2.1H9.71c-1.16,0-2.1-.95-2.1-2.11V9.7c.01-1.16.95-2.1,2.11-2.1h59.45c.23.01.44-.09.57-.28l4.52-6.2c.34-.47,0-1.13-.57-1.13H9.71C4.35,0,.01,4.34.01,9.7v93.98c-.01,5.36,4.33,9.7,9.69,9.7h93.99c5.36,0,9.7-4.33,9.7-9.69V9.71C113.38,4.35,109.04,0,103.69,0Z"/>
        <path class="cls-1" d="M76,9.41h7.24c.23,0,.44-.11.57-.29l5.83-7.99c.34-.47,0-1.13-.57-1.13h-7.24c-.23,0-.44.11-.57.29l-5.83,7.99c-.34.47,0,1.13.57,1.13Z"/>
      </g>
    </g>
  </g>
</svg>