<?xml version="1.0" encoding="UTF-8"?>
<svg id="Layer_2" data-name="Layer 2" xmlns="http://www.w3.org/2000/svg" viewBox="0 0 113.38 113.38">
  <defs>
    <style>
      .cls-1 {
        fill: #ff4222;
      }

      .cls-1, .cls-2 {
        stroke-width: 0px;
      }

      .cls-2 {
        fill: #2922ff;
      }
    </style>
  </defs>
  <g id="Layer_1-2" data-name="Layer 1">
    <g>
      <path class="cls-2" d="M103.69,0h-6.44c-.23,0-.44.1-.58.28l-4.52,6.2c-.34.47,0,1.13.58,1.13h10.95c1.16.01,2.09.95,2.09,2.1v75.07c-1.83-.58-3.66-1.09-5.45-1.52-11.52-2.78-21.7-2.59-31.27-1.31l7.91-7.91c.15-.15.36-.24.58-.24h2.9c.44,0,.81-.37.81-.81s.36-.81.81-.81h1.22c.44,0,.81-.37.81-.81v-2.7c0-.44-.37-.81-.81-.81h-1.22c-.45,0-.81-.36-.81-.81v-4.72c0-.45.36-.81.81-.81h1.22c.44,0,.81-.36.81-.81v-2.41c0-.44.36-.81.81-.81h.54c.45,0,.81-.36.81-.81v-1.51c0-.44-.36-.81-.81-.81h-3.37c-.45,0-.81-.36-.81-.81v-10.61c0-.97.78-1.76,1.76-1.76h6.78c.63,0,1.2-.33,1.52-.86l10.28-17.41c.42-.72.29-1.64-.33-2.2l-1.53-1.38c-.72-.66-1.84-.6-2.49.13l-9.79,10.94c-.34.37-.81.59-1.31.59h-7.89c-.39,0-.77-.13-1.08-.37l-20.38-15.87c-.63-.49-1.52-.49-2.16,0l-20.49,15.87c-.31.24-.69.37-1.08.37h-7.24c-.55,0-1.06-.25-1.39-.68l-8.24-10.67c-.62-.81-1.8-.92-2.56-.24l-1.5,1.35c-.61.54-.76,1.43-.37,2.15l9.42,17.37c.31.57.9.92,1.54.92h6.14c.97,0,1.76.79,1.76,1.76v10.61c0,.45-.37.81-.81.81h-3.37c-.45,0-.81.37-.81.81v1.51c0,.45.36.81.81.81h.54c.45,0,.81.37.81.81v2.41c0,.45.36.81.81.81h1.22c.44,0,.81.36.81.81v4.72c0,.45-.37.81-.81.81h-1.22c-.45,0-.81.37-.81.81v2.7c0,.44.36.81.81.81h1.22c.44,0,.81.36.81.81s.36.81.81.81h3.7c.21,0,.42.08.57.24l10.8,10.8c.33.33.51.78.51,1.24v.03c-4.09.82-8.12,1.54-12.29,2.03-9.83,1.14-18.46.59-27.11-1.71V9.7c0-1.16.95-2.1,2.1-2.1h59.45c.22.01.44-.09.57-.28l4.52-6.2c.34-.47,0-1.13-.58-1.13H9.71C4.35,0,.01,4.34.01,9.7v93.98c-.01,5.36,4.33,9.7,9.69,9.7h93.99c5.36.01,9.7-4.33,9.7-9.69V9.71C113.38,4.35,109.04,0,103.69,0ZM47.02,99.67c-3.95.78-7.92,1.49-11.97,1.95-8.56.99-17.5.94-27.43-1.6v-7.98c5.74,1.41,11.49,2.11,17.55,2.11,3.29,0,6.67-.21,10.19-.61,3.95-.46,7.84-1.14,11.66-1.88v8.01ZM43.64,29.1l11.1-8.73c.64-.5,1.53-.5,2.17,0l11.22,8.74c.8.62.36,1.9-.65,1.9h-23.17c-1.01,0-1.45-1.28-.66-1.9ZM35.77,42.34c0-.63.51-1.14,1.14-1.14h39.58c.63,0,1.14.51,1.14,1.14v6.89c0,.63-.51,1.14-1.14,1.14h-39.58c-.63,0-1.14-.51-1.14-1.14v-6.89ZM47.82,77.58c0,.27-.33.41-.52.22l-3.45-3.45c-.19-.19-.05-.52.22-.52h3.45c.17,0,.31.14.31.3v3.45ZM50.76,66.57c0,.63-.51,1.14-1.14,1.14h-12.78c-.63,0-1.14-.51-1.14-1.14v-3.78c0-.63.51-1.14,1.14-1.14h12.78c.63,0,1.14.51,1.14,1.14v3.78ZM59.31,104.93c0,.52-.42.93-.93.93h-4.87c-.51,0-.93-.42-.93-.93v-29.02c0-.52.42-.93.93-.93h4.87c.52,0,.93.42.93.93v29.02ZM62.56,66.57v-3.78c0-.63.51-1.14,1.14-1.14h12.78c.63,0,1.14.51,1.14,1.14v3.78c0,.63-.51,1.14-1.14,1.14h-12.78c-.63,0-1.14-.51-1.14-1.14ZM68.83,74.35l-3.45,3.45c-.2.2-.52.06-.52-.22v-3.45c0-.17.14-.3.31-.3h3.45c.27,0,.41.33.22.52ZM105.77,98.42c-2.63-.86-4.73-1.41-6.08-1.74-12.94-3.12-24.15-2.36-34.83-.56v-8.02c10.5-1.79,21.59-2.6,34.2.44,2.21.53,4.47,1.19,6.72,1.96v7.91Z"/>
      <path class="cls-1" d="M76,9.41h7.24c.23,0,.44-.11.57-.29l5.83-7.99c.34-.47,0-1.13-.57-1.13h-7.24c-.23,0-.44.11-.57.29l-5.83,7.99c-.34.47,0,1.13.57,1.13Z"/>
    </g>
  </g>
</svg>