<svg width="104" height="104" viewBox="0 0 104 104" fill="none" xmlns="http://www.w3.org/2000/svg">
<g clip-path="url(#clip0_2071_2327)">
<path d="M95.0968 0H89.1935C88.9892 0 88.7849 0.0967742 88.6667 0.258065L84.5161 5.94624C84.2043 6.37634 84.5161 6.97849 85.043 6.97849H95.086C96.1505 6.97849 97.0107 7.84946 97.0107 8.91398V95.3333C96.9892 95.7419 96.8817 96.3441 96.4516 96.6989C95.3548 97.5806 92.7204 96.4516 91.3763 94.7419C90.2473 93.3011 90.172 91.6452 90.1935 90.8495L90.8387 49.0538C90.8387 48.828 90.6774 48.6344 90.4516 48.6022L86.8064 48.1398C86.5484 48.1075 86.3226 48.3011 86.3118 48.5591L85.6129 62.7742C85.5914 63.2366 84.9677 63.3548 84.7742 62.9462L81.1398 55.3118C81.0645 55.1613 80.914 55.0645 80.7419 55.0645H76.4193C76.1183 55.0645 75.9032 55.3548 76 55.6344L81.2366 72.7097C82.6237 77.2366 83.086 81.9892 82.6021 86.6989C82.3548 89.086 80.3441 90.7527 78.1183 90.7527C77.5914 90.7527 77.0645 90.6559 76.5376 90.4624L49.3871 80.3333C48.2581 79.914 47.5161 78.8387 47.5161 77.6344V68.2688L76.4193 78.9355C77 79.1505 77.6021 78.7204 77.6021 78.1075V72.3011C77.6021 72.0323 77.4839 71.7849 77.2688 71.6129L55.6021 54.1828C55.6021 54.1828 67.7742 54.3979 67.9892 42.9032C67.9892 42.7312 67.8495 42.5806 67.6667 42.5806H58.0323C58.0323 41.8387 58.3333 41.172 58.8172 40.6882C59.3011 40.2043 59.9677 39.9032 60.7097 39.8925C62.5699 39.8925 64.9892 39.871 66.5699 39.828C72.6989 39.6452 77.0753 35.086 77.2581 28.7419C77.2581 28.5699 77.1183 28.4194 76.9355 28.4194H61.6882C61.6882 27.6667 61.9892 26.9785 62.4839 26.4839C62.9785 25.9892 63.6667 25.6774 64.4194 25.6774C68.5054 25.6559 75.7849 25.6237 76.4086 25.6129C83.0215 25.4731 87.6667 20.8387 87.6667 14.3011C87.6667 14.129 87.5269 13.9892 87.3548 13.9892C84.6344 13.9892 64.9355 14.0215 57.4194 14.0108H57.4086C53.8495 14.2258 50.4301 15.4624 47.5484 17.5806L36.1935 29.1075C35.9892 29.2581 35.7097 29.1075 35.7097 28.8602V23.1613C35.7097 20.1075 37.2473 17.2688 39.8064 15.6022L40.129 15.3978C40.7742 14.9785 40.4731 13.9785 39.7097 13.9785H24.172C17.4946 13.9785 12.0753 19.3871 12.0753 26.0753V45.9892C12.0753 51.5806 15.6774 56.5269 21 58.2473L32.5161 61.957C37.7957 63.6667 41.3763 68.5699 41.3763 74.129V76.7419C41.3763 77.0538 41.0645 77.2581 40.7742 77.1613L33.2043 74.3548C32.9462 74.2581 32.7742 74.0108 32.7742 73.7312V70.6237C32.7742 67.2473 30.1613 64.4731 26.8387 64.2258C26.5806 64.2043 26.3548 64.4086 26.3548 64.6667V71.8065L12.6774 66.7312C12.3871 66.6237 12.0753 66.8387 12.0753 67.1505V74.0323C12.0753 74.2151 12.1935 74.3871 12.3656 74.4516L22.0108 78.0215C22.3441 78.1398 22.4086 78.5914 22.1183 78.7957L12.2581 85.8172C12.1398 85.9032 12.0753 86.0323 12.0753 86.1828V90.1828C12.0753 90.5054 12.3978 90.7204 12.6882 90.5914L25.9892 84.9462C30.4731 83.0538 35.5161 82.9462 40.086 84.6559L73.7204 97.3011H27.5484H8.90322C7.83871 97.3011 6.97849 96.4409 6.97849 95.3763V8.90323C6.97849 7.83871 7.84946 6.97849 8.91398 6.97849H63.4409C63.6452 6.98925 63.8495 6.89247 63.9677 6.72043L68.1183 1.04301C68.4301 0.612903 68.1183 0.0107527 67.5914 0.0107527H8.90322C3.98925 0 0 3.9785 0 8.89247V95.0968C0 100.011 3.96774 103.989 8.88172 103.989H95.086C100 103.989 103.978 100.022 103.978 95.1075V8.90323C104 3.98925 100.011 0 95.0968 0ZM26.5269 24.1613C25.1075 24.1613 23.957 23.0108 23.957 21.5914C23.957 20.172 25.1075 19.0215 26.5269 19.0215C27.9462 19.0215 29.0968 20.172 29.0968 21.5914C29.0968 23.0108 27.9462 24.1613 26.5269 24.1613Z" fill="#2922FF"/>
<path d="M69.7097 8.63441H76.3442C76.5485 8.63441 76.7528 8.53763 76.871 8.36559L82.2259 1.03226C82.5377 0.60215 82.2259 0 81.699 0H75.0646C74.8603 0 74.656 0.0967742 74.5377 0.268817L69.1829 7.60215C68.871 8.03226 69.1829 8.63441 69.7097 8.63441Z" fill="#EA5335"/>
</g>
<defs>
<clipPath id="clip0_2071_2327">
<rect width="104" height="104" fill="white"/>
</clipPath>
</defs>
</svg>
