<svg width="104" height="104" viewBox="0 0 104 104" fill="none" xmlns="http://www.w3.org/2000/svg">
<g clip-path="url(#clip0_2071_2346)">
<path d="M95.1031 0.00995183L89.1917 0C88.9827 0 88.787 0.0995184 88.6642 0.2687L84.5143 5.95451C84.1992 6.38576 84.5077 6.98951 85.0417 6.98951L95.0898 6.99946C96.1513 6.99946 97.0105 7.85863 97.0105 8.92016V95.3353C97.0105 96.3968 96.1513 97.256 95.0898 97.256L8.91021 97.246C7.84868 97.246 6.98951 96.3868 6.98951 95.3253L6.99946 8.89694C6.99946 7.83541 7.85863 6.97624 8.92016 6.97624L63.4496 6.98951C63.6586 6.98951 63.8543 6.88999 63.977 6.72081L68.1269 1.03831C68.4421 0.607062 68.1336 0.00331728 67.5995 0.00331728H8.90358C3.99069 0 0.00995184 3.98405 0.00995184 8.89694L0 95.0931C0 100.006 3.98073 103.987 8.89362 103.99H20.9984L95.0997 104C100.013 104 103.997 100.016 103.997 95.1031V8.90358C104 3.99069 100.016 0.00995183 95.1031 0.00995183Z" fill="#2822FF"/>
<path d="M69.7089 8.63488H76.3435C76.5525 8.63488 76.7482 8.53536 76.8709 8.36618L82.2217 1.03499C82.5368 0.603745 82.2283 0 81.6942 0H75.0597C74.8507 0 74.655 0.0995184 74.5322 0.2687L69.1815 7.59989C68.8663 8.03113 69.1748 8.63488 69.7089 8.63488Z" fill="#EE5335"/>
<path d="M90.2629 13.7436V31.7531C90.2629 31.7531 85.6983 31.7066 85.622 26.4985C85.5988 24.8332 86.0333 22.6438 87.2242 19.7578C87.9408 18.0162 88.9326 16.0225 90.2629 13.7402V13.7436Z" stroke="#2822FF" stroke-width="4.97592" stroke-linecap="round" stroke-linejoin="round"/>
<path d="M72.2539 13.7441H90.2634C87.9811 15.0744 85.9841 16.0662 84.2459 16.7828C81.3632 17.9704 79.1738 18.4049 77.5118 18.3817C72.3004 18.3087 72.2572 13.7441 72.2572 13.7441H72.2539Z" stroke="#2822FF" stroke-width="4.97592" stroke-linecap="round" stroke-linejoin="round"/>
<path d="M77.5081 18.3836C79.1701 18.4069 81.3628 17.9723 84.2422 16.7847C85.9838 16.0682 87.9774 15.0763 90.2597 13.7461C88.9295 16.0284 87.9376 18.0221 87.2211 19.7636C86.0302 22.6464 85.5956 24.8391 85.6189 26.5043C83.3565 28.3886 79.9861 28.2691 77.8597 26.1461C75.7334 24.023 75.6173 20.6527 77.5048 18.387L77.5081 18.3836Z" stroke="#2822FF" stroke-width="4.97592" stroke-linecap="round" stroke-linejoin="round"/>
<path d="M65.3527 47.723C60.7517 47.723 57.0098 43.9811 57.0098 39.3801C57.0098 34.779 60.7517 31.0371 65.3527 31.0371C69.9538 31.0371 73.6957 34.779 73.6957 39.3801C73.6957 43.9811 69.9538 47.723 65.3527 47.723ZM65.3527 37.0115C64.0457 37.0115 62.9809 38.0764 62.9809 39.3834C62.9809 40.6904 64.0457 41.7552 65.3527 41.7552C66.6597 41.7552 67.7246 40.6904 67.7246 39.3834C67.7246 38.0764 66.6597 37.0115 65.3527 37.0115Z" fill="#2822FF"/>
<path d="M32.4961 40.9453C35.4549 40.9453 37.8535 38.5467 37.8535 35.5879C37.8535 32.6291 35.4549 30.2305 32.4961 30.2305C29.5373 30.2305 27.1387 32.6291 27.1387 35.5879C27.1387 38.5467 29.5373 40.9453 32.4961 40.9453Z" fill="#2822FF"/>
<path d="M69.0547 76.9687C72.0135 76.9687 74.4121 74.5701 74.4121 71.6113C74.4121 68.6525 72.0135 66.2539 69.0547 66.2539C66.0959 66.2539 63.6973 68.6525 63.6973 71.6113C63.6973 74.5701 66.0959 76.9687 69.0547 76.9687Z" fill="#2822FF"/>
<path d="M62.9811 63.888C63.9026 63.888 64.6497 63.1409 64.6497 62.2194C64.6497 61.2978 63.9026 60.5508 62.9811 60.5508C62.0596 60.5508 61.3125 61.2978 61.3125 62.2194C61.3125 63.1409 62.0596 63.888 62.9811 63.888Z" fill="#2822FF"/>
<path d="M77.8463 80.72C78.7679 80.72 79.5149 79.9729 79.5149 79.0514C79.5149 78.1299 78.7679 77.3828 77.8463 77.3828C76.9248 77.3828 76.1777 78.1299 76.1777 79.0514C76.1777 79.9729 76.9248 80.72 77.8463 80.72Z" fill="#2822FF"/>
<path d="M42.7272 42.6145C43.6487 42.6145 44.3958 41.8675 44.3958 40.9459C44.3958 40.0244 43.6487 39.2773 42.7272 39.2773C41.8056 39.2773 41.0586 40.0244 41.0586 40.9459C41.0586 41.8675 41.8056 42.6145 42.7272 42.6145Z" fill="#2822FF"/>
<path d="M24.7506 27.8333C25.6722 27.8333 26.4192 27.0862 26.4192 26.1647C26.4192 25.2431 25.6722 24.4961 24.7506 24.4961C23.8291 24.4961 23.082 25.2431 23.082 26.1647C23.082 27.0862 23.8291 27.8333 24.7506 27.8333Z" fill="#2822FF"/>
<path d="M68.5046 36.4072L64.5736 31.9156C64.3945 32.0715 64.3447 32.1511 64.3447 32.1544C64.5471 31.8227 64.6731 30.3465 62.8486 27.5335C59.5579 22.4547 60.0654 18.0029 61.1767 15.4851C61.462 14.8382 62.2648 14.6093 62.842 15.014L66.0299 17.2366C66.4114 17.502 66.5872 17.9764 66.4744 18.4275C66.219 19.4559 66.0796 21.5425 67.8577 24.2858C72.9564 32.1544 68.9756 35.9958 68.5046 36.4072Z" fill="#2822FF"/>
<path d="M85.0814 43.9271C82.8356 43.9271 80.1453 43.2835 77.2526 41.4093C74.4396 39.5881 72.9634 39.7141 72.6317 39.9132C72.635 39.9132 72.7146 39.8601 72.8705 39.6843L68.3789 35.7533C68.7902 35.2823 72.6317 31.3015 80.5002 36.4002C83.2436 38.1782 85.3302 38.0389 86.3586 37.7835C86.8097 37.6707 87.2841 37.8465 87.5495 38.228L89.772 41.4159C90.1701 41.9898 89.9578 42.7893 89.3176 43.0746C88.2328 43.5589 86.7865 43.9271 85.0814 43.9271Z" fill="#2822FF"/>
<path d="M36.2047 55.2368C34.6787 55.2368 33.1826 55.0212 31.7197 54.5932C24.0037 52.3275 19.5884 44.5518 18.1985 40.3157C17.8269 39.1812 17.0308 37.6552 16.1882 36.0397C14.712 33.2067 13.0401 29.9956 12.4563 26.748C11.4744 21.2679 14.0884 18.0667 16.4569 16.3483C23.3734 11.3227 31.5538 15.1309 37.1932 19.2111C43.4629 23.7459 49.1586 30.334 51.5902 33.1503C55.6539 37.8509 58.6427 36.7164 58.7655 36.6667C58.7058 36.6899 58.6726 36.7098 58.6726 36.7098L61.3198 42.0606C61.0345 42.1999 54.2871 45.4011 47.0721 37.0548C34.5394 22.5583 25.4202 17.2141 19.9666 21.1783C16.9943 23.3378 18.0326 26.6584 21.4859 33.2797C22.4446 35.1175 23.3469 36.8524 23.8743 38.4514C24.8297 41.3639 28.0541 47.2919 33.4049 48.8643C37.3359 50.0187 41.9071 48.6255 46.9991 44.7177C47.4801 44.3495 48.1668 44.4291 48.5483 44.8968L50.9035 47.7961C51.3016 48.2871 51.2154 49.0069 50.7144 49.3917C45.6655 53.2796 40.809 55.2368 36.208 55.2368H36.2047Z" fill="#2822FF"/>
<path d="M79.5048 90.9671C78.8148 90.9671 78.0751 90.9041 77.2889 90.7614C74.164 90.2008 71.0889 88.5986 68.3754 87.1854C66.8395 86.3826 65.3865 85.6263 64.3117 85.2747C60.2414 83.9378 52.7709 79.695 50.5881 72.2742C48.9295 66.6216 50.5947 60.4946 55.5474 54.0558C55.9322 53.5548 56.6554 53.4686 57.1431 53.8667L60.0424 56.2219C60.5134 56.6034 60.5897 57.2901 60.2215 57.7711C56.5426 62.5812 55.229 66.8903 56.3171 70.5924C57.8032 75.6479 63.4127 78.6965 66.1727 79.6021C67.7119 80.1063 69.3739 80.9722 71.132 81.891C78.8712 85.9249 80.8981 85.6097 82.5202 83.3805C86.2555 78.2387 81.1635 69.5873 67.3802 57.6749C59.3325 50.7186 62.4308 44.1802 62.5668 43.9082L67.9209 46.5554C67.9209 46.5554 67.9408 46.5222 67.9673 46.4592C67.9209 46.5753 66.8826 49.3519 71.2879 53.1601C73.9782 55.4855 80.2778 60.9325 84.6201 66.9334C88.5444 72.3572 92.2034 80.2224 87.3568 86.8935C85.937 88.8441 83.4822 90.9704 79.5081 90.9704L79.5048 90.9671Z" fill="#2822FF"/>
<path d="M29.4216 72.5631C28.4696 72.5631 27.4744 72.4569 26.4494 72.2114C19.1613 70.4699 18.6272 64.8537 18.2723 61.1384C18.0865 59.2044 17.9273 57.5325 17.0979 56.597C14.6299 53.8204 13.5087 50.7884 13.7641 47.584C14.1986 42.1702 18.4614 38.551 18.9457 38.1562L22.7174 42.7839L20.8299 40.4684L22.7307 42.7706C22.7041 42.7938 19.9342 45.1391 19.7153 48.0882C19.6025 49.6174 20.2062 51.1003 21.563 52.6262C23.6894 55.018 23.9713 57.967 24.2168 60.5678C24.5784 64.3462 24.7841 66.0944 27.8393 66.4029C33.0541 66.927 36.7528 62.6079 38.02 61.7156C38.4778 61.3938 39.0981 61.4568 39.4796 61.8615L42.0538 64.6016C42.5083 65.0859 42.4453 65.8588 41.9145 66.2602C40.3322 67.4545 33.6777 72.5631 29.4216 72.5631Z" fill="#2822FF"/>
<path d="M55.4871 90.0118C52.5016 90.0118 49.6885 88.9204 47.2669 86.7642C46.3348 85.9349 44.6628 85.7756 42.7256 85.5899C39.0102 85.2349 33.394 84.6975 31.6525 77.4128C30.3123 71.8033 36.3929 64.1569 37.8558 62.2163C38.2605 61.6822 39.0334 61.6126 39.5211 62.0737L42.2545 64.6578C42.6592 65.0393 42.7189 65.6597 42.4005 66.1141C41.5114 67.378 37.0928 71.2095 37.461 76.0228C37.6966 79.0847 39.5177 79.2837 43.2961 79.6453C45.8969 79.8941 48.8459 80.1761 51.2377 82.2991C54.1469 84.8866 56.9766 84.0805 58.8542 83.2512C61.3189 82.1598 63.0936 80.3751 63.1102 80.3552L67.3928 84.5184C67.1341 84.7838 64.7622 87.1656 61.2691 88.7114C59.3086 89.5806 57.3647 90.0085 55.4904 90.0085L55.4871 90.0118Z" fill="#2822FF"/>
<path d="M13.7871 90.5017V72.4922C13.7871 72.4922 18.3517 72.5386 18.428 77.7468C18.4512 79.412 18.0166 81.6014 16.8257 84.4875C16.1092 86.229 15.1173 88.2227 13.7871 90.505V90.5017Z" stroke="#2822FF" stroke-width="4.97592" stroke-linecap="round" stroke-linejoin="round"/>
<path d="M31.7966 90.4978H13.7871C16.0694 89.1676 18.0664 88.1757 19.8047 87.4592C22.6874 86.2716 24.8768 85.837 26.5387 85.8603C31.7502 85.9332 31.7933 90.4978 31.7933 90.4978H31.7966Z" stroke="#2822FF" stroke-width="4.97592" stroke-linecap="round" stroke-linejoin="round"/>
<path d="M26.5426 85.8598C24.8807 85.8366 22.688 86.2711 19.8086 87.4587C18.067 88.1752 16.0733 89.1671 13.791 90.4973C15.1212 88.2151 16.1131 86.2214 16.8296 84.4798C18.0205 81.5971 18.4551 79.4044 18.4319 77.7391C20.6943 75.8549 24.0646 75.9743 26.191 78.0974C28.3174 80.2204 28.4335 83.5908 26.5459 85.8565L26.5426 85.8598Z" stroke="#2822FF" stroke-width="4.97592" stroke-linecap="round" stroke-linejoin="round"/>
</g>
<defs>
<clipPath id="clip0_2071_2346">
<rect width="104" height="104" fill="white"/>
</clipPath>
</defs>
</svg>
