<svg width="33" height="33" viewBox="0 0 33 33" fill="none" xmlns="http://www.w3.org/2000/svg">
<path d="M32.3405 16.2022C32.3069 18.3209 32.2733 20.4397 32.2228 22.5584C32.1892 24.0046 31.9706 25.4171 31.3989 26.7623C30.4404 28.982 28.8261 30.4786 26.5392 31.2857C25.3621 31.7061 24.1513 31.8911 22.907 31.9079C19.6111 31.9584 16.3153 31.992 13.0194 31.992C11.691 31.992 10.3457 31.9415 9.01731 31.8407C7.40302 31.7229 5.8728 31.2689 4.52755 30.3609C2.67784 29.1165 1.55119 27.3677 1.09717 25.1985C0.929017 24.3913 0.811308 23.5674 0.777677 22.7266C0.609521 19.0608 0.659968 15.395 0.693599 11.746C0.693599 10.6194 0.760861 9.47592 0.87857 8.34928C1.09717 6.29778 1.83706 4.48169 3.33365 3.00192C4.61163 1.74075 6.15866 1.01768 7.90748 0.681373C9.16865 0.445955 10.4635 0.395508 11.7414 0.395508C15.1718 0.395508 18.5854 0.395508 22.0158 0.412323C23.2937 0.412323 24.5717 0.496401 25.8161 0.849529C29.2633 1.82483 31.2811 4.11175 31.9874 7.59258C32.2396 8.88738 32.2564 10.199 32.2733 11.5106C32.2901 13.0745 32.2733 14.6383 32.2733 16.2022C32.2901 16.2022 32.3069 16.2022 32.3405 16.2022ZM21.6626 29.0997C22.7556 29.0997 23.8318 29.0493 24.908 28.797C26.4551 28.4271 27.6658 27.6199 28.4729 26.2411C28.927 25.4675 29.1792 24.6268 29.2465 23.7524C29.3474 22.4239 29.4314 21.0955 29.4314 19.7671C29.4482 17.0598 29.4314 14.3524 29.4314 11.6451C29.4314 10.4008 29.4146 9.17324 29.1456 7.9457C28.742 6.07917 27.7331 4.68348 25.9338 3.90996C25.093 3.55684 24.2018 3.4055 23.2937 3.33823C20.3174 3.15326 17.341 3.22053 14.3647 3.22053C13.0194 3.22053 11.6742 3.25416 10.3289 3.3046C9.47133 3.32142 8.61374 3.42231 7.77296 3.65773C6.24274 4.07812 5.08247 4.96935 4.3594 6.39867C3.87174 7.35716 3.66996 8.38291 3.63633 9.45911C3.56906 10.9893 3.51862 12.5195 3.51862 14.0666C3.51862 16.8411 3.55225 19.6157 3.60269 22.3903C3.60269 23.1302 3.7204 23.8869 3.87174 24.6268C4.22487 26.2915 5.14973 27.5527 6.67995 28.343C7.6048 28.8138 8.61374 29.0324 9.6563 29.0661C11.9264 29.1502 19.9138 29.167 21.6458 29.1502L21.6626 29.0997Z" fill="#F5F5F6"/>
<path d="M24.622 16.2022C24.5884 20.7255 20.9562 24.3241 16.4664 24.3073C11.9262 24.3073 8.36133 20.6078 8.36133 16.1853C8.36133 11.6788 12.0103 8.0466 16.5169 8.06341C21.0235 8.06341 24.622 11.7292 24.622 16.219V16.2022ZM11.22 16.1853C11.22 19.0944 13.5742 21.4486 16.4833 21.4486C19.3923 21.4486 21.7465 19.0944 21.7465 16.1853C21.7465 13.2931 19.3923 10.9221 16.5001 10.9221C13.5742 10.9221 11.22 13.2762 11.22 16.1853Z" fill="#F5F5F6"/>
<path d="M24.9414 9.64413C23.9157 9.64413 23.0413 8.80335 23.0413 7.76079C23.0413 6.71822 23.8652 5.86063 24.9246 5.84381C25.9504 5.82699 26.8248 6.68459 26.8416 7.72716C26.8416 8.78654 26.0176 9.62732 24.9414 9.64413Z" fill="#F5F5F6"/>
</svg>
