<svg width="144" height="56" viewBox="0 0 144 56" fill="none" xmlns="http://www.w3.org/2000/svg">
<g clip-path="url(#clip0_2030_1531)">
<path d="M138.335 0H134.59C134.478 0 134.373 0.0526415 134.306 0.143887L132.07 3.20411C131.902 3.43573 132.067 3.76211 132.355 3.76211H138.324C138.896 3.76211 139.36 4.22536 139.36 4.79739V51.3325C139.36 51.9045 138.896 52.3677 138.324 52.3677H99.7767C99.6644 52.3677 99.5591 52.4204 99.4924 52.5116L97.3552 55.442C97.1867 55.6736 97.3517 56 97.6395 56H138.331C140.977 56 143.122 53.8557 143.122 51.2096V4.79037C143.122 2.14426 140.977 0 138.331 0H138.335Z" fill="#F5F5F6"/>
<path d="M55.628 3.76211H120.795C120.907 3.76211 121.012 3.70947 121.079 3.61822L123.314 0.558C123.483 0.326377 123.318 0 123.03 0H57.8635C57.7512 0 57.6459 0.0526415 57.5792 0.143887L55.3437 3.20411C55.1753 3.43573 55.3402 3.76211 55.628 3.76211Z" fill="#F5F5F6"/>
<path d="M88.1534 52.3678H21.7269C21.6146 52.3678 21.5093 52.4204 21.4426 52.5117L19.3054 55.4421C19.1369 55.6737 19.3019 56.0001 19.5897 56.0001H86.0162C86.1285 56.0001 86.2338 55.9474 86.3004 55.8562L88.4377 52.9258C88.6061 52.6942 88.4412 52.3678 88.1534 52.3678Z" fill="#F5F5F6"/>
<path d="M10.0966 52.3677H4.79739C4.22536 52.3677 3.76211 51.9045 3.76211 51.3325V4.79739C3.76211 4.22536 4.22536 3.76211 4.79739 3.76211H44.075C44.1873 3.76211 44.2925 3.70947 44.3592 3.61822L46.5947 0.558C46.7632 0.326377 46.5982 0 46.3105 0L4.79037 0.00701886C2.14426 0.00701886 0 2.15128 0 4.79739V51.2096C0 53.8557 2.14426 56 4.79037 56H7.9629C8.0752 56 8.18049 55.9474 8.24716 55.8561L10.3809 52.9257C10.5494 52.6941 10.3809 52.3677 10.0966 52.3677Z" fill="#F5F5F6"/>
<path d="M24.2186 7.52417H27.2999C27.4894 7.52417 27.6403 7.67858 27.6403 7.86458V13.7359C27.6403 13.9254 27.7947 14.0763 27.9807 14.0763H34.0239C34.2134 14.0763 34.3644 13.9219 34.3644 13.7359V7.86458C34.3644 7.67508 34.5188 7.52417 34.7048 7.52417H37.786C37.9756 7.52417 38.1265 7.67858 38.1265 7.86458V23.9343C38.1265 24.1238 37.972 24.2747 37.786 24.2747H34.7048C34.5153 24.2747 34.3644 24.1203 34.3644 23.9343V17.9647C34.3644 17.7752 34.2099 17.6243 34.0239 17.6243H27.9807C27.7912 17.6243 27.6403 17.7787 27.6403 17.9647V23.9343C27.6403 24.1238 27.4859 24.2747 27.2999 24.2747H24.2186C24.0291 24.2747 23.8782 24.1203 23.8782 23.9343V7.86809C23.8782 7.67858 24.0326 7.52768 24.2186 7.52768V7.52417Z" fill="#F5F5F6"/>
<path d="M59.6007 7.52417H63.8857C64.0226 7.52417 64.149 7.6084 64.2016 7.73474L68.3147 17.6454C68.4305 17.9261 68.827 17.9261 68.9428 17.6454L73.0805 7.73474C73.1331 7.6084 73.2559 7.52417 73.3963 7.52417H77.6357C77.8252 7.52417 77.9761 7.67858 77.9761 7.86458V23.9343C77.9761 24.1238 77.8217 24.2747 77.6357 24.2747H74.5544C74.3649 24.2747 74.214 24.1203 74.214 23.9343V15.6766C74.214 15.3046 73.7016 15.2028 73.5577 15.5432L69.9781 24.0676C69.9255 24.194 69.8027 24.2782 69.6623 24.2782H67.5426C67.4057 24.2782 67.2794 24.194 67.2267 24.0676L63.6717 15.5537C63.5278 15.2098 63.0154 15.3116 63.0154 15.6836V23.9343C63.0154 24.1238 62.861 24.2747 62.675 24.2747H59.5937C59.4042 24.2747 59.2533 24.1203 59.2533 23.9343V7.86809C59.2533 7.67858 59.4077 7.52768 59.5937 7.52768L59.6007 7.52417Z" fill="#F5F5F6"/>
<path d="M7.86819 31.8551H12.1532C12.2901 31.8551 12.4164 31.9393 12.4691 32.0657L16.5821 41.9763C16.6979 42.2571 17.0945 42.2571 17.2103 41.9763L21.3479 32.0657C21.4006 31.9393 21.5234 31.8551 21.6638 31.8551H25.9032C26.0927 31.8551 26.2436 32.0095 26.2436 32.1955V48.2652C26.2436 48.4547 26.0892 48.6056 25.9032 48.6056H22.8219C22.6324 48.6056 22.4815 48.4512 22.4815 48.2652V40.0075C22.4815 39.6355 21.9691 39.5337 21.8252 39.8742L18.2456 48.3986C18.1929 48.5249 18.0701 48.6091 17.9297 48.6091H15.81C15.6732 48.6091 15.5468 48.5249 15.4942 48.3986L11.9391 39.8847C11.7952 39.5408 11.2829 39.6425 11.2829 40.0145V48.2652C11.2829 48.4547 11.1284 48.6056 10.9424 48.6056H7.86117C7.67166 48.6056 7.52075 48.4512 7.52075 48.2652V32.1955C7.52075 32.006 7.67517 31.8551 7.86117 31.8551H7.86819Z" fill="#F5F5F6"/>
<path d="M28.4404 42.0991V32.1955C28.4404 32.006 28.5948 31.8551 28.7808 31.8551H31.8621C32.0516 31.8551 32.2025 32.0095 32.2025 32.1955V42.05C32.2025 43.91 33.5853 45.3032 35.4768 45.2786C37.2526 45.2576 38.6599 43.7591 38.6599 41.9833V32.192C38.6599 32.0025 38.8143 31.8516 39.0003 31.8516H42.0816C42.2711 31.8516 42.422 32.006 42.422 32.192V42.0956C42.422 45.9805 39.3863 48.8934 35.4312 48.8934C31.4761 48.8934 28.4404 45.9805 28.4404 42.0956V42.0991Z" fill="#F5F5F6"/>
<path d="M44.082 40.2321C44.082 35.3049 47.8933 31.5638 52.9433 31.5638C57.9934 31.5638 61.8047 35.3014 61.8047 40.2321C61.8047 45.1629 57.9934 48.9004 52.9433 48.9004C47.8933 48.9004 44.082 45.1629 44.082 40.2321ZM57.9443 40.2321C57.9443 37.3439 55.7825 35.182 52.9433 35.182C50.1042 35.182 47.9424 37.3439 47.9424 40.2321C47.9424 43.1204 50.1042 45.2822 52.9433 45.2822C55.7825 45.2822 57.9443 43.1204 57.9443 40.2321ZM50.9886 26.998H54.8981C55.0104 26.998 55.1192 27.0542 55.1824 27.149L57.1301 30.0583C57.281 30.2864 57.1196 30.5882 56.8458 30.5882H54.3331C54.2243 30.5882 54.1225 30.5356 54.0558 30.4478L53.2206 29.2932C53.0837 29.1037 52.803 29.1037 52.6696 29.2932L51.8344 30.4478C51.7712 30.5356 51.6659 30.5882 51.5571 30.5882H49.0444C48.7706 30.5882 48.6092 30.2829 48.7601 30.0583L50.7078 27.149C50.771 27.0542 50.8763 26.998 50.9921 26.998H50.9886Z" fill="#F5F5F6"/>
<path d="M63.8015 31.8551H67.0688C67.1811 31.8551 67.2864 31.9113 67.3495 32.006L73.5928 41.1867C73.7823 41.4639 74.2175 41.3306 74.2175 40.9937V32.199C74.2175 32.0095 74.3719 31.8586 74.5579 31.8586H77.6392C77.8287 31.8586 77.9796 32.013 77.9796 32.199V48.2687C77.9796 48.4582 77.8252 48.6091 77.6392 48.6091H74.3509C74.2386 48.6091 74.1333 48.553 74.0701 48.4582L67.8514 39.2846C67.6619 39.0073 67.2267 39.1407 67.2267 39.4776V48.2687C67.2267 48.4582 67.0723 48.6091 66.8863 48.6091H63.805C63.6155 48.6091 63.4646 48.4547 63.4646 48.2687V32.199C63.4646 32.0095 63.619 31.8586 63.805 31.8586L63.8015 31.8551Z" fill="#F5F5F6"/>
<path d="M85.6757 31.8551H88.757C88.9465 31.8551 89.0974 32.0095 89.0974 32.1955V44.7207C89.0974 44.9102 89.2519 45.0611 89.4379 45.0611H95.5057C95.6952 45.0611 95.8461 45.2155 95.8461 45.4015V48.2652C95.8461 48.4547 95.6917 48.6056 95.5057 48.6056H85.6757C85.4862 48.6056 85.3353 48.4512 85.3353 48.2652V32.1955C85.3353 32.006 85.4897 31.8551 85.6757 31.8551Z" fill="#F5F5F6"/>
<path d="M95.6531 40.2321C95.6531 35.3049 99.4643 31.5638 104.514 31.5638C109.564 31.5638 113.376 35.3014 113.376 40.2321C113.376 45.1629 109.564 48.9004 104.514 48.9004C99.4643 48.9004 95.6531 45.1629 95.6531 40.2321ZM109.515 40.2321C109.515 37.3439 107.354 35.1821 104.514 35.1821C101.675 35.1821 99.5135 37.3439 99.5135 40.2321C99.5135 43.1204 101.675 45.2822 104.514 45.2822C107.354 45.2822 109.515 43.1204 109.515 40.2321Z" fill="#F5F5F6"/>
<path d="M49.8936 0.873901H53.4662C53.754 0.873901 53.9189 1.20028 53.7505 1.4319L50.8692 5.38001C50.8026 5.47126 50.6973 5.5239 50.585 5.5239H47.0124C46.7246 5.5239 46.5597 5.19752 46.7281 4.9659L49.6094 1.01779C49.676 0.926543 49.7813 0.873901 49.8936 0.873901Z" fill="#F5F5F6"/>
<path d="M50.6657 7.52423H46.6965C46.5526 7.52423 46.4263 7.61197 46.3771 7.74532L40.3444 23.815C40.2602 24.0396 40.4251 24.2747 40.6638 24.2747H43.9591C44.103 24.2747 44.2329 24.1835 44.282 24.0466L45.1629 21.562C45.212 21.4251 45.3384 21.3338 45.4857 21.3338H51.8238C51.9677 21.3338 52.0975 21.4251 52.1466 21.562L53.0065 24.0396C53.0556 24.1765 53.1819 24.2677 53.3293 24.2677H56.7194C56.9581 24.2677 57.123 24.0291 57.0388 23.808L50.985 7.73831C50.9359 7.60495 50.8096 7.51721 50.6657 7.51721V7.52423ZM46.6193 17.4138L48.3214 12.5883C48.4302 12.2865 48.8583 12.2865 48.9636 12.5883L50.6657 17.4138C50.7429 17.6349 50.5779 17.87 50.3428 17.87H46.9387C46.7035 17.87 46.5386 17.6384 46.6158 17.4138H46.6193Z" fill="#F5F5F6"/>
<path d="M100.956 7.52417H104.037C104.227 7.52417 104.378 7.67858 104.378 7.86458V13.7359C104.378 13.9254 104.532 14.0763 104.718 14.0763H110.761C110.951 14.0763 111.102 13.9219 111.102 13.7359V7.86458C111.102 7.67508 111.256 7.52417 111.442 7.52417H114.523C114.713 7.52417 114.864 7.67858 114.864 7.86458V23.9343C114.864 24.1238 114.709 24.2747 114.523 24.2747H111.442C111.253 24.2747 111.102 24.1203 111.102 23.9343V17.9647C111.102 17.7752 110.947 17.6243 110.761 17.6243H104.718C104.528 17.6243 104.378 17.7787 104.378 17.9647V23.9343C104.378 24.1238 104.223 24.2747 104.037 24.2747H100.956C100.766 24.2747 100.615 24.1203 100.615 23.9343V7.86809C100.615 7.67858 100.77 7.52768 100.956 7.52768V7.52417Z" fill="#F5F5F6"/>
<path d="M126.627 0.873901H130.225C130.505 0.873901 130.663 1.18975 130.502 1.41435L127.606 5.38352C127.543 5.47126 127.442 5.5239 127.329 5.5239H123.732C123.451 5.5239 123.293 5.20805 123.455 4.98345L126.35 1.01428C126.413 0.926543 126.515 0.873901 126.627 0.873901Z" fill="#F5F5F6"/>
<path d="M127.406 7.52423H123.437C123.293 7.52423 123.167 7.61197 123.118 7.74532L117.085 23.815C117.001 24.0396 117.166 24.2747 117.405 24.2747H120.7C120.844 24.2747 120.974 24.1835 121.023 24.0466L121.904 21.562C121.953 21.4251 122.079 21.3338 122.226 21.3338H128.565C128.708 21.3338 128.838 21.4251 128.887 21.562L129.747 24.0396C129.796 24.1765 129.923 24.2677 130.07 24.2677H133.46C133.699 24.2677 133.864 24.0291 133.78 23.808L127.726 7.73831C127.677 7.60495 127.55 7.51721 127.406 7.51721V7.52423ZM123.36 17.4138L125.062 12.5883C125.171 12.2865 125.599 12.2865 125.704 12.5883L127.406 17.4138C127.484 17.6349 127.319 17.87 127.084 17.87H123.679C123.444 17.87 123.279 17.6384 123.357 17.4138H123.36Z" fill="#F5F5F6"/>
<path d="M85.3353 7.86812C85.3353 7.67862 85.4897 7.52771 85.6757 7.52771H93.0806C96.4322 7.52771 98.9554 9.9808 98.9554 13.234C98.9554 16.4873 96.4322 18.9404 93.0806 18.9404H89.4414C89.2519 18.9404 89.1009 19.0948 89.1009 19.2808V23.9378C89.1009 24.1273 88.9465 24.2782 88.7605 24.2782H85.6792C85.4897 24.2782 85.3388 24.1238 85.3388 23.9378V7.86812H85.3353ZM89.0974 11.4127V15.0519C89.0974 15.2414 89.2519 15.3923 89.4379 15.3923H93.0069C94.1966 15.3923 95.0951 14.4448 95.0951 13.2305C95.0951 12.0163 94.1966 11.0687 93.0069 11.0687H89.4379C89.2483 11.0687 89.0974 11.2231 89.0974 11.4091V11.4127Z" fill="#F5F5F6"/>
<path d="M129.775 48.6057H126.48C126.336 48.6057 126.206 48.5144 126.157 48.3776L125.276 45.8929C125.227 45.756 125.101 45.6648 124.953 45.6648H118.615C118.471 45.6648 118.341 45.756 118.292 45.8929L117.433 48.3705C117.383 48.5074 117.257 48.5987 117.11 48.5987H113.72C113.481 48.5987 113.316 48.36 113.4 48.1389L119.454 32.0692C119.503 31.9359 119.629 31.8481 119.773 31.8481H123.743C123.886 31.8481 124.013 31.9359 124.062 32.0692L130.095 48.1389C130.179 48.3635 130.014 48.5987 129.775 48.5987V48.6057ZM123.816 41.7412L122.114 36.9158C122.005 36.614 121.577 36.614 121.472 36.9158L119.77 41.7412C119.693 41.9623 119.858 42.1975 120.093 42.1975H123.497C123.732 42.1975 123.897 41.9658 123.82 41.7412H123.816Z" fill="#F5F5F6"/>
<path d="M123.307 30.5917H119.71C119.601 30.5917 119.5 30.5391 119.433 30.4514L117.31 27.542C117.145 27.3174 117.31 27.0016 117.587 27.0016H121.184C121.293 27.0016 121.395 27.0542 121.461 27.142L123.585 30.0513C123.75 30.2759 123.585 30.5917 123.307 30.5917Z" fill="#F5F5F6"/>
<path d="M7.86819 7.52426H10.9495C11.139 7.52426 11.2899 7.67868 11.2899 7.86468V13.6868C11.2899 14.0097 11.697 14.1501 11.897 13.9009L16.8909 7.6506C16.9541 7.56988 17.0524 7.52075 17.1577 7.52075H20.8601C21.1479 7.52075 21.3058 7.85415 21.1233 8.07875L15.4591 14.9888C15.3608 15.1081 15.3573 15.2801 15.4486 15.4064L18.2526 19.2247C18.958 20.2214 19.8564 20.7303 20.9478 20.7303H21.3339C21.5234 20.7303 21.6743 20.8847 21.6743 21.0707V23.9344C21.6743 24.1239 21.5199 24.2748 21.3339 24.2748H20.5337C18.0315 24.2748 16.189 23.3272 15.0239 21.4602L12.9884 18.5579C12.8621 18.3789 12.6024 18.3614 12.455 18.5263L11.3706 19.7371C11.3144 19.8003 11.2829 19.881 11.2829 19.9652V23.9379C11.2829 24.1274 11.1284 24.2783 10.9424 24.2783H7.86117C7.67166 24.2783 7.52075 24.1239 7.52075 23.9379V7.86819C7.52075 7.67868 7.67517 7.52777 7.86117 7.52777L7.86819 7.52426Z" fill="#F5F5F6"/>
<path d="M135.261 36.2244H132.397C132.209 36.2244 132.056 36.3768 132.056 36.5648V48.2652C132.056 48.4532 132.209 48.6056 132.397 48.6056H135.261C135.449 48.6056 135.601 48.4532 135.601 48.2652V36.5648C135.601 36.3768 135.449 36.2244 135.261 36.2244Z" fill="#F5F5F6"/>
<path d="M134.815 30.3145H132.836C132.513 30.3145 132.2 30.4443 131.972 30.6724C131.744 30.9005 131.614 31.2129 131.614 31.5357V33.5151C131.614 33.8379 131.744 34.1503 131.972 34.3784C132.2 34.6065 132.513 34.7363 132.836 34.7363H134.815C135.138 34.7363 135.45 34.6065 135.678 34.3784C135.906 34.1503 136.036 33.8379 136.036 33.5151V31.5357C136.036 31.2129 135.906 30.9005 135.678 30.6724C135.45 30.4443 135.138 30.3145 134.815 30.3145Z" fill="#F5F5F6"/>
<path d="M15.5503 56H11.9777C11.6899 56 11.525 55.6736 11.6934 55.442L14.5747 51.4939C14.6414 51.4026 14.7467 51.35 14.859 51.35H18.4316C18.7193 51.35 18.8843 51.6764 18.7158 51.908L15.8346 55.8561C15.7679 55.9473 15.6626 56 15.5503 56Z" fill="#F5F5F6"/>
<path d="M93.6071 56H90.0345C89.7467 56 89.5818 55.6736 89.7502 55.442L92.6315 51.4939C92.6981 51.4026 92.8034 51.35 92.9157 51.35H96.4883C96.7761 51.35 96.941 51.6764 96.7726 51.908L93.8913 55.8561C93.8247 55.9473 93.7194 56 93.6071 56Z" fill="#F5F5F6"/>
</g>
<defs>
<clipPath id="clip0_2030_1531">
<rect width="143.125" height="56" fill="white"/>
</clipPath>
</defs>
</svg>
