<svg width="32" height="32" viewBox="0 0 32 32" fill="none" xmlns="http://www.w3.org/2000/svg">
<path d="M16.806 0.227174H22.187C22.2879 4.61604 25.8528 7.76056 29.7877 7.79419V13.192C27.0131 13.192 24.5412 12.368 22.2206 10.7874C22.2206 11.0396 22.2206 18.3376 22.2206 21.8352C22.2206 27.3003 19.0593 30.6129 14.5696 31.521C9.10449 32.8662 3.53854 29.3181 2.41189 23.7858C1.28525 18.203 5.05193 12.7548 10.6515 11.914C11.8286 11.7122 13.5774 11.8636 13.5774 11.8636C13.5774 11.8636 13.5774 15.5462 13.5774 17.2614C13.5774 17.295 13.5606 17.3118 13.5774 17.2614C12.9216 17.2614 12.2826 17.2109 11.6605 17.2614C9.23902 17.5136 7.49019 19.6828 7.65835 22.1379C7.8265 24.5425 9.89482 26.3922 12.3331 26.3418C14.7377 26.2913 16.5706 24.4416 16.7556 21.9361C16.7892 17.6481 16.7892 0.193542 16.7892 0.193542L16.806 0.227174Z" fill="#F5F5F6"/>
</svg>
