<svg width="576" height="64" viewBox="0 0 576 64" fill="none" xmlns="http://www.w3.org/2000/svg">
<path d="M0.134355 63.8858L217.505 64C219.413 64 221.206 63.0931 222.328 61.548L260.324 9.48546C263.206 5.54214 260.385 0 255.501 0H0L0.134355 63.8791V63.8858Z" fill="#2922FF"/>
<path d="M65.784 42.3602C59.544 42.3602 54.834 37.7402 54.834 31.6502C54.834 25.5602 59.544 20.9402 65.784 20.9402C71.124 20.9402 75.384 24.3602 76.314 29.1902H71.364C70.584 26.9402 68.424 25.4102 65.784 25.4102C62.274 25.4102 59.604 28.0802 59.604 31.6502C59.604 35.2202 62.274 37.8902 65.784 37.8902C68.424 37.8902 70.584 36.3602 71.364 34.1102H76.314C75.384 38.9402 71.124 42.3602 65.784 42.3602Z" fill="#F5F5F6"/>
<path d="M79.1157 42.0002V21.3002H83.7657V29.4002H92.0757V21.3002H96.7257V42.0002H92.0757V33.7802H83.7657V42.0002H79.1157Z" fill="#F5F5F6"/>
<path d="M107.458 19.9802V19.7702C107.458 18.6302 107.998 18.0902 108.658 17.6702C109.168 17.3702 109.768 17.1602 109.768 16.6802C109.768 16.2602 109.408 15.9902 108.808 15.9902C108.208 15.9902 107.878 16.3202 107.878 16.7702H104.968C104.968 14.7302 106.408 13.2902 108.898 13.2902C111.448 13.2902 112.918 14.5502 112.918 16.3202C112.918 17.2802 112.498 18.0002 111.358 18.7202C110.758 19.0802 110.548 19.4102 110.548 19.7702V19.9802H107.458ZM108.958 42.3602C104.038 42.3602 100.318 38.7602 100.318 33.9602V21.3002H104.968V33.9002C104.968 36.1802 106.648 37.8902 108.958 37.8902C111.238 37.8902 112.948 36.1802 112.948 33.9002V21.3002H117.598V33.9602C117.598 38.7602 113.848 42.3602 108.958 42.3602Z" fill="#F5F5F6"/>
<path d="M127.749 42.0002V33.2102H125.889V30.0902H127.749V21.3002H135.909C141.939 21.3002 146.469 25.7402 146.469 31.6502C146.469 37.5602 141.939 42.0002 135.909 42.0002H127.749ZM135.249 33.2102H132.399V37.6202H135.789C139.179 37.6202 141.699 35.0402 141.699 31.6502C141.699 28.2602 139.179 25.6802 135.789 25.6802H132.399V30.0902H135.249V33.2102Z" fill="#F5F5F6"/>
<path d="M161.788 17.0702L157.978 12.9902H162.508L165.418 17.0702H161.788ZM150.988 19.7402L154.168 16.0202H158.968L162.178 19.7402H158.068L156.568 18.2402L155.068 19.7402H150.988ZM149.428 42.0002V21.3002H163.168V25.6802H154.078V29.4002H162.178V33.7802H154.078V37.6202H163.318V42.0002H149.428Z" fill="#F5F5F6"/>
<path d="M530.916 64H274.32C270.37 64 268.093 59.5125 270.417 56.3216L310.065 1.98174C310.972 0.738952 312.423 0 313.968 0L570.564 0C574.514 0 576.791 4.48746 574.467 7.67839L534.812 62.0183C533.905 63.261 532.454 64 530.909 64H530.916Z" fill="#FF4222"/>
<path d="M336.84 42.0008V25.6808H331.41V21.3008H346.92V25.6808H341.49V42.0008H336.84Z" fill="#F5F5F6"/>
<path d="M349.662 42.0008V21.3008H354.312V29.4008H362.622V21.3008H367.272V42.0008H362.622V33.7808H354.312V42.0008H349.662Z" fill="#F5F5F6"/>
<path d="M371.224 42.0008V21.3008H375.874V42.0008H371.224Z" fill="#F5F5F6"/>
<path d="M381.397 19.7408L384.337 15.3008H389.617L392.587 19.7408H388.477L386.977 17.6708L385.477 19.7408H381.397ZM379.837 42.0008V21.3008H393.577V25.6808H384.487V29.4008H392.587V33.7808H384.487V37.6208H393.727V42.0008H379.837Z" fill="#F5F5F6"/>
<path d="M396.742 42.0008V21.3008H401.422L410.032 33.9608V21.3008H414.682V42.0008H409.972L401.392 29.3408V42.0008H396.742Z" fill="#F5F5F6"/>
<path d="M425.189 42.0008V21.3008H429.869L438.479 33.9608V21.3008H443.129V42.0008H438.419L429.839 29.3408V42.0008H425.189Z" fill="#F5F5F6"/>
<path d="M447.044 42.0008V21.3008H451.694V29.4008H460.004V21.3008H464.654V42.0008H460.004V33.7808H451.694V42.0008H447.044Z" fill="#F5F5F6"/>
<path d="M468.607 42.0008V21.3008H473.257V42.0008H468.607Z" fill="#F5F5F6"/>
<path d="M478.78 19.7408L481.72 15.3008H487L489.97 19.7408H485.86L484.36 17.6708L482.86 19.7408H478.78ZM477.22 42.0008V21.3008H490.96V25.6808H481.87V29.4008H489.97V33.7808H481.87V37.6208H491.11V42.0008H477.22Z" fill="#F5F5F6"/>
<path d="M494.125 42.0008V21.3008H498.805L507.415 33.9608V21.3008H512.065V42.0008H507.355L498.775 29.3408V42.0008H494.125Z" fill="#F5F5F6"/>
</svg>
