<svg width="314" height="30" viewBox="0 0 314 30" fill="none" xmlns="http://www.w3.org/2000/svg">
<path d="M201 28.71V8.01H211.26C214.38 8.01 216.78 10.23 216.78 13.32C216.78 15.21 215.85 16.89 214.53 17.7C216.48 18.45 217.83 20.64 217.83 23.1C217.83 26.37 215.34 28.71 211.98 28.71H201ZM210.09 12.21H205.5V16.11H210.09C211.17 16.11 212.01 15.27 212.01 14.16C212.01 13.02 211.2 12.21 210.09 12.21ZM210.84 20.04H205.5V24.51H210.84C212.1 24.51 213.06 23.55 213.06 22.29C213.06 21.03 212.1 20.04 210.84 20.04Z" fill="#2922FF"/>
<path d="M227.149 6.69V6.48C227.149 5.34 227.719 4.8 228.379 4.38C228.889 4.08 229.459 3.87 229.459 3.39C229.459 2.97 229.129 2.7 228.529 2.7C227.929 2.7 227.599 3.03 227.599 3.48H224.659C224.659 1.44 226.129 0 228.619 0C231.169 0 232.639 1.26 232.639 3.03C232.639 3.99 232.219 4.71 231.079 5.43C230.479 5.79 230.239 6.12 230.239 6.48V6.69H227.149ZM218.149 28.71L225.919 8.01H231.409L239.209 28.71H234.109L232.849 25.08H224.419L223.129 28.71H218.149ZM225.919 20.79H231.319L228.619 13.14L225.919 20.79Z" fill="#2922FF"/>
<path d="M241.137 28.71V8.01H245.817L254.427 20.67V8.01H259.077V28.71H254.367L245.787 16.05V28.71H241.137Z" fill="#2922FF"/>
<path d="M273.784 28.71V12.39H268.354V8.01H283.864V12.39H278.434V28.71H273.784Z" fill="#2922FF"/>
<path d="M286.605 28.71V8.01H291.255V28.71H286.605Z" fill="#2922FF"/>
<path d="M295.219 28.71V8.01H299.899L308.509 20.67V8.01H313.159V28.71H308.449L299.869 16.05V28.71H295.219Z" fill="#2922FF"/>
<path fill-rule="evenodd" clip-rule="evenodd" d="M0 29.0103H161.451C162.169 29.0103 162.836 28.6717 163.257 28.0868L177.509 8.5605C178.586 7.08294 177.529 5 175.703 5H0V29.0103Z" fill="#FF4222"/>
</svg>
