<svg width="576" height="64" viewBox="0 0 576 64" fill="none" xmlns="http://www.w3.org/2000/svg">
<path d="M0.134355 63.8858L217.505 64C219.413 64 221.206 63.0931 222.328 61.548L260.324 9.48546C263.206 5.54214 260.385 0 255.501 0H0L0.134355 63.8791V63.8858Z" fill="#2922FF"/>
<path d="M65.784 42.3602C59.544 42.3602 54.834 37.7402 54.834 31.6502C54.834 25.5602 59.544 20.9402 65.784 20.9402C71.124 20.9402 75.384 24.3602 76.314 29.1902H71.364C70.584 26.9402 68.424 25.4102 65.784 25.4102C62.274 25.4102 59.604 28.0802 59.604 31.6502C59.604 35.2202 62.274 37.8902 65.784 37.8902C68.424 37.8902 70.584 36.3602 71.364 34.1102H76.314C75.384 38.9402 71.124 42.3602 65.784 42.3602Z" fill="#F5F5F6"/>
<path d="M79.1157 42.0002V21.3002H83.7657V29.4002H92.0757V21.3002H96.7257V42.0002H92.0757V33.7802H83.7657V42.0002H79.1157Z" fill="#F5F5F6"/>
<path d="M107.458 19.9802V19.7702C107.458 18.6302 107.998 18.0902 108.658 17.6702C109.168 17.3702 109.768 17.1602 109.768 16.6802C109.768 16.2602 109.408 15.9902 108.808 15.9902C108.208 15.9902 107.878 16.3202 107.878 16.7702H104.968C104.968 14.7302 106.408 13.2902 108.898 13.2902C111.448 13.2902 112.918 14.5502 112.918 16.3202C112.918 17.2802 112.498 18.0002 111.358 18.7202C110.758 19.0802 110.548 19.4102 110.548 19.7702V19.9802H107.458ZM108.958 42.3602C104.038 42.3602 100.318 38.7602 100.318 33.9602V21.3002H104.968V33.9002C104.968 36.1802 106.648 37.8902 108.958 37.8902C111.238 37.8902 112.948 36.1802 112.948 33.9002V21.3002H117.598V33.9602C117.598 38.7602 113.848 42.3602 108.958 42.3602Z" fill="#F5F5F6"/>
<path d="M127.749 42.0002V33.2102H125.889V30.0902H127.749V21.3002H135.909C141.939 21.3002 146.469 25.7402 146.469 31.6502C146.469 37.5602 141.939 42.0002 135.909 42.0002H127.749ZM135.249 33.2102H132.399V37.6202H135.789C139.179 37.6202 141.699 35.0402 141.699 31.6502C141.699 28.2602 139.179 25.6802 135.789 25.6802H132.399V30.0902H135.249V33.2102Z" fill="#F5F5F6"/>
<path d="M161.788 17.0702L157.978 12.9902H162.508L165.418 17.0702H161.788ZM150.988 19.7402L154.168 16.0202H158.968L162.178 19.7402H158.068L156.568 18.2402L155.068 19.7402H150.988ZM149.428 42.0002V21.3002H163.168V25.6802H154.078V29.4002H162.178V33.7802H154.078V37.6202H163.318V42.0002H149.428Z" fill="#F5F5F6"/>
<path d="M530.916 64H274.32C270.37 64 268.093 59.5125 270.417 56.3216L310.065 1.98174C310.972 0.738952 312.423 0 313.968 0L570.564 0C574.514 0 576.791 4.48746 574.467 7.67839L534.812 62.0183C533.905 63.261 532.454 64 530.909 64H530.916Z" fill="#FF4222"/>
<path d="M346.419 42.3608C340.179 42.3608 335.469 37.7408 335.469 31.6508C335.469 25.5608 340.179 20.9408 346.419 20.9408C351.759 20.9408 356.019 24.3608 356.949 29.1908H351.999C351.219 26.9408 349.059 25.4108 346.419 25.4108C342.909 25.4108 340.239 28.0808 340.239 31.6508C340.239 35.2208 342.909 37.8908 346.419 37.8908C349.059 37.8908 351.219 36.3608 351.999 34.1108H356.949C356.019 38.9408 351.759 42.3608 346.419 42.3608Z" fill="#F5F5F6"/>
<path d="M369.68 42.3608C363.44 42.3608 358.73 37.7408 358.73 31.6508C358.73 25.5608 363.44 20.9408 369.68 20.9408C375.92 20.9408 380.63 25.5608 380.63 31.6508C380.63 37.7408 375.92 42.3608 369.68 42.3608ZM369.68 37.8908C373.19 37.8908 375.86 35.2208 375.86 31.6508C375.86 28.0808 373.19 25.4108 369.68 25.4108C366.17 25.4108 363.5 28.0808 363.5 31.6508C363.5 35.2208 366.17 37.8908 369.68 37.8908Z" fill="#F5F5F6"/>
<path d="M383.569 42.0008V21.3008H388.249L396.859 33.9608V21.3008H401.509V42.0008H396.799L388.219 29.3408V42.0008H383.569Z" fill="#F5F5F6"/>
<path d="M412.016 42.0008V21.3008H416.696L425.306 33.9608V21.3008H429.956V42.0008H425.246L416.666 29.3408V42.0008H412.016Z" fill="#F5F5F6"/>
<path d="M443.802 42.3608C437.562 42.3608 432.852 37.7408 432.852 31.6508C432.852 25.5608 437.562 20.9408 443.802 20.9408C448.752 20.9408 452.862 23.8508 453.972 27.9308H448.782C447.762 26.4008 445.962 25.4108 443.802 25.4108C440.292 25.4108 437.622 28.0808 437.622 31.6508C437.622 35.2208 440.292 37.8908 443.802 37.8908C446.412 37.8908 448.452 36.4808 449.262 34.3508H444.432V30.1508H454.332V42.0008H450.402V39.3008C448.992 41.3108 446.742 42.3608 443.802 42.3608Z" fill="#F5F5F6"/>
<path d="M465.97 42.3608C461.05 42.3608 457.33 38.7608 457.33 33.9608V21.3008H461.98V33.9008C461.98 36.1808 463.66 37.8908 465.97 37.8908C468.25 37.8908 469.96 36.1808 469.96 33.9008V21.3008H473.23C474.01 21.3008 474.46 20.8508 474.46 20.0708V19.7708H478.69V21.0008C478.69 23.4908 477.31 24.8408 474.61 24.9608V33.9608C474.61 38.7608 470.86 42.3608 465.97 42.3608Z" fill="#F5F5F6"/>
<path d="M486.409 19.7408L482.509 15.3008H487.999L490.999 19.7408H486.409ZM488.479 42.3608C482.239 42.3608 477.529 37.7408 477.529 31.6508C477.529 25.5608 482.239 20.9408 488.479 20.9408H493.039C493.819 20.9408 494.269 20.4908 494.269 19.7108V19.4108H498.499V20.6408C498.499 22.4108 497.809 23.6108 496.399 24.1808C498.289 26.1008 499.429 28.7108 499.429 31.6508C499.429 37.7408 494.719 42.3608 488.479 42.3608ZM488.479 37.8908C491.989 37.8908 494.659 35.2208 494.659 31.6508C494.659 28.0808 491.809 25.4108 488.479 25.4108C484.969 25.4108 482.299 28.0808 482.299 31.6508C482.299 35.2208 484.969 37.8908 488.479 37.8908Z" fill="#F5F5F6"/>
<path d="M502.368 42.0008V21.3008H507.018V42.0008H502.368Z" fill="#F5F5F6"/>
</svg>
