<svg width="576" height="64" viewBox="0 0 576 64" fill="none" xmlns="http://www.w3.org/2000/svg">
<path d="M0.134355 63.8858L217.505 64C219.413 64 221.206 63.0931 222.328 61.548L260.324 9.48546C263.206 5.54214 260.385 0 255.501 0H0L0.134355 63.8791V63.8858Z" fill="#2922FF"/>
<path d="M65.784 42.3602C59.544 42.3602 54.834 37.7402 54.834 31.6502C54.834 25.5602 59.544 20.9402 65.784 20.9402C71.124 20.9402 75.384 24.3602 76.314 29.1902H71.364C70.584 26.9402 68.424 25.4102 65.784 25.4102C62.274 25.4102 59.604 28.0802 59.604 31.6502C59.604 35.2202 62.274 37.8902 65.784 37.8902C68.424 37.8902 70.584 36.3602 71.364 34.1102H76.314C75.384 38.9402 71.124 42.3602 65.784 42.3602Z" fill="#F5F5F6"/>
<path d="M79.1157 42.0002V21.3002H83.7657V29.4002H92.0757V21.3002H96.7257V42.0002H92.0757V33.7802H83.7657V42.0002H79.1157Z" fill="#F5F5F6"/>
<path d="M107.458 19.9802V19.7702C107.458 18.6302 107.998 18.0902 108.658 17.6702C109.168 17.3702 109.768 17.1602 109.768 16.6802C109.768 16.2602 109.408 15.9902 108.808 15.9902C108.208 15.9902 107.878 16.3202 107.878 16.7702H104.968C104.968 14.7302 106.408 13.2902 108.898 13.2902C111.448 13.2902 112.918 14.5502 112.918 16.3202C112.918 17.2802 112.498 18.0002 111.358 18.7202C110.758 19.0802 110.548 19.4102 110.548 19.7702V19.9802H107.458ZM108.958 42.3602C104.038 42.3602 100.318 38.7602 100.318 33.9602V21.3002H104.968V33.9002C104.968 36.1802 106.648 37.8902 108.958 37.8902C111.238 37.8902 112.948 36.1802 112.948 33.9002V21.3002H117.598V33.9602C117.598 38.7602 113.848 42.3602 108.958 42.3602Z" fill="#F5F5F6"/>
<path d="M127.749 42.0002V33.2102H125.889V30.0902H127.749V21.3002H135.909C141.939 21.3002 146.469 25.7402 146.469 31.6502C146.469 37.5602 141.939 42.0002 135.909 42.0002H127.749ZM135.249 33.2102H132.399V37.6202H135.789C139.179 37.6202 141.699 35.0402 141.699 31.6502C141.699 28.2602 139.179 25.6802 135.789 25.6802H132.399V30.0902H135.249V33.2102Z" fill="#F5F5F6"/>
<path d="M161.788 17.0702L157.978 12.9902H162.508L165.418 17.0702H161.788ZM150.988 19.7402L154.168 16.0202H158.968L162.178 19.7402H158.068L156.568 18.2402L155.068 19.7402H150.988ZM149.428 42.0002V21.3002H163.168V25.6802H154.078V29.4002H162.178V33.7802H154.078V37.6202H163.318V42.0002H149.428Z" fill="#F5F5F6"/>
<path d="M530.916 64H274.32C270.37 64 268.093 59.5125 270.417 56.3216L310.065 1.98174C310.972 0.738952 312.423 0 313.968 0L570.564 0C574.514 0 576.791 4.48746 574.467 7.67839L534.812 62.0183C533.905 63.261 532.454 64 530.909 64H530.916Z" fill="#FF4222"/>
<path d="M348.001 42.0008V33.2108H346.141V30.0908H348.001V21.3008H356.161C362.191 21.3008 366.721 25.7408 366.721 31.6508C366.721 37.5608 362.191 42.0008 356.161 42.0008H348.001ZM355.501 33.2108H352.651V37.6208H356.041C359.431 37.6208 361.951 35.0408 361.951 31.6508C361.951 28.2608 359.431 25.6808 356.041 25.6808H352.651V30.0908H355.501V33.2108Z" fill="#F5F5F6"/>
<path d="M374 19.7408L376.97 15.3008H382.25L385.22 19.7408H381.11L379.61 17.6708L378.11 19.7408H374ZM379.61 42.3608C373.37 42.3608 368.66 37.7408 368.66 31.6508C368.66 25.5608 373.37 20.9408 379.61 20.9408C385.85 20.9408 390.56 25.5608 390.56 31.6508C390.56 37.7408 385.85 42.3608 379.61 42.3608ZM379.61 37.8908C383.12 37.8908 385.79 35.2208 385.79 31.6508C385.79 28.0808 383.12 25.4108 379.61 25.4108C376.1 25.4108 373.43 28.0808 373.43 31.6508C373.43 35.2208 376.1 37.8908 379.61 37.8908ZM379.61 48.3908C378.17 48.3908 377.06 47.3108 377.06 45.8708C377.06 44.4008 378.17 43.3208 379.61 43.3208C381.05 43.3208 382.16 44.4008 382.16 45.8708C382.16 47.3108 381.05 48.3908 379.61 48.3908Z" fill="#F5F5F6"/>
<path d="M393.499 42.0008V21.3008H398.179L406.789 33.9608V21.3008H411.439V42.0008H406.729L398.149 29.3408V42.0008H393.499Z" fill="#F5F5F6"/>
<path d="M425.284 42.3608C419.044 42.3608 414.334 37.7408 414.334 31.6508C414.334 25.5608 419.044 20.9408 425.284 20.9408C430.234 20.9408 434.344 23.8508 435.454 27.9308H430.264C429.244 26.4008 427.444 25.4108 425.284 25.4108C421.774 25.4108 419.104 28.0808 419.104 31.6508C419.104 35.2208 421.774 37.8908 425.284 37.8908C427.894 37.8908 429.934 36.4808 430.744 34.3508H425.914V30.1508H435.814V42.0008H431.884V39.3008C430.474 41.3108 428.224 42.3608 425.284 42.3608Z" fill="#F5F5F6"/>
<path d="M452.034 42.0008L443.934 21.3008H449.124L454.494 35.7908L459.834 21.3008H464.934L456.834 42.0008H452.034Z" fill="#F5F5F6"/>
<path d="M467.482 19.7408L470.452 15.3008H475.702L478.672 19.7408H474.562L473.092 17.6708L471.592 19.7408H467.482ZM462.562 42.0008L470.332 21.3008H475.822L483.622 42.0008H478.522L477.262 38.3708H468.832L467.542 42.0008H462.562ZM470.332 34.0808H475.732L473.032 26.4308L470.332 34.0808ZM473.062 48.3908C471.592 48.3908 470.512 47.3108 470.512 45.8708C470.512 44.4008 471.592 43.3208 473.062 43.3208C474.502 43.3208 475.612 44.4008 475.612 45.8708C475.612 47.3108 474.502 48.3908 473.062 48.3908Z" fill="#F5F5F6"/>
<path d="M487.64 42.0008V25.6808H482.21V21.3008H497.72V25.6808H492.29V42.0008H487.64Z" fill="#F5F5F6"/>
</svg>
