<svg width="576" height="64" viewBox="0 0 576 64" fill="none" xmlns="http://www.w3.org/2000/svg">
<path d="M0.134355 63.8858L217.506 64C219.414 64 221.207 63.0931 222.329 61.548L260.325 9.48546C263.207 5.54214 260.385 0 255.502 0H0L0.134355 63.8791V63.8858Z" fill="#2922FF"/>
<path d="M530.916 64H274.32C270.37 64 268.093 59.5125 270.417 56.3216L310.065 1.98174C310.972 0.738952 312.423 0 313.968 0L570.564 0C574.514 0 576.791 4.48746 574.467 7.67839L534.812 62.0183C533.905 63.261 532.454 64 530.909 64H530.916Z" fill="#FF4222"/>
<path d="M65.783 43.37C59.543 43.37 54.833 38.75 54.833 32.66C54.833 26.57 59.543 21.95 65.783 21.95C71.123 21.95 75.383 25.37 76.313 30.2H71.363C70.583 27.95 68.423 26.42 65.783 26.42C62.273 26.42 59.603 29.09 59.603 32.66C59.603 36.23 62.273 38.9 65.783 38.9C68.423 38.9 70.583 37.37 71.363 35.12H76.313C75.383 39.95 71.123 43.37 65.783 43.37Z" fill="#F5F5F6"/>
<path d="M79.1147 43.01V22.31H83.7647V30.41H92.0747V22.31H96.7247V43.01H92.0747V34.79H83.7647V43.01H79.1147Z" fill="#F5F5F6"/>
<path d="M107.457 20.99V20.78C107.457 19.64 107.997 19.1 108.657 18.68C109.167 18.38 109.767 18.17 109.767 17.69C109.767 17.27 109.407 17 108.807 17C108.207 17 107.877 17.33 107.877 17.78H104.967C104.967 15.74 106.407 14.3 108.897 14.3C111.447 14.3 112.917 15.56 112.917 17.33C112.917 18.29 112.497 19.01 111.357 19.73C110.757 20.09 110.547 20.42 110.547 20.78V20.99H107.457ZM108.957 43.37C104.037 43.37 100.317 39.77 100.317 34.97V22.31H104.967V34.91C104.967 37.19 106.647 38.9 108.957 38.9C111.237 38.9 112.947 37.19 112.947 34.91V22.31H117.597V34.97C117.597 39.77 113.847 43.37 108.957 43.37Z" fill="#F5F5F6"/>
<path d="M127.748 43.01V34.22H125.888V31.1H127.748V22.31H135.908C141.938 22.31 146.468 26.75 146.468 32.66C146.468 38.57 141.938 43.01 135.908 43.01H127.748ZM135.248 34.22H132.398V38.63H135.788C139.178 38.63 141.698 36.05 141.698 32.66C141.698 29.27 139.178 26.69 135.788 26.69H132.398V31.1H135.248V34.22Z" fill="#F5F5F6"/>
<path d="M161.787 18.08L157.977 14H162.507L165.417 18.08H161.787ZM150.987 20.75L154.167 17.03H158.967L162.177 20.75H158.067L156.567 19.25L155.067 20.75H150.987ZM149.427 43.01V22.31H163.167V26.69H154.077V30.41H162.177V34.79H154.077V38.63H163.317V43.01H149.427Z" fill="#F5F5F6"/>
<path d="M374.056 43.37C367.816 43.37 363.106 38.75 363.106 32.66C363.106 26.57 367.816 21.95 374.056 21.95C379.396 21.95 383.656 25.37 384.586 30.2H379.636C378.856 27.95 376.696 26.42 374.056 26.42C370.546 26.42 367.876 29.09 367.876 32.66C367.876 36.23 370.546 38.9 374.056 38.9C376.696 38.9 378.856 37.37 379.636 35.12H384.586C383.656 39.95 379.396 43.37 374.056 43.37Z" fill="#F5F5F6"/>
<path d="M387.388 43.01V22.31H392.038V30.41H400.348V22.31H404.998V43.01H400.348V34.79H392.038V43.01H387.388Z" fill="#F5F5F6"/>
<path d="M408.951 43.01V22.31H413.601V43.01H408.951Z" fill="#F5F5F6"/>
<path d="M428.356 43.01V26.69H422.926V22.31H438.436V26.69H433.006V43.01H428.356Z" fill="#F5F5F6"/>
<path d="M441.177 43.01V22.31H445.827V43.01H441.177Z" fill="#F5F5F6"/>
<path d="M461.131 18.08L464.04 14H468.57L464.76 18.08H461.131ZM451.35 20.75L454.531 17.03H459.331L462.54 20.75H458.431L456.931 19.25L455.431 20.75H451.35ZM449.79 43.01V22.31H463.531V26.69H454.441V30.41H462.54V34.79H454.441V38.63H463.681V43.01H449.79Z" fill="#F5F5F6"/>
<path d="M471.012 43.01V26.69H465.582V22.31H481.092V26.69H475.662V43.01H471.012Z" fill="#F5F5F6"/>
</svg>
