<svg width="368" height="64" viewBox="0 0 368 64" fill="none" xmlns="http://www.w3.org/2000/svg">
<path d="M0.134355 63.8858L217.14 64C219.048 64 220.842 63.0931 221.964 61.548L259.96 9.48546C262.842 5.54214 260.02 0 255.136 0H0L0.134355 63.8791V63.8858Z" fill="#2922FF"/>
<path d="M322.534 64H273.353C269.403 64 267.126 59.5125 269.45 56.3216L309.098 1.98174C310.005 0.738952 311.456 0 313.001 0H362.182C366.132 0 368.409 4.48746 366.085 7.67839L326.43 62.0183C325.523 63.261 324.072 64 322.527 64H322.534Z" fill="#FF4222"/>
<path d="M65.4324 42.3602C59.1924 42.3602 54.4824 37.7402 54.4824 31.6502C54.4824 25.5602 59.1924 20.9402 65.4324 20.9402C70.7724 20.9402 75.0324 24.3602 75.9624 29.1902H71.0124C70.2324 26.9402 68.0724 25.4102 65.4324 25.4102C61.9224 25.4102 59.2524 28.0802 59.2524 31.6502C59.2524 35.2202 61.9224 37.8902 65.4324 37.8902C68.0724 37.8902 70.2324 36.3602 71.0124 34.1102H75.9624C75.0324 38.9402 70.7724 42.3602 65.4324 42.3602Z" fill="#F5F5F6"/>
<path d="M78.7641 42.0002V21.3002H83.4141V29.4002H91.7241V21.3002H96.3741V42.0002H91.7241V33.7802H83.4141V42.0002H78.7641Z" fill="#F5F5F6"/>
<path d="M107.107 19.9802V19.7702C107.107 18.6302 107.647 18.0902 108.307 17.6702C108.817 17.3702 109.417 17.1602 109.417 16.6802C109.417 16.2602 109.057 15.9902 108.457 15.9902C107.857 15.9902 107.527 16.3202 107.527 16.7702H104.617C104.617 14.7302 106.057 13.2902 108.547 13.2902C111.097 13.2902 112.567 14.5502 112.567 16.3202C112.567 17.2802 112.147 18.0002 111.007 18.7202C110.407 19.0802 110.197 19.4102 110.197 19.7702V19.9802H107.107ZM108.607 42.3602C103.687 42.3602 99.9666 38.7602 99.9666 33.9602V21.3002H104.617V33.9002C104.617 36.1802 106.297 37.8902 108.607 37.8902C110.887 37.8902 112.597 36.1802 112.597 33.9002V21.3002H117.247V33.9602C117.247 38.7602 113.497 42.3602 108.607 42.3602Z" fill="#F5F5F6"/>
<path d="M127.397 42.0002V33.2102H125.537V30.0902H127.397V21.3002H135.557C141.587 21.3002 146.117 25.7402 146.117 31.6502C146.117 37.5602 141.587 42.0002 135.557 42.0002H127.397ZM134.897 33.2102H132.047V37.6202H135.437C138.827 37.6202 141.347 35.0402 141.347 31.6502C141.347 28.2602 138.827 25.6802 135.437 25.6802H132.047V30.0902H134.897V33.2102Z" fill="#F5F5F6"/>
<path d="M161.437 17.0702L157.627 12.9902H162.157L165.067 17.0702H161.437ZM150.637 19.7402L153.817 16.0202H158.617L161.827 19.7402H157.717L156.217 18.2402L154.717 19.7402H150.637ZM149.077 42.0002V21.3002H162.817V25.6802H153.727V29.4002H161.827V33.7802H153.727V37.6202H162.967V42.0002H149.077Z" fill="#F5F5F6"/>
</svg>
