<svg width="367" height="64" viewBox="0 0 367 64" fill="none" xmlns="http://www.w3.org/2000/svg">
<path d="M0.634355 63.8858L216.154 64C218.061 64 219.855 63.0931 220.977 61.548L258.973 9.48546C261.854 5.54214 259.033 0 254.149 0H0.5L0.634355 63.8791V63.8858Z" fill="#2922FF"/>
<path d="M321.534 64H272.353C268.403 64 266.126 59.5125 268.45 56.3216L308.098 1.98174C309.005 0.738952 310.456 0 312.001 0H361.182C365.132 0 367.409 4.48746 365.085 7.67839L325.43 62.0183C324.523 63.261 323.072 64 321.527 64H321.534Z" fill="#FF4222"/>
<path d="M89.6131 42.36C85.0831 42.36 81.7231 39.48 81.7231 35.79H86.4931C86.4931 37.14 87.9031 38.22 89.6731 38.22C91.2631 38.22 92.5831 37.38 92.5831 36.21C92.5831 32.97 82.0531 34.38 82.0531 27.36C82.0531 23.46 85.3231 20.94 89.4931 20.94C93.7831 20.94 97.0531 23.64 97.0531 27.24H92.2831C92.2831 26.01 91.0531 25.08 89.4631 25.08C88.0231 25.08 86.8231 25.8 86.8231 26.97C86.8231 30.24 97.3531 28.47 97.3531 35.67C97.3531 39.72 93.9631 42.36 89.6131 42.36Z" fill="#F5F5F6"/>
<path d="M100.263 42V21.3H104.913V29.4H113.223V21.3H117.873V42H113.223V33.78H104.913V42H100.263Z" fill="#F5F5F6"/>
<path d="M131.756 42.36C125.516 42.36 120.806 37.74 120.806 31.65C120.806 25.56 125.516 20.94 131.756 20.94C137.996 20.94 142.706 25.56 142.706 31.65C142.706 37.74 137.996 42.36 131.756 42.36ZM131.756 37.89C135.266 37.89 137.936 35.22 137.936 31.65C137.936 28.08 135.266 25.41 131.756 25.41C128.246 25.41 125.576 28.08 125.576 31.65C125.576 35.22 128.246 37.89 131.756 37.89Z" fill="#F5F5F6"/>
<path d="M145.644 42V21.3H155.214C159.354 21.3 162.474 24.33 162.474 28.35C162.474 32.37 159.354 35.4 155.214 35.4H150.294V42H145.644ZM155.124 25.68H150.294V31.02H155.124C156.594 31.02 157.704 29.85 157.704 28.35C157.704 26.82 156.594 25.68 155.124 25.68Z" fill="#F5F5F6"/>
</svg>
