<svg width="310" height="25" viewBox="0 0 310 25" fill="none" xmlns="http://www.w3.org/2000/svg">
<path d="M209.19 21.9995L201.09 1.29945H206.28L211.65 15.7895L216.99 1.29945H222.09L213.99 21.9995H209.19Z" fill="#2922FF"/>
<path d="M224.219 21.9995V1.29945H228.869V21.9995H224.219Z" fill="#2922FF"/>
<path d="M232.832 21.9995V1.29945H240.992C247.022 1.29945 251.552 5.73945 251.552 11.6495C251.552 17.5595 247.022 21.9995 240.992 21.9995H232.832ZM240.872 5.67945H237.482V17.6195H240.872C244.262 17.6195 246.782 15.0395 246.782 11.6495C246.782 8.25945 244.262 5.67945 240.872 5.67945Z" fill="#2922FF"/>
<path d="M254.512 21.9995V1.29945H268.252V5.67945H259.162V9.39945H267.262V13.7795H259.162V17.6195H268.402V21.9995H254.512Z" fill="#2922FF"/>
<path d="M281.258 22.3595C275.018 22.3595 270.308 17.7395 270.308 11.6495C270.308 5.55945 275.018 0.939453 281.258 0.939453C287.498 0.939453 292.208 5.55945 292.208 11.6495C292.208 17.7395 287.498 22.3595 281.258 22.3595ZM281.258 17.8895C284.768 17.8895 287.438 15.2195 287.438 11.6495C287.438 8.07945 284.768 5.40945 281.258 5.40945C277.748 5.40945 275.078 8.07945 275.078 11.6495C275.078 15.2195 277.748 17.8895 281.258 17.8895Z" fill="#2922FF"/>
<path d="M301.986 22.3595C297.456 22.3595 294.096 19.4795 294.096 15.7895H298.866C298.866 17.1395 300.276 18.2195 302.046 18.2195C303.636 18.2195 304.956 17.3795 304.956 16.2095C304.956 12.9695 294.426 14.3795 294.426 7.35945C294.426 3.45945 297.696 0.939453 301.866 0.939453C306.156 0.939453 309.426 3.63945 309.426 7.23945H304.656C304.656 6.00945 303.426 5.07945 301.836 5.07945C300.396 5.07945 299.196 5.79945 299.196 6.96945C299.196 10.2395 309.726 8.46945 309.726 15.6695C309.726 19.7195 306.336 22.3595 301.986 22.3595Z" fill="#2922FF"/>
<path fill-rule="evenodd" clip-rule="evenodd" d="M0 24.5005H161.451C162.169 24.5005 162.836 24.1619 163.257 23.577L177.509 4.05073C178.586 2.57318 177.529 0.490234 175.703 0.490234H0V24.5005Z" fill="#FF4222"/>
</svg>
