<svg width="366" height="64" viewBox="0 0 366 64" fill="none" xmlns="http://www.w3.org/2000/svg">
<path d="M0.134355 63.8858L215.504 64C217.412 64 219.206 63.0931 220.328 61.548L258.324 9.48546C261.205 5.54214 258.384 0 253.5 0H0L0.134355 63.8791V63.8858Z" fill="#2922FF"/>
<path d="M320.885 64H271.705C267.755 64 265.477 59.5125 267.802 56.3216L307.45 1.98174C308.357 0.738952 309.808 0 311.353 0H360.534C364.484 0 366.761 4.48746 364.437 7.67839L324.782 62.0183C323.875 63.261 322.424 64 320.879 64H320.885Z" fill="#FF4222"/>
<path d="M49.9744 44.07C43.7344 44.07 39.0244 39.45 39.0244 33.36C39.0244 27.27 43.7344 22.65 49.9744 22.65C55.3144 22.65 59.5744 26.07 60.5044 30.9H55.5544C54.7744 28.65 52.6144 27.12 49.9744 27.12C46.4644 27.12 43.7944 29.79 43.7944 33.36C43.7944 36.93 46.4644 39.6 49.9744 39.6C52.6144 39.6 54.7744 38.07 55.5544 35.82H60.5044C59.5744 40.65 55.3144 44.07 49.9744 44.07Z" fill="#F5F5F6"/>
<path d="M70.0861 21.69V21.48C70.0861 20.34 70.6261 19.8 71.2861 19.38C71.7961 19.08 72.3961 18.87 72.3961 18.39C72.3961 17.97 72.0361 17.7 71.4361 17.7C70.8361 17.7 70.5061 18.03 70.5061 18.48H67.5961C67.5961 16.44 69.0361 15 71.5261 15C74.0761 15 75.5461 16.26 75.5461 18.03C75.5461 18.99 75.1261 19.71 73.9861 20.43C73.3861 20.79 73.1761 21.12 73.1761 21.48V21.69H70.0861ZM71.5861 44.07C66.6661 44.07 62.9461 40.47 62.9461 35.67V23.01H67.5961V35.61C67.5961 37.89 69.2761 39.6 71.5861 39.6C73.8661 39.6 75.5761 37.89 75.5761 35.61V23.01H78.8461C79.6261 23.01 80.0761 22.56 80.0761 21.78V21.48H84.3061V22.71C84.3061 25.2 82.9261 26.55 80.2261 26.67V35.67C80.2261 40.47 76.4761 44.07 71.5861 44.07Z" fill="#F5F5F6"/>
<path d="M81.2173 43.71L88.9873 23.01H94.4773L102.277 43.71H97.1773L95.9173 40.08H87.4873L86.1973 43.71H81.2173ZM88.9873 35.79H94.3873L91.6873 28.14L88.9873 35.79Z" fill="#F5F5F6"/>
<path d="M110.796 43.71V23.01H115.446V31.11H123.756V23.01H128.406V43.71H123.756V35.49H115.446V43.71H110.796Z" fill="#F5F5F6"/>
<path d="M138.749 21.45L134.849 17.01H140.339L143.339 21.45H138.749ZM130.319 43.71L138.089 23.01H143.579L151.379 43.71H146.279L145.019 40.08H136.589L135.299 43.71H130.319ZM138.089 35.79H143.489L140.789 28.14L138.089 35.79Z" fill="#F5F5F6"/>
<path d="M153.306 43.71V23.01H157.986L166.596 35.67V23.01H171.246V43.71H166.536L157.956 31.05V43.71H153.306Z" fill="#F5F5F6"/>
<path d="M185.092 44.07C178.852 44.07 174.142 39.45 174.142 33.36C174.142 27.27 178.852 22.65 185.092 22.65C190.042 22.65 194.152 25.56 195.262 29.64H190.072C189.052 28.11 187.252 27.12 185.092 27.12C181.582 27.12 178.912 29.79 178.912 33.36C178.912 36.93 181.582 39.6 185.092 39.6C187.702 39.6 189.742 38.19 190.552 36.06H185.722V31.86H195.622V43.71H191.692V41.01C190.282 43.02 188.032 44.07 185.092 44.07Z" fill="#F5F5F6"/>
</svg>
