<svg width="1206" height="128" viewBox="0 0 1206 128" fill="none" xmlns="http://www.w3.org/2000/svg">
<path opacity="0.25" d="M394.256 128H118.249C112.332 128 108.912 121.273 112.406 116.487L171.806 34.9726C173.166 33.1055 175.341 32 177.65 32H453.657C459.574 32 462.994 38.7272 459.5 43.513L400.099 125.027C398.74 126.895 396.565 128 394.256 128Z" fill="#2922FF"/>
<path opacity="0.25" d="M226.743 72H5.46549C1.00448 72 -1.57192 66.9529 1.05697 63.3648L45.8483 2.22891C46.8741 0.826931 48.5106 0 50.2568 0H271.534C275.995 0 278.572 5.04713 275.943 8.63525L231.156 69.7711C230.131 71.1731 228.494 72 226.748 72H226.743Z" fill="#2922FF"/>
<path opacity="0.25" d="M1172.43 56H1024.65C1021.67 56 1019.95 52.6352 1021.71 50.2432L1051.62 9.48594C1052.31 8.55129 1053.4 8 1054.57 8H1202.35C1205.33 8 1207.05 11.3648 1205.29 13.7568L1175.38 54.5141C1174.7 55.4487 1173.6 56 1172.44 56H1172.43Z" fill="#2922FF"/>
</svg>
