<?xml version="1.0" encoding="UTF-8"?>
<svg id="Layer_2" data-name="Layer 2" xmlns="http://www.w3.org/2000/svg" viewBox="0 0 320 320">
  <defs>
    <style>
      .cls-1 {
        fill: #2922ff;
      }

      .cls-1, .cls-2 {
        stroke-width: 0px;
      }

      .cls-2 {
        fill: #ff4222;
      }
    </style>
  </defs>
  <g id="Layer_1-2" data-name="Layer 1">
    <g>
      <path class="cls-1" d="M170.07,85.79h-27.66c-1.58,0-2.9-1.16-3.14-2.72-1.31-8.61-8.75-15.21-17.72-15.21h-48.76c-1.76,0-3.18-1.42-3.18-3.18v-29.74c0-1.76,1.42-3.18,3.18-3.18h46.53c28.72,0,52.2,22.4,53.93,50.69.11,1.81-1.36,3.34-3.18,3.34Z"/>
      <path class="cls-1" d="M37.06,234.12h2.9s0-.09,0-.09c16.38,0,29.66-13.28,29.66-29.66v-56.09c0-1.76,1.42-3.18,3.17-3.18h48.76c8.98,0,16.41-6.6,17.72-15.21.24-1.56,1.56-2.72,3.14-2.72h30.94s0,0,0,0c0,22.49-13.74,41.76-33.28,49.89-2.62,1.09-2.54,4.81.09,5.87,26.55,10.72,45.28,36.73,45.28,67.12v22.85c0,1.76,1.42,3.18,3.18,3.18h4.68c1.76,0,3.18,1.42,3.18,3.18v5.8c0,1.76-1.42,3.18-3.18,3.18h-47.76c-1.76,0-3.18-1.42-3.18-3.18v-29.52c0-17.33-12.32-31.78-28.67-35.09-1.6-.32-3.18.68-3.62,2.26-7.72,28.01-31.77,49.24-61.27,52.82-1.58.19-2.76,1.55-2.76,3.15v6.38c0,1.76-1.42,3.18-3.18,3.18h-5.8c-1.76,0-3.18-1.42-3.18-3.18v-47.76c0-1.76,1.42-3.18,3.18-3.18Z"/>
      <path class="cls-1" d="M189.52,112.05h-4.5c-.88,0-1.59.71-1.59,1.59v3.24c0,1.76-1.42,3.18-3.18,3.18h-37.59c-1.76,0-3.18-1.42-3.18-3.18v-20.79c0-1.76,1.42-3.18,3.18-3.18h37.59c1.76,0,3.18,1.42,3.18,3.18v3.24c0,.88.71,1.59,1.59,1.59h4.5c.88,0,1.59.71,1.59,1.59v7.96c0,.88-.71,1.59-1.59,1.59Z"/>
      <path class="cls-1" d="M198.43,100.05l83.14-39.36c2.11-1,4.54.54,4.54,2.87v85.84c0,2.33-2.43,3.87-4.54,2.87l-83.14-39.36c-1.11-.53-1.82-1.64-1.82-2.87v-7.11c0-1.23.71-2.35,1.82-2.87Z"/>
      <path class="cls-1" d="M67.18,104.97c-1.14,17.23,12.5,31.57,29.49,31.57,14.31,0,26.25-10.18,28.97-23.69h2.85c1.85,0,3.03-1.98,2.14-3.61l-5.43-9.98v.02c-3.62-13.43-16.45-23.08-31.31-21.72-14.33,1.31-25.76,13.06-26.71,27.41ZM109.22,102.69c0-1.91,1.46-3.36,3.36-3.36s3.4,1.46,3.4,3.36-1.46,3.36-3.4,3.36c-1.91,0-3.36-1.46-3.36-3.36Z"/>
      <g>
        <path class="cls-1" d="M292.62.03l-18.18-.03c-.64,0-1.24.31-1.62.82l-12.77,17.49c-.97,1.32-.02,3.19,1.62,3.19l30.91.03c3.27,0,5.91,2.65,5.91,5.91v265.89c0,3.27-2.65,5.91-5.91,5.91l-265.17-.03c-3.27,0-5.91-2.65-5.91-5.91l.03-265.93c0-3.27,2.65-5.91,5.91-5.91l167.78.04c.64,0,1.24-.31,1.62-.82l12.77-17.49c.97-1.33.02-3.19-1.62-3.19H27.4C12.28,0,.03,12.26.03,27.37l-.03,265.22c0,15.12,12.25,27.37,27.37,27.37h37.25l228,.03c15.12,0,27.37-12.25,27.37-27.37V27.4C320,12.28,307.74.03,292.62.03Z"/>
        <path class="cls-2" d="M214.49,26.57h20.42c.64,0,1.24-.31,1.62-.82l16.46-22.56c.97-1.32.02-3.19-1.62-3.19h-20.42c-.64,0-1.24.31-1.62.82l-16.46,22.56c-.97,1.33-.02,3.19,1.62,3.19Z"/>
      </g>
    </g>
  </g>
</svg>