<?xml version="1.0" encoding="UTF-8"?>
<svg id="Layer_2" data-name="Layer 2" xmlns="http://www.w3.org/2000/svg" viewBox="0 0 319.99 319.98">
  <defs>
    <style>
      .cls-1 {
        fill: #2922ff;
      }

      .cls-1, .cls-2 {
        stroke-width: 0px;
      }

      .cls-2 {
        fill: #ff4222;
      }
    </style>
  </defs>
  <g id="Layer_1-2" data-name="Layer 1">
    <g>
      <path class="cls-1" d="M138.17,80.29c-8.4,2.28-15.43,5.64-21.08,9.09-2.79,1.7-1.08,6.02,2.12,5.36,15.46-3.21,35.36-4.92,57.55-.57,7.05,1.38,13.52,3.22,19.37,5.27,1.29.45,2.72-.06,3.43-1.23,5.47-8.94,18.16-26.43,41.34-37.28,8.82-4.13,17.23-6.39,24.5-7.6,3.27-.55,3.29-5.22.02-5.77-9.54-1.62-22.42-1.85-36.29,3.56-20.83,8.13-31.31,24.08-35.1,30.96-.7,1.28-2.24,1.84-3.6,1.31-8.87-3.45-28.79-9.45-52.26-3.09Z"/>
      <path class="cls-1" d="M95.16,42.23c26.41,2.68,39.19,12.07,43.23,15.71.87.78,2.19.85,3.12.13,14.33-11.12,33.45-14.96,44.77-16.29,2.6-.3,2.96-3.93.48-4.78-23.09-7.91-40.32,4.98-45.41,9.48-.9.8-2.25.82-3.17.05-15.14-12.61-32.25-11.76-43.36-9.15-2.71.64-2.44,4.56.34,4.84Z"/>
      <g>
        <path class="cls-1" d="M319.99,27.18C319.99,12.18,307.84.02,292.84.01h-18.39c-.64-.01-1.25.29-1.62.81l-12.77,17.48c-.67.92-.42,2.1.35,2.73.34.3.78.47,1.28.47l30.91.02c3.27,0,5.92,2.65,5.92,5.92v82.31c-7.44-.24-14.82-.13-21.92.32-48.44,2.99-84.45,19.96-118.07,38.18-72.77-30.56-116.09-39.6-136.98-42.23V27.38c.01-3.27,2.65-5.91,5.92-5.91l167.78.04c.48,0,.93-.17,1.29-.47.13-.1.23-.22.34-.36l12.77-17.48c.96-1.33.02-3.19-1.62-3.19H27.41C12.29,0,.04,12.26.04,27.38l-.04,265.22c0,14.62,11.46,26.57,25.9,27.33.4.02,148.29.03,148.29.03.12.01.24.02.37.02h1.06l.92-.02h116.29c15.01,0,27.17-12.16,27.17-27.17V27.18ZM21.53,126.65c18.23,2.58,54.69,10.44,113.99,34.23-11.25,6.17-22.27,12-33.82,17.25-39.48-13.53-65.43-18.58-80.18-20.43v-31.05ZM298.5,252.19c-43.86,5.14-79.42,21.94-108.45,37.72-2.69,1.45-11.06,6.06-16.32,8.97h-58.84c23.26-8.48,44.19-19.85,64.63-30.98,36.66-19.94,71.36-38.81,118.98-43.06v27.35ZM298.5,204.34c-52.81,4.33-91.4,25.31-128.74,45.63-30.46,16.57-59.22,32.22-94.87,38.88-9.64,1.81-19.65,2.88-29.74,3.19-4.11.13-15.78.11-23.64.07v-26.66c2.06.06,4.2.09,6.34.09,2.4,0,4.83-.04,7.21-.11,55.33-1.71,94.8-23.53,132.98-44.61,37.45-20.69,72.83-40.24,123.48-43.36,1.35-.09,4.28-.22,6.99-.32v27.2ZM298.5,156.71c-2.97.1-6.44.27-8.27.38-55.22,3.41-94.29,25-132.08,45.87-37.71,20.83-73.33,40.51-123.74,42.07-3.76.11-11.02.03-12.9,0v-26.61c28.88-.91,55.81-7.26,84.79-19.97,16.81-7.37,32.7-16.15,48.08-24.64,37.45-20.69,72.83-40.24,123.46-43.36,6.7-.42,13.65-.51,20.66-.28v26.54Z"/>
        <path class="cls-2" d="M252.99,3.18l-13.02,17.85-3.44,4.72c-.38.51-.98.82-1.61.82h-20.42c-1.63,0-2.58-1.86-1.61-3.18l1.71-2.35L229.33.83c.38-.52.98-.83,1.62-.83h20.42c1.63,0,2.58,1.87,1.61,3.18Z"/>
      </g>
    </g>
  </g>
</svg>