<?xml version="1.0" encoding="UTF-8"?>
<svg id="Layer_2" data-name="Layer 2" xmlns="http://www.w3.org/2000/svg" xmlns:xlink="http://www.w3.org/1999/xlink" viewBox="0 0 320 320">
  <defs>
    <style>
      .cls-1 {
        clip-path: url(#clippath);
      }

      .cls-2 {
        fill: none;
      }

      .cls-2, .cls-3, .cls-4 {
        stroke-width: 0px;
      }

      .cls-3 {
        fill: #ff4222;
      }

      .cls-4 {
        fill: #2922ff;
      }
    </style>
    <clipPath id="clippath">
      <rect class="cls-2" width="320" height="320"/>
    </clipPath>
  </defs>
  <g id="Layer_1-2" data-name="Layer 1">
    <g class="cls-1">
      <g>
        <g>
          <path class="cls-3" d="M279.54.03L261.35,0c-.64,0-1.24.31-1.62.82l-12.77,17.49c-.97,1.32-.02,3.19,1.62,3.19l30.91.03c3.27,0,5.91,2.65,5.91,5.91v265.9c0,3.27-2.65,5.91-5.91,5.91l-141.4-.03c-.64,0-1.24.31-1.62.82l-12.21,16.74c-.97,1.32-.02,3.19,1.62,3.19l153.65.03c15.12,0,27.37-12.26,27.37-27.37V27.4C306.91,12.28,294.66.03,279.54.03Z"/>
          <path class="cls-3" d="M71.69,299.23h-31.19c-3.27,0-5.91-2.65-5.91-5.91l.03-265.94c0-3.27,2.65-5.91,5.91-5.91l141.61.04c.64,0,1.24-.31,1.62-.82l12.77-17.49c.97-1.33.02-3.19-1.62-3.19H40.49c-15.12,0-27.37,12.26-27.37,27.37l-.03,265.23c0,15.12,12.25,27.37,27.37,27.37h19.02c.64,0,1.24-.31,1.62-.82l12.21-16.74c.97-1.32.02-3.19-1.62-3.19Z"/>
          <path class="cls-3" d="M102.82,319.97h-20.42c-1.64,0-2.59-1.86-1.62-3.19l16.46-22.56c.38-.52.98-.82,1.62-.82h20.42c1.64,0,2.59,1.86,1.62,3.19l-16.46,22.56c-.38.52-.98.82-1.62.82Z"/>
          <path class="cls-3" d="M221.82,26.57h-20.42c-1.64,0-2.59-1.86-1.62-3.19L216.25.82c.38-.52.98-.82,1.62-.82h20.42c1.64,0,2.59,1.86,1.62,3.19l-16.46,22.56c-.38.52-.98.82-1.62.82Z"/>
        </g>
        <path class="cls-4" d="M58.29,170.96h27.32c.88,0,1.67.53,2.01,1.34l26.22,63.15c.74,1.79,3.27,1.79,4.01,0l26.36-63.16c.34-.81,1.13-1.34,2.01-1.34h27.01c1.2,0,2.17.97,2.17,2.17v102.41c0,1.2-.97,2.17-2.17,2.17h-19.64c-1.2,0-2.17-.97-2.17-2.17v-52.64c0-2.37-3.26-3.03-4.18-.84l-22.8,54.32c-.34.81-1.13,1.33-2,1.33h-13.51c-.88,0-1.67-.53-2.01-1.34l-22.65-54.26c-.92-2.19-4.18-1.54-4.18.84v52.58c0,1.2-.97,2.17-2.17,2.17h-19.64c-1.2,0-2.17-.97-2.17-2.17v-102.41c0-1.2.97-2.17,2.17-2.17Z"/>
        <path class="cls-4" d="M199.09,170.96h19.64c1.2,0,2.17.97,2.17,2.17v79.82c0,1.2.97,2.17,2.17,2.17h38.67c1.2,0,2.17.97,2.17,2.17v18.24c0,1.2-.97,2.17-2.17,2.17h-62.65c-1.2,0-2.17-.97-2.17-2.17v-102.41c0-1.2.97-2.17,2.17-2.17Z"/>
        <path class="cls-4" d="M175.41,45.17c0-1.2.97-2.17,2.17-2.17h47.05c21.29,0,37.34,15.58,37.34,36.26s-16.05,36.26-37.34,36.26h-23.14c-1.2,0-2.17.97-2.17,2.17v29.61c0,1.2-.97,2.17-2.17,2.17h-19.58c-1.2,0-2.17-.97-2.17-2.17V45.17ZM199.33,67.7v23.13c0,1.2.97,2.17,2.17,2.17h22.67c7.56,0,13.27-6.02,13.27-13.73s-5.71-13.73-13.27-13.73h-22.67c-1.2,0-2.17.97-2.17,2.17Z"/>
        <path class="cls-4" d="M58.28,43h19.58c1.2,0,2.17.97,2.17,2.17v37.01c0,2.05,2.58,2.95,3.86,1.35l31.75-39.72c.41-.51,1.03-.81,1.69-.81h23.54c1.83,0,2.84,2.13,1.68,3.54l-35.99,43.91c-.63.77-.66,1.86-.07,2.66l17.83,24.26c4.47,6.33,10.18,9.57,17.13,9.57h10.3c1.2,0,2.17.97,2.17,2.17v18.19c0,1.2-.97,2.17-2.17,2.17h-12.93c-15.89,0-27.62-6.02-35.02-17.9l-12.94-18.44c-.8-1.14-2.46-1.24-3.39-.2l-6.88,7.69c-.36.4-.55.91-.55,1.45v25.24c0,1.2-.97,2.17-2.17,2.17h-19.58c-1.2,0-2.17-.97-2.17-2.17V45.17c0-1.2.97-2.17,2.17-2.17Z"/>
      </g>
    </g>
  </g>
</svg>