<?xml version="1.0" encoding="UTF-8"?>
<svg id="Layer_2" data-name="Layer 2" xmlns="http://www.w3.org/2000/svg" viewBox="0 0 320 320">
  <defs>
    <style>
      .cls-1 {
        fill: #2922ff;
      }

      .cls-1, .cls-2 {
        stroke-width: 0px;
      }

      .cls-2 {
        fill: #ff4222;
      }
    </style>
  </defs>
  <g id="Layer_1-2" data-name="Layer 1">
    <g>
      <g>
        <path class="cls-1" d="M292.63.03l-18.19-.03c-.64,0-1.24.31-1.62.82l-12.77,17.49c-.97,1.32-.02,3.19,1.62,3.19l30.91.03c3.27,0,5.91,2.65,5.91,5.91v265.9c0,3.27-2.65,5.91-5.91,5.91l-265.17-.03c-3.27,0-5.91-2.65-5.91-5.91l.03-265.94c0-3.27,2.65-5.91,5.91-5.91l167.78.04c.64,0,1.24-.31,1.62-.82l12.77-17.49c.97-1.33.02-3.19-1.62-3.19H27.4C12.28,0,.03,12.26.03,27.37l-.03,265.23c0,15.12,12.25,27.37,27.37,27.37h37.25l228.01.03c15.12,0,27.37-12.26,27.37-27.37V27.4C320,12.28,307.74.03,292.63.03Z"/>
        <path class="cls-2" d="M214.49,26.57h20.42c.64,0,1.24-.31,1.62-.82l16.46-22.56c.97-1.32.02-3.19-1.62-3.19h-20.42c-.64,0-1.24.31-1.62.82l-16.46,22.56c-.97,1.33-.02,3.19,1.62,3.19Z"/>
      </g>
      <g>
        <path class="cls-1" d="M273.94,268.73l-27.68-175.78c-.59-3.72-3.79-6.46-7.56-6.46h-23.31v-2.3c0-26.37-20.86-48.46-47.23-48.96-26.98-.51-49.09,21.29-49.09,48.15v30.5c0,4.19,3.23,7.85,7.42,7.97,4.34.13,7.89-3.35,7.89-7.65v-12.4h45.08c4.19,0,7.85-3.23,7.97-7.42.13-4.34-3.35-7.89-7.65-7.89h-45.4v-2.46c0-18.38,15.04-33.81,33.42-33.5,17.85.3,32.28,14.92,32.28,32.84v30.5c0,4.19,3.23,7.85,7.42,7.97,4.34.13,7.89-3.35,7.89-7.65v-12.4h14.15c1.51,0,2.79,1.1,3.02,2.59l24.31,154.35c.29,1.86-1.14,3.54-3.02,3.54H100.29c-1.62,0-2.96-1.27-3.06-2.89l-8.86-154.35c-.1-1.76,1.3-3.24,3.06-3.24h9.67c4.19,0,7.85-3.23,7.97-7.42s-3.35-7.89-7.65-7.89h-22.7c-3.81,0-7.04,2.8-7.58,6.57l-25.1,175.78c-.44,3.06,1,6.16,3.86,7.78,1.19.67,2.56.96,3.92.96h212.36c1.38,0,2.76-.29,3.96-.98,2.87-1.64,4.29-4.8,3.81-7.87Z"/>
        <path class="cls-1" d="M170.05,234.62c2.13,1.59,3.67,1.4,5.54-.24,9.53-8.39,19.71-16.15,28.47-25.28,6.06-6.32,11.37-13.97,14.93-21.95,7.82-17.56-4.56-36.37-23.74-37.28-9.02-.43-16.41,3.32-22.48,10.17-1.3-1.23-2.35-2.28-3.46-3.26-8.77-7.81-21.59-9.18-31.7-3.41-9.99,5.7-15.82,17.34-12.88,28.59,1.64,6.27,4.86,12.43,8.6,17.79,9.83,14.06,23.07,24.72,36.73,34.88Z"/>
      </g>
    </g>
  </g>
</svg>