<svg width="93" height="29" viewBox="0 0 93 29" fill="none" xmlns="http://www.w3.org/2000/svg">
<g clip-path="url(#clip0_2035_1606)">
<path fill-rule="evenodd" clip-rule="evenodd" d="M25.8859 17.147H30.0958V15.9793C30.0958 14.8514 29.6351 13.1833 27.9114 13.1833C26.1877 13.1833 25.8938 15.1373 25.8938 16.3209C25.8938 16.6386 25.8938 16.8928 25.8938 17.147H25.8859ZM32.6933 21.5714C32.6933 22.183 32.5423 26.5994 27.8558 26.5994C23.1693 26.5994 22.9866 21.5714 22.9866 21.1504C22.9866 20.7294 22.9628 19.1566 22.9628 16.8372C22.9628 14.5177 23.9954 10.7765 27.8161 10.7765C31.6368 10.7765 32.8442 14.0729 32.8442 16.6862V19.3155H25.87C25.87 19.4823 25.87 19.665 25.87 19.8556C25.87 21.7858 26.0527 24.1767 27.9035 24.1767C29.7543 24.1767 30.0879 22.6119 30.0879 21.6031V21.5634H32.6933V21.5714ZM19.4677 11.404C19.6107 11.404 19.7457 11.4596 19.8411 11.5549C19.9443 11.6502 19.9999 11.7853 19.9999 11.9282V23.8431C19.9999 23.9861 20.0555 24.1211 20.1588 24.2165C20.2621 24.3118 20.3892 24.3753 20.5321 24.3753H21.0326C21.3265 24.3753 21.5648 24.6136 21.5648 24.9075V26.0672C21.5648 26.3611 21.3265 26.5994 21.0326 26.5994H16.0124C15.7185 26.5994 15.4802 26.3611 15.4802 26.0672V24.9075C15.4802 24.6136 15.7185 24.3753 16.0124 24.3753H16.6399C16.9338 24.3753 17.1721 24.137 17.1721 23.8431V14.1603C17.1721 14.0411 17.1245 13.9299 17.045 13.8426C16.9577 13.7552 16.8465 13.7155 16.7273 13.7155H16.0124C15.7185 13.7155 15.4802 13.4772 15.4802 13.1833V11.9282C15.4802 11.7853 15.5358 11.6502 15.6391 11.5549C15.7423 11.4596 15.8694 11.404 16.0124 11.404H19.4757H19.4677ZM19.857 6.76511V8.18696C19.857 8.45703 19.6425 8.6715 19.3724 8.6715H17.5693C17.2992 8.6715 17.0848 8.45703 17.0848 8.18696V6.76511C17.0848 6.49504 17.2992 6.28057 17.5693 6.28057H19.3724C19.6425 6.28057 19.857 6.49504 19.857 6.76511ZM7.17157 2.65845C7.51313 2.65845 7.79114 2.93646 7.79114 3.27802V4.47745C7.79114 4.81901 7.51313 5.09703 7.17157 5.09703H6.03568C5.95625 5.09703 5.88476 5.1288 5.8371 5.19235C5.78944 5.25589 5.77355 5.32738 5.78944 5.40682L9.13355 20.3799L12.5333 5.41476C12.5492 5.33533 12.5333 5.26384 12.4856 5.20029C12.4379 5.13675 12.3665 5.10497 12.287 5.10497H11.2067C11.0399 5.10497 10.8811 5.04143 10.7699 4.92228C10.6507 4.80313 10.5872 4.64426 10.5872 4.4854V3.28596C10.5872 3.11916 10.6507 2.96029 10.7699 2.84909C10.889 2.72994 11.0479 2.66639 11.2067 2.66639H16.5208C16.6876 2.66639 16.8465 2.72994 16.9577 2.84909C17.0768 2.96823 17.1404 3.1271 17.1404 3.28596V4.4854C17.1404 4.82696 16.8623 5.10497 16.5208 5.10497H15.2975L10.3648 26.1705C10.3012 26.4485 10.047 26.6471 9.76107 26.6471H8.371C8.08504 26.6471 7.8388 26.4565 7.76731 26.1784L2.42944 5.10497H1.49213C1.32532 5.10497 1.16646 5.04143 1.05525 4.92228C0.936105 4.80313 0.872559 4.64426 0.872559 4.4854V3.28596C0.872559 2.9444 1.15057 2.66639 1.49213 2.66639H7.17157V2.65845Z" fill="white"/>
<path fill-rule="evenodd" clip-rule="evenodd" d="M89.0825 2.62668C89.0825 1.82441 89.3526 1.10951 89.7974 2.0627C90.2422 3.00795 92.5776 7.46412 92.5776 14.6289C92.5776 21.7938 90.4964 26.2341 90.0834 27.1555C89.6703 28.0769 89.1302 28.3549 89.1302 27.2111C89.1302 26.0672 89.0825 3.42895 89.0825 2.62668Z" fill="white"/>
<path fill-rule="evenodd" clip-rule="evenodd" d="M69.8676 12.3016C69.8676 12.3016 81.6952 26.4406 81.8937 26.663C82.0923 26.8854 82.2988 27.2111 82.2988 27.4494C82.2988 27.8942 81.8858 28.625 80.2098 28.625H65.2129C68.2393 27.8148 69.8676 25.956 69.8676 24.5739V12.3016Z" fill="white"/>
<path fill-rule="evenodd" clip-rule="evenodd" d="M66.0867 0.720337H79.0501C81.4966 0.720337 82.9343 1.33991 82.9343 3.03977V15.8443C82.9343 16.4242 82.6087 16.7498 82.0844 16.7498C81.5601 16.7498 81.2027 16.2256 81.2027 16.2256C81.2027 16.2256 72.1394 5.19239 71.4801 4.46161C70.8209 3.73083 69.9392 2.65055 68.4935 1.92771C67.0478 1.20488 66.0867 0.72828 66.0867 0.72828V0.720337Z" fill="white"/>
<path fill-rule="evenodd" clip-rule="evenodd" d="M56.2926 14.6369C56.2926 19.0692 52.877 22.6993 48.4367 22.6993C43.9964 22.6993 40.136 19.0692 40.136 14.6369C40.136 10.2046 43.5992 6.60626 48.2143 6.60626C52.8293 6.60626 56.2926 10.2046 56.2926 14.6369Z" fill="black"/>
<path fill-rule="evenodd" clip-rule="evenodd" d="M56.2926 14.6369C56.2926 19.0692 52.877 22.6993 48.4367 22.6993C43.9964 22.6993 40.136 19.0692 40.136 14.6369C40.136 10.2046 43.5992 6.60626 48.2143 6.60626C52.8293 6.60626 56.2926 10.2046 56.2926 14.6369Z" fill="black"/>
<path fill-rule="evenodd" clip-rule="evenodd" d="M48.2463 1.01422C40.4381 1.01422 34.5759 7.11465 34.5759 14.629C34.5759 22.1433 41.0735 28.2914 48.6196 28.2914C56.1657 28.2914 61.9166 22.1433 61.9166 14.629C61.9166 7.11465 56.0545 1.01422 48.2463 1.01422ZM48.4369 22.6993C43.9728 22.6993 40.1362 19.0693 40.1362 14.6369C40.1362 10.2046 43.5995 6.60628 48.2145 6.60628C52.8295 6.60628 56.2928 10.2046 56.2928 14.6369C56.2928 19.0693 52.8772 22.6993 48.4369 22.6993Z" fill="white"/>
<path fill-rule="evenodd" clip-rule="evenodd" d="M56.2926 14.6369C56.2926 19.0692 52.877 22.6993 48.4367 22.6993C43.9964 22.6993 40.136 19.0692 40.136 14.6369C40.136 10.2046 43.5992 6.60626 48.2143 6.60626C52.8293 6.60626 56.2926 10.2046 56.2926 14.6369Z" fill="url(#paint0_linear_2035_1606)"/>
<path fill-rule="evenodd" clip-rule="evenodd" d="M48.8896 0.625C40.5174 0.625 34.2263 6.90018 34.2263 14.629C34.2263 22.3578 40.7954 28.625 48.8896 28.625C57.6589 28.625 63.5528 22.3498 63.5528 14.629C63.5528 6.90812 57.2618 0.625 48.8896 0.625ZM48.6195 28.2914C41.0734 28.2914 34.5758 22.1433 34.5758 14.629C34.5758 7.11464 40.4379 1.01422 48.2462 1.01422C56.0544 1.01422 61.9165 7.11464 61.9165 14.629C61.9165 22.1433 56.1338 28.2914 48.6195 28.2914Z" fill="#6ADA4D"/>
<path d="M48.1826 15.8046C51.4157 15.8046 54.0367 13.9269 54.0367 11.6105C54.0367 9.29424 51.4157 7.4165 48.1826 7.4165C44.9494 7.4165 42.3284 9.29424 42.3284 11.6105C42.3284 13.9269 44.9494 15.8046 48.1826 15.8046Z" fill="url(#paint1_linear_2035_1606)"/>
</g>
<defs>
<linearGradient id="paint0_linear_2035_1606" x1="45.3627" y1="19.6968" x2="54.2591" y2="3.95321" gradientUnits="userSpaceOnUse">
<stop stop-color="#98ED49"/>
<stop offset="1" stop-color="#6BBE39"/>
</linearGradient>
<linearGradient id="paint1_linear_2035_1606" x1="48.2302" y1="14.764" x2="48.1111" y2="7.16232" gradientUnits="userSpaceOnUse">
<stop stop-color="white" stop-opacity="0"/>
<stop offset="1" stop-color="#FAFDF5"/>
</linearGradient>
<clipPath id="clip0_2035_1606">
<rect width="91.705" height="28" fill="white" transform="translate(0.872559 0.625)"/>
</clipPath>
</defs>
</svg>
