<svg width="32" height="32" viewBox="0 0 32 32" fill="none" xmlns="http://www.w3.org/2000/svg">
<path d="M16.9685 27.2205C14.4393 27.164 12.0796 27.1498 9.734 27.0651C8.05254 26.9944 6.37108 26.8531 4.70375 26.7118C3.8277 26.6412 2.95164 26.4716 2.21688 25.9205C1.28431 25.2423 0.76151 24.3239 0.535431 23.1935C0.224573 21.5403 0.0691432 19.8588 0.0267535 18.1773C-0.00150638 16.6937 -0.0156363 15.2101 0.0267535 13.7123C0.0832731 11.9743 0.224571 10.2363 0.577819 8.5266C0.902808 6.91579 2.18862 5.6441 3.82769 5.41802C5.21243 5.23433 6.59716 5.09303 7.98189 4.99412C11.5568 4.75391 15.1316 4.75391 18.7206 4.81043C20.6706 4.83869 22.6064 4.90934 24.5563 5.00825C25.7008 5.06477 26.8595 5.14955 28.004 5.34737C29.9115 5.67236 31.056 6.8734 31.4376 8.76681C31.7343 10.2222 31.9038 11.7058 31.9462 13.1895C31.9886 14.772 32.0169 16.3546 31.9886 17.923C31.9462 19.7881 31.7625 21.6533 31.381 23.4902C31.056 25.0869 29.7278 26.3586 28.0181 26.5846C26.5345 26.7825 25.0367 26.9238 23.5248 26.9944C21.2781 27.1074 19.0456 27.1357 16.9685 27.1922V27.2205ZM21.2923 16.0013C18.4663 14.3905 15.6968 12.7938 12.8991 11.183V20.8196C15.711 19.2088 18.4663 17.6263 21.2923 16.0013Z" fill="#F5F5F6"/>
</svg>
