<svg width="49" height="40" viewBox="0 0 49 40" fill="none" xmlns="http://www.w3.org/2000/svg">
<rect x="1.5" y="5.5" width="46" height="29" rx="4.5" stroke="#F5F5F6" stroke-width="3"/>
<path d="M11.5156 27.1973V12.8027H13.5859V18.916H20.6562V12.8027H22.7363V27.1973H20.6562V20.791H13.5859V27.1973H11.5156Z" fill="#F5F5F6"/>
<path d="M25.9297 27.1973V12.8027H30.6367C31.6003 12.8027 32.4954 12.9622 33.3223 13.2812C34.1556 13.5938 34.8815 14.0527 35.5 14.6582C36.125 15.2637 36.61 16.0059 36.9551 16.8848C37.3066 17.7572 37.4824 18.7565 37.4824 19.8828C37.4824 21.0286 37.3066 22.054 36.9551 22.959C36.61 23.8574 36.1315 24.6224 35.5195 25.2539C34.9076 25.8854 34.1979 26.3672 33.3906 26.6992C32.5833 27.0312 31.7142 27.1973 30.7832 27.1973H25.9297ZM28 25.3125H30.8027C31.4147 25.3125 31.9974 25.1921 32.5508 24.9512C33.1042 24.7103 33.5957 24.3587 34.0254 23.8965C34.4551 23.4277 34.7904 22.8581 35.0312 22.1875C35.2786 21.5104 35.4023 20.7422 35.4023 19.8828C35.4023 19.0365 35.2786 18.291 35.0312 17.6465C34.7904 16.9954 34.4551 16.4518 34.0254 16.0156C33.5957 15.5794 33.1042 15.2507 32.5508 15.0293C31.9974 14.8014 31.4147 14.6875 30.8027 14.6875H28V25.3125Z" fill="#F5F5F6"/>
</svg>
